<svg width="15" height="13" viewBox="0 0 15 13" fill="none" xmlns="http://www.w3.org/2000/svg">
<path fill-rule="evenodd" clip-rule="evenodd" d="M5.13381 0.00479298C5.1076 0.00691565 5.08193 0.013487 5.05787 0.0242171L0.141621 2.18134C0.103691 2.19791 0.0707733 2.22437 0.0462042 2.25794C0.0216351 2.29151 0.00628821 2.33102 0.00171943 2.37252C-0.00284935 2.41401 0.00352239 2.456 0.0201887 2.49421C0.036855 2.53241 0.0632234 2.56547 0.0966205 2.59006L2.206 4.13959L0.0966205 5.68867C0.0631069 5.71324 0.0366325 5.74638 0.0198911 5.78464C0.00314979 5.8229 -0.00326085 5.86492 0.00131152 5.9065C0.00588389 5.94807 0.0212761 5.9877 0.0459218 6.02131C0.0705675 6.05492 0.103587 6.08132 0.141621 6.09785L2.34428 7.06397V10.5348C2.34406 10.5531 2.34595 10.5714 2.3499 10.5893C2.33754 10.644 2.3448 10.7013 2.37039 10.7511C2.39597 10.8009 2.43821 10.8399 2.48959 10.8611L7.4035 12.9804C7.41298 12.9841 7.42269 12.987 7.43256 12.9894C7.43475 12.9894 7.43693 12.9894 7.43912 12.9894C7.44221 12.991 7.44534 12.9926 7.4485 12.9941C7.45452 12.9959 7.46062 12.9975 7.46678 12.9989C7.46834 12.9989 7.4699 12.9989 7.47146 12.9989C7.47193 12.9989 7.4724 12.9989 7.47287 12.9989C7.48815 13.0004 7.50353 13.0004 7.51881 12.9989C7.52559 12.9976 7.53232 12.996 7.53896 12.9941C7.54021 12.9941 7.54146 12.9941 7.54271 12.9941C7.54443 12.9941 7.54615 12.9941 7.54787 12.9941C7.55387 12.9928 7.55981 12.9912 7.56568 12.9894C7.57299 12.9872 7.58018 12.9847 7.58725 12.9818C7.5904 12.9803 7.59353 12.9787 7.59662 12.9771L12.511 10.8578C12.5627 10.8367 12.6053 10.7976 12.6311 10.7476C12.6569 10.6976 12.6642 10.6399 12.6516 10.585C12.6552 10.5674 12.6568 10.5495 12.6563 10.5315V7.04079L14.8594 6.07421C14.8973 6.05759 14.9301 6.03119 14.9546 5.99767C14.9791 5.96414 14.9944 5.92467 14.9989 5.88326C15.0035 5.84185 14.9972 5.79995 14.9806 5.7618C14.964 5.72365 14.9377 5.69057 14.9044 5.66595L12.7135 4.05675C12.7129 4.05517 12.7123 4.05358 12.7116 4.05201C12.711 4.05043 12.7104 4.04884 12.7097 4.04727L14.6874 2.5948C14.7208 2.57021 14.7472 2.53715 14.7638 2.49895C14.7805 2.46074 14.7869 2.41875 14.7823 2.37726C14.7777 2.33576 14.7624 2.29625 14.7378 2.26268C14.7132 2.22911 14.6803 2.20265 14.6424 2.18608L9.72709 0.02942C9.69829 0.0164918 9.6672 0.00958048 9.63568 0.00907092C9.58518 0.00852302 9.53586 0.0244442 9.49506 0.0545096L7.39787 1.59509L5.2885 0.0459826C5.24387 0.0128381 5.18907 -0.00324356 5.13381 0.000543941V0.00479298ZM5.12209 0.513897L7.03646 1.92044L2.59318 3.83985L0.704121 2.45224L5.12209 0.513897ZM9.66287 0.521441L14.0804 2.45981L12.2776 3.78349L7.83475 1.86408L9.66287 0.521441ZM7.50053 2.23533L11.8969 4.13485L7.50006 6.0349L6.0849 5.42396L4.26756 4.63925L3.10131 4.13485L7.50053 2.23533ZM12.4149 4.42755L14.2965 5.80944L9.87896 7.74781L7.97115 6.34649L12.4149 4.42755ZM2.6035 4.43512L4.08381 5.07444L5.90115 5.85921L7.04537 6.35406L5.12209 7.76769L0.704589 5.82886L2.6035 4.43512ZM7.7349 6.7585L9.71256 8.21052C9.74545 8.23471 9.78402 8.24983 9.82446 8.25439C9.86489 8.25896 9.90581 8.25279 9.94318 8.23653L12.188 7.25151V10.487L7.7349 12.4073V6.7585ZM7.26615 6.777V12.4073L2.81303 10.487V7.27093L5.05787 8.25596C5.09524 8.27221 5.13616 8.27839 5.1766 8.27382C5.21703 8.26925 5.2556 8.25413 5.2885 8.22994L7.26615 6.777ZM9.59771 9.40013C9.59693 9.40013 9.59615 9.40013 9.59537 9.40013C9.56655 9.40167 9.53827 9.40856 9.51193 9.42048L8.26506 9.95898C8.23674 9.97123 8.21109 9.98897 8.18957 10.0112C8.16805 10.0335 8.15108 10.0599 8.13964 10.0888C8.12819 10.1177 8.12248 10.1485 8.12285 10.1796C8.12322 10.2108 8.12965 10.2415 8.14178 10.2701C8.1539 10.2987 8.17149 10.3246 8.19353 10.3464C8.21557 10.3681 8.24163 10.3853 8.27023 10.3968C8.29883 10.4084 8.3294 10.4141 8.3602 10.4138C8.391 10.4134 8.42143 10.4069 8.44974 10.3946L9.69568 9.85619C9.74759 9.83571 9.79057 9.79723 9.81693 9.74763C9.84328 9.69802 9.85127 9.64055 9.83948 9.58553C9.82768 9.5305 9.79687 9.48151 9.75256 9.44736C9.70825 9.41322 9.65336 9.39708 9.59771 9.40013ZM10.8441 9.72311C10.8432 9.72311 10.8422 9.72311 10.8413 9.72311C10.8125 9.72466 10.7842 9.73154 10.7579 9.74346L9.51193 10.2814L8.26506 10.8199C8.23542 10.8312 8.20835 10.8484 8.18549 10.8706C8.16263 10.8927 8.14444 10.9193 8.13204 10.9487C8.11963 10.9782 8.11325 11.0099 8.1133 11.0419C8.11334 11.0739 8.11981 11.1055 8.1323 11.1349C8.14479 11.1643 8.16305 11.1909 8.18597 11.2129C8.2089 11.235 8.23601 11.2522 8.26568 11.2633C8.29535 11.2745 8.32696 11.2795 8.35859 11.278C8.39023 11.2765 8.42124 11.2686 8.44974 11.2547L9.69568 10.7172L10.9421 10.1787C10.9937 10.158 11.0363 10.1194 11.0624 10.0699C11.0885 10.0203 11.0963 9.9631 11.0845 9.90828C11.0727 9.85346 11.042 9.80466 10.9979 9.77058C10.9538 9.7365 10.8991 9.71935 10.8437 9.72219L10.8441 9.72311Z" fill="#095DBA"/>
</svg>
