<svg width="40" height="40" viewBox="0 0 40 40" fill="none" xmlns="http://www.w3.org/2000/svg">
<g clip-path="url(#clip0_3160_53545)">
<path d="M36.6666 0H3.33325C2.67021 0 2.03433 0.263392 1.56548 0.732233C1.09664 1.20107 0.833252 1.83696 0.833252 2.5V29.1667C0.833252 29.8297 1.09664 30.4656 1.56548 30.9344C2.03433 31.4033 2.67021 31.6667 3.33325 31.6667H14.1666V38.3333H12.4999C12.2789 38.3333 12.0669 38.4211 11.9107 38.5774C11.7544 38.7337 11.6666 38.9457 11.6666 39.1667C11.6666 39.3877 11.7544 39.5996 11.9107 39.7559C12.0669 39.9122 12.2789 40 12.4999 40H27.4999C27.7209 40 27.9329 39.9122 28.0892 39.7559C28.2455 39.5996 28.3333 39.3877 28.3333 39.1667C28.3333 38.9457 28.2455 38.7337 28.0892 38.5774C27.9329 38.4211 27.7209 38.3333 27.4999 38.3333H25.8333V31.6667H36.6666C37.3296 31.6667 37.9655 31.4033 38.4344 30.9344C38.9032 30.4656 39.1666 29.8297 39.1666 29.1667V2.5C39.1666 1.83696 38.9032 1.20107 38.4344 0.732233C37.9655 0.263392 37.3296 0 36.6666 0ZM2.49992 2.5C2.49992 2.27899 2.58772 2.06702 2.744 1.91074C2.90028 1.75446 3.11224 1.66667 3.33325 1.66667H36.6666C36.8876 1.66667 37.0996 1.75446 37.2558 1.91074C37.4121 2.06702 37.4999 2.27899 37.4999 2.5V25H2.49992V2.5ZM24.1666 38.3333H15.8333V31.6667H24.1666V38.3333ZM37.4999 29.1667C37.4999 29.3877 37.4121 29.5996 37.2558 29.7559C37.0996 29.9122 36.8876 30 36.6666 30H3.33325C3.11224 30 2.90028 29.9122 2.744 29.7559C2.58772 29.5996 2.49992 29.3877 2.49992 29.1667V26.6667H37.4999V29.1667Z" fill="#41C0EB"/>
<path d="M20 29.1667C20.221 29.1667 20.433 29.0789 20.5892 28.9226C20.7455 28.7663 20.8333 28.5543 20.8333 28.3333C20.8333 28.1123 20.7455 27.9004 20.5892 27.7441C20.433 27.5878 20.221 27.5 20 27.5C19.779 27.5 19.567 27.5878 19.4107 27.7441C19.2545 27.9004 19.1667 28.1123 19.1667 28.3333C19.1667 28.5543 19.2545 28.7663 19.4107 28.9226C19.567 29.0789 19.779 29.1667 20 29.1667ZM34.4833 6.73333C34.2583 6.66666 35.1667 6.66666 22.5 6.66666C22.3355 6.66748 22.1749 6.71699 22.0384 6.80893C21.902 6.90088 21.7958 7.03115 21.7333 7.18333C21.6667 7.40833 21.6667 6.5 21.6667 19.1667C21.6675 19.3312 21.717 19.4918 21.8089 19.6282C21.9009 19.7646 22.0311 19.8708 22.1833 19.9333C22.4083 20 21.5 20 34.1667 20C34.3312 19.9992 34.4918 19.9497 34.6282 19.8577C34.7646 19.7658 34.8708 19.6355 34.9333 19.4833C35 19.2583 35 20.1667 35 7.5C34.9992 7.33548 34.9497 7.17488 34.8577 7.03845C34.7658 6.90201 34.6355 6.79585 34.4833 6.73333ZM33.0917 16.9083C33.014 16.8306 32.9217 16.769 32.8202 16.7269C32.7187 16.6849 32.6099 16.6633 32.5 16.6633C32.3901 16.6633 32.2813 16.6849 32.1798 16.7269C32.0783 16.769 31.986 16.8306 31.9083 16.9083C31.8306 16.986 31.769 17.0783 31.7269 17.1798C31.6849 17.2813 31.6632 17.3901 31.6632 17.5C31.6632 17.6099 31.6849 17.7187 31.7269 17.8202C31.769 17.9217 31.8306 18.014 31.9083 18.0917C32.2583 18.4333 33.3083 18.3333 24.5083 18.3333L24.7583 18.0917C24.9152 17.9347 25.0034 17.7219 25.0034 17.5C25.0034 17.2781 24.9152 17.0653 24.7583 16.9083C24.6014 16.7514 24.3886 16.6633 24.1667 16.6633C23.9447 16.6633 23.7319 16.7514 23.575 16.9083L23.3333 17.1583C23.3333 8.3 23.2333 9.40833 23.575 9.75833C23.6527 9.83603 23.7449 9.89766 23.8465 9.93971C23.948 9.98176 24.0568 10.0034 24.1667 10.0034C24.2765 10.0034 24.3853 9.98176 24.4869 9.93971C24.5884 9.89766 24.6806 9.83603 24.7583 9.75833C24.836 9.68063 24.8977 9.58839 24.9397 9.48687C24.9818 9.38535 25.0034 9.27655 25.0034 9.16666C25.0034 9.05678 24.9818 8.94797 24.9397 8.84646C24.8977 8.74494 24.836 8.6527 24.7583 8.575L24.5083 8.33333C33.3667 8.33333 32.2583 8.23333 31.9083 8.575C31.7908 8.69156 31.7107 8.84047 31.6781 9.00276C31.6455 9.16505 31.662 9.33336 31.7255 9.48623C31.789 9.6391 31.8966 9.76961 32.0345 9.86111C32.1724 9.95261 32.3345 10.001 32.5 10C32.6669 9.98579 32.8284 9.93422 32.9727 9.84911C33.1169 9.764 33.2402 9.64753 33.3333 9.50833C33.3333 18.3333 33.4333 17.2583 33.0917 16.9083ZM19.1667 10H12.5C12.279 10 12.067 10.0878 11.9107 10.2441C11.7545 10.4004 11.6667 10.6123 11.6667 10.8333C11.6667 11.0543 11.7545 11.2663 11.9107 11.4226C12.067 11.5789 12.279 11.6667 12.5 11.6667H19.1667C19.3877 11.6667 19.5996 11.5789 19.7559 11.4226C19.9122 11.2663 20 11.0543 20 10.8333C20 10.6123 19.9122 10.4004 19.7559 10.2441C19.5996 10.0878 19.3877 10 19.1667 10ZM19.1667 14.1667H5.83333C5.61231 14.1667 5.40035 14.2545 5.24407 14.4107C5.08779 14.567 4.99999 14.779 4.99999 15C4.99999 15.221 5.08779 15.433 5.24407 15.5893C5.40035 15.7455 5.61231 15.8333 5.83333 15.8333H19.1667C19.3877 15.8333 19.5996 15.7455 19.7559 15.5893C19.9122 15.433 20 15.221 20 15C20 14.779 19.9122 14.567 19.7559 14.4107C19.5996 14.2545 19.3877 14.1667 19.1667 14.1667ZM6.90833 11.425C6.98579 11.5031 7.07796 11.5651 7.17951 11.6074C7.28106 11.6497 7.38998 11.6715 7.49999 11.6715C7.61 11.6715 7.71892 11.6497 7.82047 11.6074C7.92202 11.5651 8.01419 11.5031 8.09166 11.425L11.425 8.09166C11.5819 7.93474 11.6701 7.72192 11.6701 7.5C11.6701 7.27808 11.5819 7.06525 11.425 6.90833C11.2681 6.75141 11.0552 6.66325 10.8333 6.66325C10.6114 6.66325 10.3986 6.75141 10.2417 6.90833L7.49999 9.65833L6.42499 8.575C6.26807 8.41808 6.05524 8.32992 5.83333 8.32992C5.61141 8.32992 5.39858 8.41808 5.24166 8.575C5.08474 8.73192 4.99658 8.94475 4.99658 9.16666C4.99658 9.38858 5.08474 9.60141 5.24166 9.75833L6.90833 11.425ZM19.1667 18.3333H5.83333C5.61231 18.3333 5.40035 18.4211 5.24407 18.5774C5.08779 18.7337 4.99999 18.9457 4.99999 19.1667C4.99999 19.3877 5.08779 19.5996 5.24407 19.7559C5.40035 19.9122 5.61231 20 5.83333 20H19.1667C19.3877 20 19.5996 19.9122 19.7559 19.7559C19.9122 19.5996 20 19.3877 20 19.1667C20 18.9457 19.9122 18.7337 19.7559 18.5774C19.5996 18.4211 19.3877 18.3333 19.1667 18.3333Z" fill="#41C0EB"/>
</g>
<defs>
<clipPath id="clip0_3160_53545">
<rect width="40" height="40" fill="white"/>
</clipPath>
</defs>
</svg>
