<svg width="40" height="40" viewBox="0 0 40 40" fill="none" xmlns="http://www.w3.org/2000/svg">
<g id="Cow" clip-path="url(#clip0_3438_77953)">
<path id="Vector" d="M39.7768 13.4407C39.6746 13.3044 39.542 13.1938 39.3895 13.1179C39.2369 13.0419 39.0688 13.0027 38.8984 13.0034H30.6471L28.8672 10.5479C29.4572 10.3108 29.9626 9.90236 30.3182 9.3752C30.6737 8.84803 30.8631 8.22639 30.8618 7.59053V6.42842C30.8618 4.67061 29.4317 3.24054 27.6739 3.24054H27.2356V7.15226H12.3831V3.24054H11.9449C10.1871 3.24054 8.75699 4.67061 8.75699 6.42842V7.59053C8.75699 9.03875 9.73933 10.2825 11.0864 10.6603L9.38801 13.0034H1.10175C0.753415 13.0034 0.433304 13.1628 0.223373 13.4407C0.0134423 13.7187 -0.0523857 14.0702 0.0427187 14.4052L0.409725 15.697C0.890506 17.3895 2.43496 18.5362 4.16472 18.536C4.28735 18.536 4.41129 18.5302 4.5355 18.5185L7.54378 18.2336C8.12696 18.1787 8.66953 17.911 9.06807 17.4817C9.27247 17.2624 9.53729 17.1085 9.82908 17.0396L13.3962 36.398V36.7594H26.6457V36.3611L30.2045 17.0484C30.4832 17.1208 30.7355 17.2711 30.932 17.4817C31.3306 17.911 31.8732 18.1787 32.4564 18.2336L35.4646 18.5185C37.3404 18.6956 39.0756 17.5095 39.5905 15.697L39.9575 14.4052C40.0047 14.2415 40.0129 14.069 39.9816 13.9015C39.9502 13.734 39.88 13.5762 39.7768 13.4407ZM28.1122 8.0288V4.1588C29.1778 4.36417 29.9852 5.30382 29.9852 6.42851V7.59062C29.9852 8.62844 29.3027 9.52076 28.3295 9.80616L27.6088 8.81181C27.4003 8.51822 27.1523 8.25477 26.8719 8.02889L28.1122 8.0288ZM16.4519 8.0288H24.4012C25.3903 8.0288 26.3219 8.51081 26.8961 9.32213L29.8298 13.3695L26.9119 15.2418C24.3587 16.8802 22.8344 19.6694 22.8344 22.703V30.0022H17.2007V22.703C17.2007 19.6694 15.6764 16.8802 13.1232 15.2418L10.2053 13.3695L13.1419 9.3181C13.1661 9.28383 13.1918 9.25105 13.2173 9.218C13.2349 9.1953 13.2523 9.17242 13.2705 9.15024C13.2901 9.12623 13.3104 9.103 13.3308 9.07968C13.3507 9.0568 13.3706 9.03375 13.3912 9.01149C13.4099 8.99115 13.4295 8.97152 13.4487 8.9518C13.4723 8.92769 13.4958 8.9035 13.5201 8.88018C13.5368 8.86423 13.5539 8.84898 13.5708 8.83346C13.5991 8.8076 13.6274 8.78175 13.6565 8.75703C13.6698 8.74572 13.6836 8.73494 13.6971 8.7239C13.7307 8.69628 13.7646 8.66894 13.7994 8.64282C13.8087 8.6358 13.8183 8.62923 13.8277 8.62239C13.8672 8.59347 13.9071 8.56498 13.9479 8.53798C13.9528 8.53474 13.9579 8.53167 13.9629 8.52843C14.0083 8.4986 14.0545 8.47002 14.1015 8.4427L14.1029 8.44191C14.4106 8.2636 14.747 8.14007 15.097 8.07684C15.1007 8.07613 15.1043 8.07578 15.1079 8.07517C15.1626 8.06553 15.2177 8.05711 15.2731 8.05045C15.2916 8.04826 15.3103 8.04721 15.3289 8.04537C15.3699 8.04125 15.4108 8.03678 15.452 8.03432C15.5124 8.03073 15.5729 8.0288 15.6338 8.0288H16.4519ZM9.63362 7.59053V6.42842C9.63362 5.30373 10.4411 4.36409 11.5067 4.15871V8.02871H13.1626C13.1456 8.04248 13.1285 8.05615 13.1117 8.07017C13.1072 8.07394 13.1026 8.07745 13.0981 8.08122C13.0488 8.12285 13.0007 8.16615 12.9533 8.21033C12.943 8.21997 12.9325 8.22918 12.9222 8.23891C12.8812 8.278 12.8414 8.3185 12.802 8.35952C12.7863 8.37582 12.7703 8.39178 12.7549 8.40843C12.7216 8.44428 12.6894 8.48136 12.6574 8.51852C12.6372 8.54193 12.6169 8.56507 12.5972 8.58891C12.5707 8.62125 12.5452 8.65447 12.5197 8.68769C12.5035 8.70873 12.4864 8.72889 12.4705 8.75037C12.4567 8.7691 12.4431 8.78798 12.4297 8.80699L12.4293 8.80743L11.65 9.88268C10.5092 9.73726 9.63362 8.7551 9.63362 7.59053ZM10.1754 16.1226C9.84712 16.123 9.52244 16.1909 9.2215 16.3221C8.92057 16.4533 8.6498 16.6449 8.42601 16.8851C8.17374 17.1568 7.83033 17.3262 7.46121 17.361L4.45293 17.6459C2.99796 17.7839 1.65213 16.8633 1.25287 15.4575L0.88586 14.1657C0.876053 14.1324 0.874276 14.0972 0.880675 14.063C0.887073 14.0288 0.901465 13.9966 0.922675 13.9691C0.943362 13.9412 0.970363 13.9185 1.00147 13.903C1.03258 13.8876 1.06691 13.8796 1.10166 13.88H9.37767L12.6498 15.9795C14.9505 17.4559 16.3241 19.9693 16.3241 22.703V30.0034C14.9841 30.0247 13.8571 30.9356 13.5084 32.1705L10.5513 16.1227H10.1754V16.1226ZM14.2728 35.8829V32.9778C14.2728 31.8203 15.2144 30.8786 16.3719 30.8786H23.67C24.8275 30.8786 25.7692 31.8203 25.7692 32.9778V35.8829H14.2728ZM39.1143 14.1657L38.7473 15.4575C38.3479 16.8633 37.0022 17.7839 35.5472 17.6459L32.539 17.361C32.1699 17.3262 31.8265 17.1568 31.5741 16.8851C31.1317 16.4089 30.5047 16.1312 29.8539 16.1232L29.4845 16.1186L26.5293 32.1559C26.1753 30.9264 25.0487 30.0215 23.711 30.0032V22.703C23.711 19.9693 25.0845 17.456 27.3853 15.9795L30.6573 13.88H38.8983C38.9331 13.8796 38.9674 13.8875 38.9985 13.903C39.0296 13.9185 39.0566 13.9412 39.0773 13.9691C39.1025 14.0024 39.1408 14.0722 39.1143 14.1657Z" fill="#41C0EB"/>
<path id="Vector_2" d="M13.7055 21.1031C14.2303 21.1031 14.6558 20.6777 14.6558 20.1529C14.6558 19.6281 14.2303 19.2026 13.7055 19.2026C13.1807 19.2026 12.7552 19.6281 12.7552 20.1529C12.7552 20.6777 13.1807 21.1031 13.7055 21.1031Z" fill="#41C0EB"/>
<path id="Vector_3" d="M26.3296 21.1031C26.8545 21.1031 27.2799 20.6777 27.2799 20.1529C27.2799 19.6281 26.8545 19.2026 26.3296 19.2026C25.8048 19.2026 25.3794 19.6281 25.3794 20.1529C25.3794 20.6777 25.8048 21.1031 26.3296 21.1031Z" fill="#41C0EB"/>
<path id="Vector_4" d="M17.458 32.6198C17.0032 32.6198 16.631 32.9919 16.631 33.4468V33.8203C16.631 34.2751 17.0032 34.6473 17.458 34.6473C17.9128 34.6473 18.285 34.2751 18.285 33.8203V33.4468C18.285 32.9919 17.9129 32.6198 17.458 32.6198ZM22.5771 32.6198C22.1222 32.6198 21.75 32.9919 21.75 33.4468V33.8203C21.75 34.2751 22.1222 34.6473 22.5771 34.6473C23.0319 34.6473 23.4041 34.2751 23.4041 33.8203V33.4468C23.4041 32.9919 23.0319 32.6198 22.5771 32.6198Z" fill="#41C0EB"/>
</g>
<defs>
<clipPath id="clip0_3438_77953">
<rect width="40" height="40" fill="white"/>
</clipPath>
</defs>
</svg>
