<svg width="40" height="40" viewBox="0 0 40 40" fill="none" xmlns="http://www.w3.org/2000/svg">
<path d="M21.9375 28.5875C21.6921 28.5873 21.4523 28.5149 21.2478 28.3793C21.0433 28.2437 20.8832 28.0509 20.7875 27.825L20.075 26.7125C19.5875 25.95 18.9125 24.9125 18.175 23.7375C14.3125 17.5 12.5 13.3375 12.5 10.9C12.5893 8.43844 13.6299 6.10748 15.4029 4.39761C17.1759 2.68773 19.5431 1.73227 22.0062 1.73227C24.4694 1.73227 26.8366 2.68773 28.6096 4.39761C30.3826 6.10748 31.4232 8.43844 31.5125 10.9C31.5125 13.95 28.4875 19.525 25.95 23.6625C22.8375 28.5875 22.6625 28.5875 21.9375 28.5875ZM21.9375 3.9125C20.094 3.92896 18.3314 4.672 17.0325 5.98028C15.7336 7.28855 15.0032 9.05643 15 10.9C15 11.9875 15.7 14.925 20.3625 22.4125C21 23.45 21.6125 24.375 22.0625 25.0875C22.525 24.3875 23.1375 23.45 23.8125 22.35C27.1125 16.975 29.0125 12.8 29.0125 10.9C29.0092 9.97593 28.8234 9.06161 28.4656 8.20961C28.1078 7.35761 27.5852 6.58472 26.9277 5.93538C26.2702 5.28603 25.4909 4.77304 24.6345 4.42588C23.7781 4.07873 22.8615 3.90426 21.9375 3.9125Z" fill="#41C0EB"/>
<path d="M22.125 38.6C21.8644 38.5983 21.611 38.5153 21.4 38.3625C19.2625 36.85 16.8499 35.1875 16.0624 34.7125L4.23745 35.55C3.98521 35.5777 3.73052 35.5279 3.50724 35.4073C3.28396 35.2868 3.10266 35.1011 2.98745 34.875C2.87604 34.6553 2.83202 34.4076 2.86093 34.1629C2.88985 33.9183 2.99039 33.6877 3.14995 33.5L11.9 23.25C12.0948 23.0213 12.3655 22.8704 12.6624 22.825L18.9999 21.8375C19.2417 21.8005 19.489 21.8353 19.7112 21.9375C19.9334 22.0397 20.1207 22.2049 20.25 22.4125C20.8874 23.45 21.4999 24.375 21.9499 25.0875C22.4124 24.3875 23.025 23.45 23.6999 22.35C23.8275 22.1401 24.0141 21.9724 24.2364 21.8679C24.4587 21.7634 24.7069 21.7268 24.9499 21.7625L31.9 22.75C32.1313 22.7829 32.3488 22.88 32.5278 23.0302C32.7067 23.1804 32.84 23.3778 32.9125 23.6C37.0499 36.1 37.0499 36.35 37.0499 36.6C37.0487 36.8468 36.9745 37.0877 36.8365 37.2923C36.6986 37.497 36.5032 37.6562 36.275 37.75C36.0823 37.8299 35.8727 37.8603 35.6653 37.8385C35.4579 37.8166 35.2592 37.7432 35.0874 37.625C34.625 37.3625 31.7375 36 29 34.725L22.75 38.475C22.5559 38.57 22.3406 38.613 22.125 38.6ZM16.3374 32.1875C16.7874 32.1875 16.9874 32.1875 22.1874 35.8625L28.35 32.2375C28.5276 32.1454 28.7248 32.0974 28.9249 32.0974C29.1251 32.0974 29.3223 32.1454 29.5 32.2375L33.75 34.1875C32.95 31.6875 31.7374 27.9375 30.7874 25.1125L25.4 24.35C22.7624 28.5875 22.5749 28.5875 21.8874 28.5875C21.6421 28.5873 21.4022 28.5149 21.1977 28.3793C20.9932 28.2437 20.8331 28.0509 20.7374 27.825L20.025 26.7125C19.6374 26.1 19.125 25.325 18.5624 24.4375L13.4999 25.225L7.03745 32.8375C11.65 32.5 16.1249 32.1875 16.3374 32.1875ZM21.8249 14.0625C21.1006 14.0625 20.3925 13.8477 19.7902 13.4453C19.1879 13.0428 18.7184 12.4708 18.4412 11.8016C18.164 11.1323 18.0915 10.3959 18.2328 9.68548C18.3741 8.97502 18.723 8.32243 19.2352 7.81022C19.7474 7.29801 20.4 6.94919 21.1104 6.80787C21.8209 6.66655 22.5573 6.73908 23.2265 7.01629C23.8958 7.29349 24.4678 7.76293 24.8702 8.36522C25.2726 8.96752 25.4874 9.67562 25.4874 10.4C25.4874 11.3714 25.1016 12.3029 24.4147 12.9898C23.7279 13.6766 22.7963 14.0625 21.8249 14.0625ZM21.8249 9.2375C21.595 9.2375 21.3703 9.30568 21.1791 9.43341C20.9879 9.56115 20.8389 9.74271 20.7509 9.95513C20.663 10.1675 20.6399 10.4013 20.6848 10.6268C20.7296 10.8523 20.8404 11.0594 21.0029 11.222C21.1655 11.3846 21.3727 11.4953 21.5982 11.5402C21.8237 11.585 22.0574 11.562 22.2698 11.474C22.4822 11.386 22.6638 11.237 22.7915 11.0458C22.9193 10.8547 22.9874 10.6299 22.9874 10.4C22.9874 10.0917 22.865 9.796 22.647 9.57799C22.4289 9.35997 22.1333 9.2375 21.8249 9.2375Z" fill="#41C0EB"/>
</svg>
