<svg width="40" height="40" viewBox="0 0 40 40" fill="none" xmlns="http://www.w3.org/2000/svg">
<path d="M24.7463 21.779L20.8335 19.5182V11.6667C20.8335 11.2065 20.4604 10.8333 20.0002 10.8333C19.54 10.8333 19.1668 11.2065 19.1668 11.6667V20C19.1669 20.2975 19.3257 20.5724 19.5835 20.721L23.9129 23.221C24.0395 23.2947 24.1832 23.3334 24.3296 23.3333C24.6268 23.3331 24.9014 23.1746 25.0502 22.9174C25.2806 22.5191 25.1446 22.0094 24.7463 21.779ZM20.0002 3.33333C10.7955 3.33333 3.3335 10.7953 3.3335 20C3.3335 29.2047 10.7955 36.6667 20.0002 36.6667C29.2004 36.6559 36.656 29.2002 36.6668 20C36.6668 10.7953 29.2049 3.33333 20.0002 3.33333ZM20.0002 35C11.7159 35 5.00016 28.2843 5.00016 20C5.00016 11.7157 11.7159 4.99999 20.0002 4.99999C28.2807 5.00905 34.9911 11.7195 35.0002 20C35.0002 28.2843 28.2845 35 20.0002 35Z" fill="#41C0EB"/>
</svg>
