<svg width="40" height="40" viewBox="0 0 40 40" fill="none" xmlns="http://www.w3.org/2000/svg">
<path d="M25.6002 17.6H35.2002V17.2093L30.6649 12.8H25.6002V17.6ZM25.6002 19.2V24.7996C26.33 23.8283 27.4917 23.2 28.8002 23.2C30.4404 23.2 31.8501 24.1873 32.4674 25.6H35.2002V19.2H25.6002ZM24.0002 25.6V11.2V9.6H4.8002V25.6H5.93303C6.55028 24.1873 7.95994 23.2 9.60019 23.2C11.2404 23.2 12.6501 24.1873 13.2674 25.6H24.0002ZM25.6002 11.2H31.3145L36.8002 16.5333V25.6C36.8002 26.4837 36.0838 27.2 35.2002 27.2H32.8002C32.8002 29.4091 31.0093 31.2 28.8002 31.2C26.5911 31.2 24.8002 29.4091 24.8002 27.2H13.6002C13.6002 29.4091 11.8093 31.2 9.60019 31.2C7.39106 31.2 5.6002 29.4091 5.6002 27.2H4.8002C3.91654 27.2 3.2002 26.4837 3.2002 25.6V9.6C3.2002 8.71634 3.91654 8 4.8002 8H24.0002C24.8838 8 25.6002 8.71634 25.6002 9.6V11.2ZM9.60019 29.6C10.9257 29.6 12.0002 28.5255 12.0002 27.2C12.0002 25.8745 10.9257 24.8 9.60019 24.8C8.27471 24.8 7.2002 25.8745 7.2002 27.2C7.2002 28.5255 8.27471 29.6 9.60019 29.6ZM28.8002 29.6C30.1257 29.6 31.2002 28.5255 31.2002 27.2C31.2002 25.8745 30.1257 24.8 28.8002 24.8C27.4747 24.8 26.4002 25.8745 26.4002 27.2C26.4002 28.5255 27.4747 29.6 28.8002 29.6Z" fill="#41C0EB"/>
</svg>
