<svg width="40" height="40" viewBox="0 0 40 40" fill="none" xmlns="http://www.w3.org/2000/svg">
<g id="Handshake">
<g id="Handshake_2">
<path id="Vector" d="M6.35629 23.7499C6.25678 23.75 6.15868 23.7264 6.07004 23.6812L1.30629 21.2274C1.15942 21.1518 1.04844 21.0212 0.99761 20.864C0.946782 20.7069 0.96024 20.536 1.03504 20.3887L6.63129 9.33494C6.66844 9.26154 6.71972 9.1962 6.78217 9.14266C6.84463 9.08912 6.91704 9.04844 6.99526 9.02295C7.07347 8.99746 7.15595 8.98766 7.23796 8.99411C7.31997 9.00057 7.3999 9.02315 7.47317 9.06056L12.005 11.3731C12.1505 11.4471 12.2613 11.5751 12.3136 11.7298C12.3659 11.8844 12.3557 12.0534 12.285 12.2006L6.92004 23.3931C6.88378 23.4683 6.83288 23.5356 6.77032 23.591C6.70775 23.6464 6.63478 23.6887 6.55567 23.7156C6.49144 23.7375 6.42415 23.7491 6.35629 23.7499ZM2.43067 20.3999L6.07067 22.2749L10.8944 12.2124L7.46317 10.4624L2.43067 20.3999Z" fill="#41C0EB"/>
<path id="Vector_2" d="M12.8312 15.0524C12.7237 15.0524 12.618 15.0246 12.5244 14.9718L10.7081 13.9487C10.6366 13.9084 10.5737 13.8544 10.523 13.7899C10.4723 13.7253 10.4349 13.6514 10.4128 13.5723C10.3906 13.4933 10.3843 13.4107 10.3941 13.3292C10.404 13.2477 10.4297 13.1689 10.47 13.0974C10.5103 13.0259 10.5642 12.963 10.6288 12.9123C10.6933 12.8616 10.7673 12.8242 10.8463 12.802C10.9253 12.7799 11.008 12.7736 11.0895 12.7834C11.171 12.7932 11.2497 12.819 11.3212 12.8593L12.8212 13.7037C13.4069 13.3487 14.6744 12.5843 15.4856 12.1262C16.81 11.3762 17.7425 11.4793 18.8131 12.4937C18.9303 12.6083 18.9978 12.7645 19.0009 12.9285C19.004 13.0924 18.9426 13.251 18.8298 13.3701C18.7171 13.4892 18.562 13.5592 18.3981 13.565C18.2342 13.5708 18.0746 13.5119 17.9537 13.4012C17.2887 12.7712 16.9425 12.7387 16.1006 13.2137C15.0581 13.803 13.1775 14.9493 13.1581 14.9637C13.0594 15.0228 12.9463 15.0535 12.8312 15.0524Z" fill="#41C0EB"/>
<path id="Vector_3" d="M29.2731 25.9268C28.8177 25.9385 28.3684 25.8199 27.9781 25.585C27.4031 25.2012 24.8731 22.72 24.3719 22.2268C24.2614 22.1092 24.2006 21.9534 24.2024 21.792C24.2042 21.6306 24.2683 21.4762 24.3814 21.361C24.4945 21.2459 24.6477 21.1789 24.809 21.1742C24.9703 21.1694 25.1272 21.2273 25.2469 21.3356C26.3719 22.4462 28.3019 24.2993 28.67 24.545C28.9073 24.6546 29.1697 24.6983 29.4297 24.6714C29.6897 24.6446 29.9376 24.5482 30.1475 24.3925C30.2458 24.3072 30.3241 24.2015 30.3771 24.0826C30.43 23.9638 30.4562 23.8348 30.4538 23.7047C30.4514 23.5747 30.4205 23.4467 30.3633 23.3299C30.306 23.2131 30.2238 23.1103 30.1225 23.0287C29.4837 22.31 26.83 19.7568 26.2475 19.1968C24.2149 18.4518 22.2439 17.5486 20.3525 16.4956L19.695 16.9256C19.5474 17.6108 19.1535 18.2181 18.5881 18.6325C18.3897 18.7888 18.1593 18.8996 17.9132 18.9571C17.6672 19.0145 17.4116 19.0172 17.1644 18.965C16.8644 18.9276 16.5756 18.828 16.3163 18.6726C16.0571 18.5172 15.8331 18.3094 15.6587 18.0625C15.3264 17.3523 15.2891 16.5394 15.555 15.8018C16.0881 13.6681 16.9531 13.1187 18.15 12.3587L18.4131 12.1906C19.7319 11.3437 20.8637 10.8925 22.1062 11.4518C22.8787 11.8 25.6206 12.8618 26.3994 13.1631L29.0094 12.3075C29.1657 12.2599 29.3345 12.2755 29.4795 12.3509C29.6245 12.4262 29.7342 12.5554 29.7851 12.7107C29.836 12.866 29.8241 13.035 29.7519 13.1816C29.6797 13.3282 29.5529 13.4407 29.3987 13.495L26.5769 14.42C26.4402 14.4645 26.2925 14.461 26.1581 14.41C26.01 14.3525 22.5237 13.0112 21.5956 12.5925C21.0387 12.3425 20.4506 12.3681 19.0906 13.2418L18.8219 13.4137C17.73 14.1068 17.1819 14.4556 16.7694 16.105C16.5581 16.95 16.6556 17.2925 16.7325 17.4175C16.8312 17.5825 17.06 17.6493 17.4244 17.7406C17.5026 17.7538 17.5828 17.7494 17.6591 17.7278C17.7354 17.7061 17.8059 17.6678 17.8656 17.6156C18.0419 17.4828 18.1891 17.3153 18.2982 17.1234C18.4073 16.9315 18.476 16.7194 18.5 16.5C18.5082 16.4057 18.5376 16.3146 18.5861 16.2334C18.6346 16.1522 18.7009 16.0831 18.78 16.0312L19.9831 15.2443C20.0779 15.1827 20.1877 15.1479 20.3008 15.1437C20.4138 15.1395 20.5259 15.1661 20.625 15.2206C20.6675 15.2437 24.8812 17.5481 26.7269 18.0331C26.8295 18.0605 26.9236 18.1131 27.0006 18.1862C27.1356 18.3156 30.3131 21.3581 31.0594 22.2C31.2661 22.4001 31.4301 22.6402 31.5413 22.9056C31.6525 23.171 31.7087 23.4563 31.7063 23.7441C31.704 24.0318 31.6432 24.3161 31.5277 24.5797C31.4122 24.8433 31.2444 25.0807 31.0344 25.2775C30.5535 25.7137 29.9221 25.9465 29.2731 25.9268Z" fill="#41C0EB"/>
<path id="Vector_4" d="M30.592 23.2388C30.4487 23.2387 30.3099 23.1894 30.1987 23.0992C30.0875 23.009 30.0106 22.8833 29.9809 22.7432C29.9513 22.6031 29.9707 22.457 30.0358 22.3295C30.101 22.202 30.2079 22.1007 30.3388 22.0426L32.5313 21.0713C32.6067 21.0357 32.6884 21.0156 32.7717 21.012C32.855 21.0085 32.9381 21.0217 33.0162 21.0507C33.0943 21.0798 33.1658 21.1242 33.2265 21.1813C33.2872 21.2384 33.3359 21.3071 33.3696 21.3833C33.4034 21.4595 33.4216 21.5417 33.4231 21.625C33.4246 21.7083 33.4095 21.7911 33.3786 21.8685C33.3476 21.9459 33.3015 22.0163 33.243 22.0756C33.1844 22.1349 33.1146 22.1819 33.0376 22.2138L30.8445 23.1876C30.7648 23.222 30.6788 23.2395 30.592 23.2388Z" fill="#41C0EB"/>
<path id="Vector_5" d="M33.4588 23.75C33.3342 23.7499 33.2125 23.7126 33.1093 23.6429C33.0061 23.5732 32.926 23.4742 32.8794 23.3587L28.1619 11.655C28.1304 11.5769 28.1149 11.4933 28.1165 11.4091C28.1181 11.325 28.1367 11.242 28.1711 11.1652C28.2055 11.0884 28.2551 11.0193 28.3169 10.9621C28.3787 10.9049 28.4514 10.8608 28.5307 10.8325L33.5719 9.0287C33.7244 8.97415 33.8921 8.98094 34.0398 9.04762C34.1874 9.11431 34.3033 9.2357 34.3632 9.3862L38.9882 20.995C39.0184 21.0717 39.0332 21.1537 39.0316 21.2362C39.03 21.3186 39.0121 21.4 38.979 21.4755C38.9458 21.5511 38.898 21.6193 38.8383 21.6763C38.7786 21.7332 38.7083 21.7778 38.6313 21.8075L33.6825 23.7062C33.6113 23.7344 33.5354 23.7492 33.4588 23.75ZM29.5625 11.79L33.8069 22.3193L37.5907 20.8693L33.425 10.4087L29.5625 11.79ZM26.4575 27.8225C25.9423 27.8379 25.4392 27.6648 25.0425 27.3356C24.2057 26.5918 22.0544 24.4418 21.9632 24.3506C21.8493 24.2327 21.7863 24.0748 21.7877 23.911C21.7892 23.7471 21.8549 23.5903 21.9708 23.4744C22.0867 23.3586 22.2434 23.2928 22.4073 23.2914C22.5712 23.29 22.729 23.353 22.8469 23.4668C22.8688 23.4887 25.0638 25.6825 25.8725 26.4043C26.0402 26.5065 26.23 26.5666 26.4258 26.5797C26.6217 26.5927 26.8178 26.5583 26.9975 26.4793C27.291 26.3792 27.5514 26.2004 27.7502 25.9625C27.949 25.7245 28.0787 25.4366 28.125 25.13C28.139 25.0491 28.1687 24.9717 28.2126 24.9023C28.2564 24.8329 28.3135 24.7729 28.3806 24.7255C28.4476 24.6782 28.5234 24.6446 28.6034 24.6265C28.6835 24.6084 28.7663 24.6063 28.8472 24.6203C28.9281 24.6342 29.0055 24.664 29.0749 24.7078C29.1442 24.7517 29.2043 24.8087 29.2516 24.8758C29.299 24.9429 29.3326 25.0186 29.3507 25.0987C29.3688 25.1787 29.3709 25.2616 29.3569 25.3425C29.2719 25.8675 29.0464 26.3598 28.7041 26.7669C28.3619 27.1741 27.9158 27.4809 27.4132 27.655C27.1062 27.7639 26.7832 27.8205 26.4575 27.8225Z" fill="#41C0EB"/>
<path id="Vector_6" d="M23.5488 29.3375C23.0347 29.3595 22.5323 29.1801 22.1482 28.8375L19.9282 26.6175L20.8126 25.7332L23.0326 27.9532C23.17 28.0303 23.322 28.0777 23.4789 28.0924C23.6358 28.107 23.7939 28.0885 23.9432 28.0382C24.2299 27.9678 24.4924 27.8216 24.7033 27.615C24.9142 27.4084 25.0657 27.149 25.142 26.8638C25.1651 26.7842 25.2038 26.7101 25.2558 26.6456C25.3079 26.5811 25.3722 26.5276 25.4451 26.4883C25.518 26.4489 25.598 26.4244 25.6804 26.4162C25.7628 26.408 25.8461 26.4163 25.9253 26.4406C26.0045 26.4649 26.0781 26.5046 26.1418 26.5576C26.2055 26.6106 26.258 26.6757 26.2963 26.7492C26.3346 26.8226 26.358 26.903 26.3649 26.9855C26.3719 27.0681 26.3624 27.1512 26.337 27.23C26.1631 27.8357 25.7974 28.3686 25.2947 28.7487C24.792 29.1287 24.179 29.3353 23.5488 29.3375Z" fill="#41C0EB"/>
<path id="Vector_7" d="M21.1663 31.0068C20.6553 31.0177 20.1557 30.8558 19.7481 30.5475C19.1851 30.0967 18.6195 29.6492 18.0513 29.205C17.9852 29.1549 17.9298 29.0923 17.8882 29.0206C17.8466 28.949 17.8197 28.8698 17.809 28.7876C17.7982 28.7054 17.804 28.622 17.8258 28.5421C17.8477 28.4621 17.8852 28.3874 17.9362 28.3221C17.9872 28.2568 18.0506 28.2023 18.1229 28.1617C18.1951 28.1212 18.2747 28.0954 18.357 28.0859C18.4393 28.0764 18.5227 28.0834 18.6023 28.1064C18.6819 28.1294 18.7561 28.168 18.8206 28.22C18.8206 28.22 19.6013 28.8293 20.5294 29.5718C20.7271 29.6895 20.952 29.7539 21.1821 29.7586C21.4121 29.7633 21.6395 29.7082 21.8419 29.5987C22.0228 29.5209 22.176 29.3901 22.2811 29.2235C22.3862 29.0569 22.4383 28.8624 22.4306 28.6656C22.4256 28.4999 22.4866 28.339 22.6001 28.2183C22.7137 28.0976 22.8706 28.0269 23.0363 28.0218C23.2014 28.0189 23.3612 28.0807 23.4815 28.1939C23.6018 28.3072 23.673 28.463 23.68 28.6281C23.6947 29.0634 23.5813 29.4935 23.3537 29.865C23.1262 30.2364 22.7946 30.5328 22.4 30.7175C22.0164 30.9073 21.5943 31.0063 21.1663 31.0068Z" fill="#41C0EB"/>
<path id="Vector_8" d="M16.4825 30.7175C16.2794 30.7167 16.0783 30.6764 15.8906 30.5987C15.381 30.3486 14.9609 29.9475 14.6875 29.45C14.2439 29.536 13.7843 29.467 13.3856 29.2543C13.0512 29.0351 12.7637 28.7516 12.5399 28.4203C12.3161 28.0889 12.1604 27.7164 12.0819 27.3243C12.0489 27.1647 12.0797 26.9985 12.1675 26.8612C12.6756 26.0687 13.4419 24.8368 13.5562 24.58C13.6592 24.375 13.8051 24.1948 13.9842 24.0515C14.1633 23.9082 14.3712 23.8054 14.5937 23.75C14.8964 23.6706 15.213 23.66 15.5204 23.7188C15.8277 23.7776 16.118 23.9045 16.37 24.09C16.6493 24.2748 16.8735 24.5316 17.0191 24.8332C17.1648 25.1348 17.2264 25.47 17.1975 25.8037C17.4948 25.8165 17.7859 25.8929 18.0511 26.0278C18.3163 26.1627 18.5495 26.3529 18.735 26.5856C18.9151 26.8671 19.0301 27.1853 19.0715 27.5169C19.1129 27.8486 19.0798 28.1853 18.9744 28.5025C18.6465 29.4174 17.9735 30.1676 17.0994 30.5925C16.9042 30.675 16.6944 30.7175 16.4825 30.7175ZM15.74 28.7668C15.9362 29.0987 16.2869 29.575 16.615 29.4381C17.1598 29.1543 17.5792 28.6777 17.7912 28.1012C17.833 27.9736 17.8489 27.839 17.8382 27.7052C17.8275 27.5715 17.7903 27.4411 17.7287 27.3218C17.6337 27.2287 17.5208 27.1557 17.3969 27.1072C17.273 27.0586 17.1405 27.0356 17.0075 27.0393L15.74 28.7668ZM13.3706 27.2981C13.4701 27.6454 13.6856 27.948 13.9812 28.1556C14.0735 28.2029 14.1746 28.2309 14.2781 28.2376C14.3816 28.2444 14.4854 28.2299 14.5831 28.195L15.9175 25.9075C15.9705 25.7661 15.9739 25.6109 15.9271 25.4673C15.8804 25.3238 15.7862 25.2004 15.66 25.1175C15.564 25.0418 15.4533 24.9871 15.3348 24.9568C15.2164 24.9266 15.093 24.9215 14.9725 24.9418C14.8661 24.9594 14.769 25.013 14.6975 25.0937C14.5325 25.4593 13.7387 26.7193 13.3706 27.2981Z" fill="#41C0EB"/>
<path id="Vector_9" d="M11.7056 28.2743C11.5575 28.2747 11.4102 28.2537 11.2681 28.2118C10.1975 27.8899 9.77811 26.5037 9.73374 26.3468C9.71132 26.2672 9.70492 26.184 9.71489 26.1019C9.72487 26.0198 9.75103 25.9406 9.79186 25.8687C10.3231 24.9459 10.9107 24.0567 11.5512 23.2062C11.8728 22.7878 12.3388 22.5043 12.8581 22.4111C13.3775 22.3178 13.913 22.4215 14.36 22.7018C14.95 23.1112 15.3825 24.0018 14.6587 25.1656C14.6154 25.2353 14.5588 25.2959 14.4921 25.3438C14.4254 25.3916 14.35 25.4259 14.27 25.4446C14.1901 25.4634 14.1072 25.4661 14.0262 25.4528C13.9452 25.4395 13.8676 25.4104 13.7978 25.3671C13.728 25.3238 13.6675 25.2672 13.6196 25.2005C13.5717 25.1338 13.5374 25.0583 13.5187 24.9784C13.5 24.8984 13.4972 24.8156 13.5105 24.7346C13.5238 24.6536 13.5529 24.5759 13.5962 24.5062C13.7569 24.2468 13.8962 23.9024 13.6469 23.7293C13.4646 23.6298 13.2526 23.5991 13.0496 23.6429C12.8466 23.6868 12.6662 23.8022 12.5412 23.9681C11.9922 24.6976 11.4841 25.4571 11.0194 26.2431C11.1562 26.5699 11.3894 26.9443 11.6275 27.0149C11.8381 27.0774 12.1275 26.8612 12.2844 26.7274C12.4098 26.619 12.5733 26.5649 12.7386 26.577C12.904 26.589 13.0578 26.6663 13.1662 26.7918C13.2746 26.9173 13.3288 27.0807 13.3167 27.2461C13.3046 27.4115 13.2273 27.5653 13.1019 27.6737C12.7261 28.0387 12.229 28.2525 11.7056 28.2743Z" fill="#41C0EB"/>
<path id="Vector_10" d="M10.3338 26.8001C10.2651 26.8 10.1969 26.7886 10.1319 26.7663C10.0263 26.7307 7.53503 25.8601 7.53503 23.9088C7.53497 23.8433 7.54509 23.7781 7.56503 23.7157C7.79118 23.0933 8.10089 22.5046 8.48566 21.9657C8.77199 21.6235 9.16748 21.3905 9.60552 21.3058C10.0436 21.2211 10.4974 21.2899 10.8907 21.5007C11.2608 21.6647 11.5561 21.9616 11.718 22.3327C11.88 22.7038 11.897 23.1221 11.7657 23.5051C11.3569 24.8213 10.9375 26.3257 10.9332 26.3413C10.8965 26.4727 10.8178 26.5885 10.7091 26.671C10.6004 26.7535 10.4677 26.7982 10.3313 26.7982L10.3338 26.8001ZM8.79003 24.0057C8.85253 24.5907 9.45128 25.0357 9.93128 25.3026C10.0944 24.7326 10.3363 23.9032 10.5738 23.1363C10.5956 23.0876 10.6067 23.0348 10.6065 22.9814C10.6062 22.9281 10.5946 22.8754 10.5724 22.8268C10.5501 22.7783 10.5178 22.7351 10.4775 22.7001C10.4372 22.6651 10.3899 22.6391 10.3388 22.6238C10.2097 22.551 10.0618 22.518 9.914 22.5292C9.76616 22.5403 9.62493 22.595 9.50816 22.6863C9.21839 23.0967 8.97739 23.5395 8.79003 24.0057Z" fill="#41C0EB"/>
<path id="Vector_11" d="M8.67314 23.4556C8.54731 23.4555 8.42445 23.4173 8.32064 23.3462L6.68127 22.2212C6.54443 22.1276 6.45041 21.9834 6.41987 21.8204C6.38934 21.6574 6.4248 21.489 6.51846 21.3522C6.61211 21.2153 6.75629 21.1213 6.91927 21.0908C7.08225 21.0602 7.25068 21.0957 7.38752 21.1894L9.02689 22.3144C9.13732 22.3897 9.22067 22.4985 9.26471 22.6247C9.30876 22.7509 9.31116 22.888 9.27158 23.0156C9.232 23.1433 9.15252 23.255 9.04481 23.3342C8.93709 23.4134 8.80683 23.4559 8.67314 23.4556Z" fill="#41C0EB"/>
</g>
</g>
</svg>
