<svg width="40" height="40" viewBox="0 0 40 40" fill="none" xmlns="http://www.w3.org/2000/svg">
<g id="Quality Badge" clip-path="url(#clip0_3438_77973)">
<path id="Vector" d="M39.2243 20.0001C39.2243 9.38285 30.6173 0.775879 20.0001 0.775879C9.38285 0.775879 0.775879 9.38285 0.775879 20.0001C0.775879 30.6173 9.38285 39.2243 20.0001 39.2243C30.6173 39.2243 39.2243 30.6173 39.2243 20.0001Z" stroke="#41C0EB" stroke-width="2" stroke-miterlimit="10"/>
<path id="Vector_2" d="M31.3731 18.4562C31.3734 18.0132 31.2472 17.5793 31.0095 17.2055C30.7718 16.8318 30.4323 16.5336 30.0309 16.346C29.4348 16.0285 28.9784 15.5002 28.7509 14.8643L28.7043 14.7401C28.4402 14.1094 28.41 13.4052 28.619 12.7541C28.7461 12.3485 28.7598 11.9157 28.6584 11.5029C28.557 11.09 28.3445 10.7128 28.0439 10.4122C27.7433 10.1116 27.3661 9.89911 26.9532 9.79772C26.5404 9.69634 26.1077 9.70996 25.702 9.83712C25.051 10.0461 24.3467 10.0159 23.716 9.75178L23.5918 9.69748C22.9549 9.47583 22.4255 9.02126 22.1101 8.42517C21.923 8.02319 21.6251 7.68299 21.2512 7.44461C20.8774 7.20623 20.4433 7.07959 19.9999 7.07959C19.5565 7.07959 19.1224 7.20623 18.7486 7.44461C18.3747 7.68299 18.0768 8.02319 17.8897 8.42517C17.575 9.01882 17.049 9.47281 16.4157 9.69748L16.2838 9.75178C15.6531 10.0159 14.9489 10.0461 14.2978 9.83712C13.8922 9.70996 13.4594 9.69634 13.0466 9.79772C12.6337 9.89911 12.2565 10.1116 11.9559 10.4122C11.6553 10.7128 11.4428 11.09 11.3414 11.5029C11.24 11.9157 11.2537 12.3485 11.3808 12.7541C11.5923 13.4042 11.5648 14.1085 11.3032 14.7401C11.2819 14.78 11.2637 14.8215 11.2489 14.8643C11.0214 15.5002 10.565 16.0285 9.96887 16.346C9.56689 16.5331 9.22669 16.831 8.98831 17.2049C8.74993 17.5787 8.62329 18.0128 8.62329 18.4562C8.62329 18.8996 8.74993 19.3337 8.98831 19.7075C9.22669 20.0814 9.56689 20.3793 9.96887 20.5664C10.5645 20.8808 11.0211 21.4066 11.2489 22.0404C11.2637 22.0856 11.2818 22.1297 11.3032 22.1723C11.5478 22.7983 11.5642 23.4903 11.3498 24.1273C11.2226 24.5329 11.209 24.9656 11.3104 25.3785C11.4118 25.7913 11.6243 26.1685 11.9249 26.4691C12.2255 26.7697 12.6027 26.9823 13.0155 27.0837C13.4284 27.185 13.8611 27.1714 14.2668 27.0443C14.9163 26.8286 15.6221 26.8562 16.2528 27.1218L16.3847 27.1761C17.0189 27.4034 17.5448 27.8601 17.8587 28.4562C18.0457 28.8582 18.3437 29.1984 18.7175 29.4368C19.0914 29.6751 19.5255 29.8018 19.9689 29.8018C20.4122 29.8018 20.8464 29.6751 21.2202 29.4368C21.594 29.1984 21.892 28.8582 22.079 28.4562C22.3942 27.8582 22.9233 27.401 23.5608 27.1761L23.6849 27.1218C24.3157 26.8562 25.0214 26.8286 25.671 27.0443C26.0766 27.1714 26.5094 27.185 26.9222 27.0837C27.335 26.9823 27.7122 26.7697 28.0128 26.4691C28.3134 26.1685 28.526 25.7913 28.6274 25.3785C28.7287 24.9656 28.7151 24.5329 28.588 24.1273C28.3789 23.4762 28.4092 22.7719 28.6733 22.1412L28.7198 22.0093C28.9477 21.3755 29.4043 20.8498 29.9999 20.5353C30.4023 20.3545 30.745 20.0631 30.9881 19.695C31.2313 19.3269 31.3648 18.8973 31.3731 18.4562Z" stroke="#41C0EB" stroke-width="2" stroke-miterlimit="10"/>
<path id="Vector_3" d="M15.9194 18.4949L18.6192 21.1869L24.0808 15.7253" stroke="#41C0EB" stroke-width="2" stroke-linecap="round" stroke-linejoin="round"/>
<path id="Vector_4" d="M12.5679 26.9355L10.3337 31.1093C10.3043 31.1654 10.2915 31.2287 10.2968 31.2917C10.3021 31.3548 10.3252 31.415 10.3634 31.4655C10.4016 31.5159 10.4534 31.5544 10.5127 31.5765C10.572 31.5986 10.6364 31.6034 10.6983 31.5903L13.848 30.9387C13.9162 30.9239 13.9874 30.931 14.0514 30.9588C14.1154 30.9866 14.1691 31.0339 14.2049 31.0938L15.1979 32.7385C15.2269 32.7902 15.2691 32.8332 15.3202 32.8631C15.3714 32.8931 15.4296 32.9088 15.4888 32.9088C15.5481 32.9088 15.6062 32.8931 15.6574 32.8631C15.7085 32.8332 15.7507 32.7902 15.7797 32.7385L17.8977 28.5259M27.1606 27.0519L29.3329 31.1171C29.3622 31.1732 29.375 31.2364 29.3697 31.2995C29.3644 31.3625 29.3414 31.4228 29.3031 31.4732C29.2649 31.5237 29.2131 31.5622 29.1538 31.5843C29.0945 31.6064 29.0302 31.6112 28.9683 31.5981L25.8185 30.9464C25.7503 30.9317 25.6791 30.9387 25.6151 30.9666C25.5511 30.9944 25.4974 31.0416 25.4617 31.1016L24.4686 32.7463C24.4396 32.7979 24.3974 32.8409 24.3463 32.8709C24.2952 32.9008 24.237 32.9166 24.1777 32.9166C24.1185 32.9166 24.0603 32.9008 24.0092 32.8709C23.958 32.8409 23.9158 32.7979 23.8868 32.7463L21.924 28.8673" stroke="#41C0EB" stroke-width="2" stroke-miterlimit="10"/>
</g>
<defs>
<clipPath id="clip0_3438_77973">
<rect width="40" height="40" fill="white"/>
</clipPath>
</defs>
</svg>
