<svg width="40" height="40" viewBox="0 0 40 40" fill="none" xmlns="http://www.w3.org/2000/svg">
<path d="M10.4088 4.84624C8.00734 5.05987 6.48985 5.42819 5.03129 6.16483C2.14364 7.6234 0.464087 10.4006 0.464087 13.7081C0.464087 17.3471 2.19521 19.8075 5.62061 21.0451C5.92264 21.1482 8.03681 21.7007 10.313 22.2679C12.5893 22.8278 14.7624 23.395 15.1381 23.5202C16.5745 23.999 17.3996 24.5736 17.7679 25.3545C17.9373 25.7154 17.9594 25.848 17.9521 26.5699C17.9521 27.2329 17.9226 27.4613 17.7826 27.8075C17.3333 28.9567 16.2578 29.6933 14.4825 30.069C13.4659 30.29 11.256 30.3489 10.2099 30.1869C7.53589 29.7817 5.93 28.3084 5.72374 26.0837L5.67218 25.5755H2.83609H0L0.0441988 26.2679C0.198894 28.5589 1.10497 30.5699 2.66666 32.08C4.6335 33.9732 7.32963 34.953 11.1234 35.1445C14.4677 35.3139 17.6279 34.6215 19.7495 33.2439C20.4198 32.802 20.4272 32.8093 20.4272 33.6786V34.4152H23.1896H25.952V31.0193V27.6233L27.0644 26.4521C27.6832 25.8112 28.2356 25.2808 28.3019 25.2808C28.383 25.2808 29.2301 26.7467 30.9465 29.848L33.4732 34.4152H36.7513C38.5561 34.4152 40.0146 34.3931 39.9999 34.3563C39.9852 34.3268 38.2835 31.4392 36.2209 27.9327C33.8489 23.8959 32.4714 21.4871 32.4714 21.3618C32.4714 21.2072 33.1491 20.4189 35.8968 17.3913C37.7826 15.3213 39.4327 13.4945 39.5653 13.3398L39.8157 13.0525H36.4714L33.1343 13.0598L29.6721 17.0377C27.7716 19.2329 26.1509 21.0525 26.0846 21.0893C25.9594 21.1556 25.952 20.7652 25.952 13.384V5.61235H23.1896H20.4272V6.79099C20.4272 8.19061 20.4272 8.19061 19.7053 7.5129C18.2983 6.20167 16.2946 5.33243 13.8489 4.9862C13.0902 4.8757 11.0202 4.79467 10.4088 4.84624ZM13.4659 9.9512C14.7624 10.2974 15.7421 10.9457 16.3167 11.8296C16.6114 12.279 16.906 13.1261 16.9944 13.7302L17.046 14.0838H18.7403H20.4272V16.8094C20.4272 19.0635 20.4125 19.535 20.3241 19.535C20.2725 19.535 19.9115 19.3876 19.5285 19.2035C18.3351 18.6363 16.9797 18.2458 12.5967 17.1777C10.2615 16.6105 8.22834 16.0948 8.06628 16.0433C7.14547 15.7191 6.54142 15.2256 6.21729 14.5331C6.0405 14.1574 6.02577 14.0396 6.02577 13.2366C6.02577 12.4337 6.0405 12.3158 6.22466 11.9328C6.58562 11.1593 7.37383 10.4889 8.3462 10.1354C9.23754 9.8186 9.87106 9.73757 11.4033 9.76704C12.6187 9.78913 12.9797 9.8186 13.4659 9.9512Z" fill="#41C0EB"/>
</svg>
