<svg width="40" height="40" viewBox="0 0 40 40" fill="none" xmlns="http://www.w3.org/2000/svg">
<path d="M22.8125 7.8125C23.0625 7.84375 23.1563 7.9375 23.2188 8.03125C23.375 8.25 23.6563 8.84375 23.6875 10.375C23.6875 13.25 22.1563 16.25 22.125 16.2812L21 18.4375L23.4063 18.0938C23.4375 18.0938 25.2812 17.8437 27.375 17.8437C28.4687 17.8437 29.4062 17.9062 30.1875 18.0625C31.4062 18.2812 31.8125 19.9375 31.4062 23.1562C31.4062 23.2812 31.375 23.375 31.375 23.4375C31.1875 24.9375 31.0938 25.875 31.0313 26.25C31 26.3438 31 26.4063 30.9687 26.5313C30.9687 26.625 30.9375 26.75 30.9063 26.9688C30.8438 27.4063 30.75 28.1875 30.5938 29.5312C30.3125 32 29.5313 32.4375 24.9375 32.5625C24.25 32.5937 23.5625 32.5938 22.9375 32.5938C20.9063 32.5938 19.0625 32.5 17.5937 32.3125C17.0625 32.25 15.5 31.625 14.375 31L14.125 30.9375H10V21.875H14.4062L14.7812 21.3438L18.375 16.7188C18.6875 16.375 20.75 14.0937 21.7188 12.125C22.0938 11.375 22.25 10.4375 22.4062 9.5625C22.5 9.03125 22.6562 8.1875 22.8125 7.8125ZM22.625 6.5625C21.0938 6.5625 21.375 9.90625 20.5938 11.5625C19.6875 13.5313 17.4688 15.9375 17.4688 15.9375L13.8125 20.625H8.75V32.1875H13.8125C13.8125 32.1875 16.3438 33.5 17.4688 33.625C18.75 33.7812 20.5625 33.875 22.9688 33.875C23.5938 33.875 24.2813 33.8438 25 33.8438C29.5 33.7188 31.4375 33.2812 31.8438 29.6875C32.1563 27 32.2187 26.5937 32.2187 26.5937V26.6563C32.2187 26.6563 32.2813 26.2813 32.5938 23.5625C32.7188 22.4375 33.5938 17.375 30.4063 16.8125C29.4688 16.6562 28.375 16.5937 27.375 16.5937C25.1875 16.5937 23.25 16.875 23.25 16.875C23.25 16.875 24.9688 13.625 24.9375 10.4062C24.9375 7.125 23.7813 6.5625 22.625 6.5625Z" fill="#41C0EB"/>
<path d="M14.375 29.5938C14.1875 29.5938 14.0625 29.4688 14.0625 29.2812V23.3438C14.0625 23.1562 14.1875 23.0312 14.375 23.0312C14.5625 23.0312 14.6875 23.1562 14.6875 23.3438V29.2812C14.6875 29.4375 14.5625 29.5938 14.375 29.5938Z" fill="#41C0EB"/>
</svg>
