<svg width="40" height="40" viewBox="0 0 40 40" fill="none" xmlns="http://www.w3.org/2000/svg">
<g id="car" clip-path="url(#clip0_3438_77958)">
<path id="Vector" d="M36.6667 14.7333L36.4333 14.1667C36.7616 14.1667 37.0867 14.102 37.39 13.9764C37.6934 13.8507 37.969 13.6666 38.2011 13.4344C38.4332 13.2023 38.6174 12.9267 38.743 12.6234C38.8687 12.3201 38.9333 11.995 38.9333 11.6667C38.9333 11.3384 38.8687 11.0133 38.743 10.71C38.6174 10.4066 38.4332 10.131 38.2011 9.8989C37.969 9.66675 37.6934 9.4826 37.39 9.35697C37.0867 9.23133 36.7616 9.16667 36.4333 9.16667H34.3833L32.5167 4.51667C32.145 3.90285 31.6218 3.39495 30.9971 3.04178C30.3725 2.68861 29.6675 2.50204 28.95 2.5H11.05C10.3089 2.50743 9.58276 2.71008 8.94488 3.08754C8.30701 3.465 7.7799 4.00392 7.41667 4.65L5.6 9.16667H3.53333C3.20503 9.16667 2.87994 9.23133 2.57662 9.35697C2.27331 9.4826 1.99771 9.66675 1.76557 9.8989C1.53342 10.131 1.34927 10.4066 1.22363 10.71C1.098 11.0133 1.03333 11.3384 1.03333 11.6667C1.03333 11.995 1.098 12.3201 1.22363 12.6234C1.34927 12.9267 1.53342 13.2023 1.76557 13.4344C1.99771 13.6666 2.27331 13.8507 2.57662 13.9764C2.87994 14.102 3.20503 14.1667 3.53333 14.1667L3.33333 14.7333C2.33655 15.2061 1.49429 15.9519 0.904281 16.8841C0.314274 17.8164 0.000718138 18.8968 8.68569e-08 20V28.3333C-0.000195959 29.2939 0.331486 30.225 0.938912 30.9691C1.54634 31.7132 2.3922 32.2246 3.33333 32.4167V35C3.33333 35.663 3.59673 36.2989 4.06557 36.7678C4.53441 37.2366 5.17029 37.5 5.83333 37.5H7.5C8.16304 37.5 8.79893 37.2366 9.26777 36.7678C9.73661 36.2989 10 35.663 10 35V32.5H30V35C30 35.663 30.2634 36.2989 30.7322 36.7678C31.2011 37.2366 31.837 37.5 32.5 37.5H34.1667C34.8297 37.5 35.4656 37.2366 35.9344 36.7678C36.4033 36.2989 36.6667 35.663 36.6667 35V32.4167C37.6078 32.2246 38.4537 31.7132 39.0611 30.9691C39.6685 30.225 40.0002 29.2939 40 28.3333V20C39.9993 18.8968 39.6857 17.8164 39.0957 16.8841C38.5057 15.9519 37.6634 15.2061 36.6667 14.7333ZM36.4667 10.8333C36.6228 10.833 36.776 10.8766 36.9086 10.9591C37.0412 11.0416 37.1479 11.1597 37.2167 11.3C37.279 11.4272 37.3079 11.5681 37.3006 11.7096C37.2933 11.851 37.2501 11.9882 37.175 12.1083C37.0999 12.2284 36.9955 12.3274 36.8716 12.3959C36.7476 12.4645 36.6083 12.5003 36.4667 12.5H35.7167L35.05 10.8333H36.4667ZM5.6 13.6667L6.93333 10.3333L8.9 5.33333C9.12958 4.97208 9.44751 4.67536 9.82372 4.47121C10.1999 4.26707 10.622 4.16225 11.05 4.16667H28.95C29.3609 4.16468 29.766 4.26401 30.1294 4.45588C30.4927 4.64774 30.8032 4.92622 31.0333 5.26667L34.6 14.1667H5.4L5.6 13.6667ZM3.53333 12.5C3.31232 12.5 3.10036 12.4122 2.94408 12.2559C2.7878 12.0996 2.7 11.8877 2.7 11.6667C2.7 11.4457 2.7878 11.2337 2.94408 11.0774C3.10036 10.9211 3.31232 10.8333 3.53333 10.8333H5L4.33333 12.5H3.53333ZM8.33333 35C8.33333 35.221 8.24554 35.433 8.08926 35.5893C7.93297 35.7455 7.72101 35.8333 7.5 35.8333H5.83333C5.61232 35.8333 5.40036 35.7455 5.24408 35.5893C5.0878 35.433 5 35.221 5 35V32.5H8.33333V35ZM12.6833 30.8333L13.65 25.8333H26.3833L27.35 30.8333H12.6833ZM35 35C35 35.221 34.9122 35.433 34.7559 35.5893C34.5996 35.7455 34.3877 35.8333 34.1667 35.8333H32.5C32.279 35.8333 32.067 35.7455 31.9107 35.5893C31.7545 35.433 31.6667 35.221 31.6667 35V32.5H35V35ZM38.3333 28.3333C38.3333 28.9964 38.0699 29.6323 37.6011 30.1011C37.1323 30.5699 36.4964 30.8333 35.8333 30.8333H29.0167L27.8667 24.85C27.8317 24.6587 27.7309 24.4857 27.5817 24.3609C27.4326 24.2361 27.2445 24.1674 27.05 24.1667H12.95C12.7555 24.1674 12.5674 24.2361 12.4183 24.3609C12.2691 24.4857 12.1683 24.6587 12.1333 24.85L10.9833 30.8333H4.16667C3.50363 30.8333 2.86774 30.5699 2.3989 30.1011C1.93006 29.6323 1.66667 28.9964 1.66667 28.3333V20C1.66667 18.8949 2.10565 17.8351 2.88705 17.0537C3.66846 16.2723 4.72826 15.8333 5.83333 15.8333H34.1667C35.2717 15.8333 36.3315 16.2723 37.1129 17.0537C37.8943 17.8351 38.3333 18.8949 38.3333 20V28.3333ZM10.8333 17.5H5.83333C5.17029 17.5 4.53441 17.7634 4.06557 18.2322C3.59673 18.7011 3.33333 19.337 3.33333 20V21.6667C3.33333 21.8877 3.42113 22.0996 3.57741 22.2559C3.73369 22.4122 3.94565 22.5 4.16667 22.5H10.8333C11.0543 22.5 11.2663 22.4122 11.4226 22.2559C11.5789 22.0996 11.6667 21.8877 11.6667 21.6667V18.3333C11.6667 18.1123 11.5789 17.9004 11.4226 17.7441C11.2663 17.5878 11.0543 17.5 10.8333 17.5ZM10 20.8333H5V20C5 19.779 5.0878 19.567 5.24408 19.4107C5.40036 19.2545 5.61232 19.1667 5.83333 19.1667H10V20.8333ZM5.83333 24.1667C5.33888 24.1667 4.85553 24.3133 4.44441 24.588C4.03328 24.8627 3.71285 25.2531 3.52363 25.71C3.33442 26.1668 3.28491 26.6694 3.38137 27.1544C3.47783 27.6393 3.71593 28.0848 4.06557 28.4344C4.4152 28.7841 4.86065 29.0222 5.34561 29.1186C5.83056 29.2151 6.33323 29.1656 6.79004 28.9764C7.24686 28.7871 7.6373 28.4667 7.91201 28.0556C8.18671 27.6445 8.33333 27.1611 8.33333 26.6667C8.33333 26.0036 8.06994 25.3677 7.6011 24.8989C7.13226 24.4301 6.49637 24.1667 5.83333 24.1667ZM5.83333 27.5C5.66852 27.5 5.5074 27.4511 5.37036 27.3596C5.23332 27.268 5.12651 27.1378 5.06343 26.9856C5.00036 26.8333 4.98386 26.6657 5.01601 26.5041C5.04817 26.3424 5.12753 26.194 5.24408 26.0774C5.36062 25.9609 5.50911 25.8815 5.67076 25.8493C5.83241 25.8172 5.99996 25.8337 6.15224 25.8968C6.30451 25.9598 6.43466 26.0667 6.52622 26.2037C6.61779 26.3407 6.66667 26.5018 6.66667 26.6667C6.66667 26.8877 6.57887 27.0996 6.42259 27.2559C6.26631 27.4122 6.05435 27.5 5.83333 27.5ZM24.1667 19.1667H17.5C17.279 19.1667 17.067 19.2545 16.9107 19.4107C16.7545 19.567 16.6667 19.779 16.6667 20C16.6667 20.221 16.7545 20.433 16.9107 20.5893C17.067 20.7455 17.279 20.8333 17.5 20.8333H24.1667C24.3877 20.8333 24.5996 20.7455 24.7559 20.5893C24.9122 20.433 25 20.221 25 20C25 19.779 24.9122 19.567 24.7559 19.4107C24.5996 19.2545 24.3877 19.1667 24.1667 19.1667ZM34.1667 17.5H29.1667C28.9457 17.5 28.7337 17.5878 28.5774 17.7441C28.4211 17.9004 28.3333 18.1123 28.3333 18.3333V21.6667C28.3333 21.8877 28.4211 22.0996 28.5774 22.2559C28.7337 22.4122 28.9457 22.5 29.1667 22.5H35.8333C36.0543 22.5 36.2663 22.4122 36.4226 22.2559C36.5789 22.0996 36.6667 21.8877 36.6667 21.6667V20C36.6667 19.337 36.4033 18.7011 35.9344 18.2322C35.4656 17.7634 34.8297 17.5 34.1667 17.5ZM35 20.8333H30V19.1667H34.1667C34.3877 19.1667 34.5996 19.2545 34.7559 19.4107C34.9122 19.567 35 19.779 35 20V20.8333ZM34.1667 24.1667C33.6722 24.1667 33.1889 24.3133 32.7777 24.588C32.3666 24.8627 32.0462 25.2531 31.857 25.71C31.6677 26.1668 31.6182 26.6694 31.7147 27.1544C31.8112 27.6393 32.0493 28.0848 32.3989 28.4344C32.7485 28.7841 33.194 29.0222 33.6789 29.1186C34.1639 29.2151 34.6666 29.1656 35.1234 28.9764C35.5802 28.7871 35.9706 28.4667 36.2453 28.0556C36.52 27.6445 36.6667 27.1611 36.6667 26.6667C36.6667 26.0036 36.4033 25.3677 35.9344 24.8989C35.4656 24.4301 34.8297 24.1667 34.1667 24.1667ZM34.1667 27.5C34.0018 27.5 33.8407 27.4511 33.7037 27.3596C33.5667 27.268 33.4598 27.1378 33.3968 26.9856C33.3337 26.8333 33.3172 26.6657 33.3493 26.5041C33.3815 26.3424 33.4609 26.194 33.5774 26.0774C33.694 25.9609 33.8424 25.8815 34.0041 25.8493C34.1657 25.8172 34.3333 25.8337 34.4856 25.8968C34.6378 25.9598 34.768 26.0667 34.8596 26.2037C34.9511 26.3407 35 26.5018 35 26.6667C35 26.8877 34.9122 27.0996 34.7559 27.2559C34.5996 27.4122 34.3877 27.5 34.1667 27.5Z" fill="#41C0EB"/>
</g>
<defs>
<clipPath id="clip0_3438_77958">
<rect width="40" height="40" fill="white"/>
</clipPath>
</defs>
</svg>
