<svg width="40" height="40" viewBox="0 0 40 40" fill="none" xmlns="http://www.w3.org/2000/svg">
<g clip-path="url(#clip0_3280_58374)">
<path d="M31.5563 27.6375V14.575C31.5599 12.6499 31.0807 10.7546 30.1625 9.06249C29.897 6.58352 28.73 4.28847 26.8834 2.61346C25.0367 0.938463 22.639 0.000248692 20.146 -0.0228922C17.6529 -0.0460331 15.2383 0.847512 13.3608 2.48795C11.4834 4.12838 10.274 6.40137 9.96251 8.87499C8.96658 10.6095 8.44292 12.5749 8.44376 14.575V27.6375C7.25187 28.2963 6.27005 29.278 5.61112 30.4699C4.95218 31.6617 4.64289 33.0153 4.71876 34.375V36.1875C4.71876 37.2687 4.71876 38.3437 4.71876 39.425C4.71876 39.5908 4.78461 39.7497 4.90182 39.8669C5.01903 39.9841 5.178 40.05 5.34376 40.05H34.6438C34.8095 40.05 34.9685 39.9841 35.0857 39.8669C35.2029 39.7497 35.2688 39.5908 35.2688 39.425C35.2688 38.3437 35.2688 37.2687 35.2688 36.1875V34.375C35.3458 33.0165 35.0384 31.6639 34.3818 30.4722C33.7251 29.2805 32.7458 28.298 31.5563 27.6375ZM29.375 15.275L30 12.3C30 12.2375 30 12.1687 30.0313 12.1062C30.231 12.9141 30.3339 13.7428 30.3375 14.575V27.0125C28.8594 26.4335 27.3236 26.0144 25.7563 25.7625L24.7375 25.55V24.1562C25.5707 23.2148 26.2233 22.1279 26.6625 20.95C26.9106 20.8066 27.1467 20.6436 27.3688 20.4625C27.599 20.6756 27.8989 20.7978 28.2125 20.8062C29.2563 20.8062 30.0375 19.4687 30.0375 17.6812C30.0717 16.8299 29.8402 15.9889 29.375 15.275ZM20.5 18.6687C20.3662 18.62 20.2231 18.6021 20.0814 18.6161C19.9397 18.6302 19.8029 18.6759 19.6813 18.75C19.5338 18.8401 19.4084 18.9621 19.3143 19.107C19.2202 19.252 19.1598 19.4161 19.1375 19.5875L18.975 20.625C18.9496 20.7891 18.9588 20.9566 19.0018 21.117C19.0449 21.2773 19.1209 21.4269 19.225 21.5562C19.3123 21.6616 19.421 21.7472 19.5438 21.8076C19.6666 21.8679 19.8008 21.9015 19.9375 21.9062L21.7688 21.9437C21.9438 21.94 22.115 21.8916 22.2659 21.8029C22.4169 21.7143 22.5427 21.5885 22.6313 21.4375C23.0863 21.5283 23.5486 21.5785 24.0125 21.5875C24.1916 21.5968 24.371 21.5968 24.55 21.5875C24.7313 21.5875 24.9 21.5437 25.0688 21.5187C24.7121 22.2495 24.2464 22.9218 23.6875 23.5125C23.2147 24.0243 22.641 24.4328 22.0026 24.7121C21.3642 24.9915 20.675 25.1357 19.9781 25.1357C19.2813 25.1357 18.592 24.9915 17.9537 24.7121C17.3153 24.4328 16.7416 24.0243 16.2688 23.5125C14.9438 22.125 14.1 20 13.75 17.7375C13.7459 17.3158 13.6913 16.8962 13.5875 16.4875C13.5375 15.925 13.5063 15.3562 13.5063 14.7937V14.375L16.7375 11.4875C18.0688 12.6562 22.3625 16.0125 26.5313 15.4875C26.4783 17.0412 26.2047 18.5795 25.7188 20.0562C25.3213 20.2249 24.8992 20.3283 24.4688 20.3625C23.944 20.404 23.4161 20.3724 22.9 20.2687C22.8998 20.0635 22.8408 19.8627 22.73 19.6899C22.6193 19.5171 22.4614 19.3797 22.275 19.2937L20.5 18.6687ZM21.6938 20.4L21.6438 20.7562L20.1938 20.7187L20.3188 19.8937L21.6938 20.4ZM17.7313 32.7437L16.25 31.4437C16.1654 31.3709 16.0628 31.322 15.9529 31.3022C15.843 31.2824 15.7297 31.2924 15.625 31.3312L11.875 32.6687C12.6653 30.5358 13.9505 28.6208 15.625 27.0812L17.7313 32.7437ZM16.4813 25.8687V25.225C17.5157 25.9568 18.7516 26.3498 20.0188 26.3498C21.2859 26.3498 22.5218 25.9568 23.5563 25.225V25.9062L20 35.3562L16.4813 25.8687ZM24.375 27.0812C26.0506 28.6199 27.336 30.5351 28.125 32.6687L24.375 31.3312C24.2703 31.2924 24.1571 31.2824 24.0472 31.3022C23.9372 31.322 23.8346 31.3709 23.75 31.4437L22.2938 32.6937L24.375 27.0812ZM27.5938 17.7062C27.5938 16.425 28.0875 15.8312 28.2188 15.8312C28.35 15.8312 28.8438 16.4562 28.8438 17.7062C28.8438 18.9562 28.3563 19.5812 28.2188 19.5812C28.0813 19.5812 28.0938 19.5062 27.9938 19.3562C27.9734 19.2959 27.9439 19.239 27.9063 19.1875C27.6929 18.7214 27.5903 18.2123 27.6063 17.7L27.5938 17.7062ZM20.0563 1.21249C21.7717 1.21121 23.4511 1.70538 24.8924 2.63561C26.3338 3.56584 27.4758 4.89254 28.1813 6.45624L28.1438 6.41874C26.0091 4.28096 23.121 3.06575 20.1001 3.0342C17.0792 3.00265 14.1664 4.15726 11.9875 6.24999C12.7248 4.7382 13.8723 3.46419 15.299 2.57344C16.7258 1.68268 18.3743 1.21109 20.0563 1.21249ZM11.1375 9.26874C11.9454 7.92021 13.0501 6.77368 14.3678 5.91636C15.6854 5.05904 17.1812 4.51352 18.7414 4.32128C20.3016 4.12904 21.885 4.29516 23.3714 4.80699C24.8577 5.31883 26.2077 6.16289 27.3188 7.27499C27.9692 7.92336 28.5285 8.65717 28.9813 9.45624C29.058 10.322 29.0032 11.1944 28.8188 12.0437L28.275 14.6062H28.2188C28.0429 14.6107 27.8702 14.6534 27.7125 14.7312C27.6988 14.5662 27.6201 14.4133 27.4938 14.3062C27.4209 14.2506 27.3366 14.2116 27.2469 14.1922C27.1573 14.1727 27.0644 14.1733 26.975 14.1937C22.4438 15.3062 17.175 10.3125 17.125 10.2625C17.011 10.1623 16.8643 10.107 16.7125 10.107C16.5607 10.107 16.4141 10.1623 16.3 10.2625L12.5 13.6562C12.389 13.7572 12.318 13.8948 12.3 14.0437C12.2876 14.279 12.2876 14.5147 12.3 14.75C12.1811 14.71 12.0567 14.6889 11.9313 14.6875H11.875L11.3125 12.0375C11.1122 11.1291 11.0532 10.1952 11.1375 9.26874ZM12.5 17.875C12.5 19.125 12.0063 19.6875 11.875 19.6875C11.7438 19.6875 11.25 19.0625 11.25 17.8125C11.25 16.5625 11.7438 15.9375 11.875 15.9375C12.0063 15.9375 12.1813 16.1875 12.3375 16.6937C12.3875 17.0812 12.4417 17.475 12.5 17.875ZM9.65001 14.575C9.65328 13.6581 9.77941 12.7458 10.025 11.8625C10.025 12.0062 10.0688 12.15 10.0938 12.3L10.7188 15.3562C10.2434 16.078 10.0053 16.9301 10.0375 17.7937C10.0375 19.5937 10.8063 20.9187 11.8625 20.9187C12.0972 20.9084 12.326 20.8416 12.5294 20.7241C12.7329 20.6066 12.905 20.4419 13.0313 20.2437C13.4711 21.696 14.2146 23.0381 15.2125 24.1812V25.5437L14.2063 25.7562C12.6389 26.0082 11.1031 26.4273 9.62501 27.0062L9.65001 14.575ZM34.025 36.1437V38.7875H5.96251V36.1437V34.3375C5.96251 31.5875 7.04376 29.7687 9.51876 28.4375C10.9412 27.7524 12.4545 27.2746 14.0125 27.0187C12.2697 28.8262 11.0306 31.0586 10.4188 33.4937C10.3965 33.5995 10.4021 33.7093 10.435 33.8122C10.4679 33.9152 10.5269 34.0079 10.6063 34.0812C10.6876 34.1596 10.7901 34.2126 10.9011 34.2337C11.0121 34.2548 11.1268 34.2431 11.2313 34.2L15.7563 32.5937L18.675 35.1312L19.375 37.1062C19.4238 37.2298 19.5107 37.3345 19.6231 37.4053C19.7355 37.4761 19.8675 37.5093 20 37.5C20.1325 37.5093 20.2645 37.4761 20.3769 37.4053C20.4893 37.3345 20.5762 37.2298 20.625 37.1062L21.375 35.1L24.25 32.6L28.775 34.2062C28.8795 34.2493 28.9942 34.2611 29.1052 34.24C29.2162 34.2189 29.3187 34.1659 29.4 34.0875C29.4794 34.0141 29.5384 33.9215 29.5713 33.8185C29.6041 33.7155 29.6097 33.6058 29.5875 33.5C28.9809 31.0655 27.746 28.8328 26.0063 27.025C27.5685 27.2799 29.086 27.7577 30.5125 28.4437C33.0125 29.775 34.0875 31.5687 34.0688 34.3437L34.025 36.1437Z" fill="#41C0EB"/>
</g>
<defs>
<clipPath id="clip0_3280_58374">
<rect width="40" height="40" fill="white"/>
</clipPath>
</defs>
</svg>
