<svg width="40" height="40" viewBox="0 0 40 40" fill="none" xmlns="http://www.w3.org/2000/svg">
<path d="M19.9199 16.56L19.6799 16.88C19.4399 17.2 19.4399 17.76 19.8399 18C19.9999 18.08 20.1599 18.16 20.3199 18.16C20.5599 18.16 20.7999 18.08 20.9599 17.84L21.1999 17.52C21.4399 17.2 21.4399 16.64 21.0399 16.4C20.6399 16.16 20.2399 16.24 19.9199 16.56Z" fill="#41C0EB"/>
<path d="M32.7999 21.92C32.7199 21.92 32.7199 21.92 32.7999 21.92C31.5199 17.92 28.4799 14.64 24.3999 13.2V2.4H24.8799C25.2799 2.4 25.6799 2.08 25.6799 1.6C25.6799 1.12 25.2799 0.800003 24.8799 0.800003H15.1199C14.7199 0.800003 14.3199 1.12 14.3199 1.6C14.3199 2.08 14.7199 2.4 15.1199 2.4H15.5999V13.2C10.4799 14.96 6.95989 19.76 6.63989 25.12C6.63989 25.2 6.63989 25.36 6.63989 25.44C6.63989 25.6 6.63989 25.68 6.63989 25.84C6.63989 33.2 12.6399 39.2 19.9999 39.2C27.3599 39.2 33.3599 33.2 33.3599 25.84C33.3599 24.56 33.1999 23.36 32.8799 22.16C32.8799 22.08 32.7999 22 32.7999 21.92ZM13.1999 27.68C13.0399 27.92 12.7999 28.08 12.5599 28.08C12.3999 28.08 12.2399 28 12.1599 27.92L11.8399 27.68C11.4399 27.44 11.3599 26.96 11.5999 26.56C11.8399 26.16 12.3199 26.08 12.7199 26.32L13.0399 26.56C13.3599 26.8 13.4399 27.36 13.1999 27.68ZM19.5199 33.36L19.2799 34C19.1199 34.32 18.8799 34.48 18.5599 34.48C18.4799 34.48 18.3999 34.48 18.2399 34.4C17.8399 34.24 17.5999 33.76 17.7599 33.36L17.9999 32.72C18.1599 32.32 18.6399 32.08 19.0399 32.24C19.5199 32.48 19.6799 32.88 19.5199 33.36ZM27.8399 29.36H26.7199C26.2399 29.36 25.9199 29.04 25.9199 28.56C25.9199 28.08 26.2399 27.76 26.7199 27.76H27.8399C28.3199 27.76 28.6399 28.08 28.6399 28.56C28.6399 29.04 28.3199 29.36 27.8399 29.36ZM19.4399 23.04C14.7199 21.76 10.4799 23.12 8.39989 24C9.11989 19.6 12.3199 15.84 16.6399 14.56C16.9599 14.48 17.1999 14.16 17.1999 13.76V2.4H22.7999V13.76C22.7999 14.08 23.0399 14.4 23.3599 14.56C26.9599 15.6 29.7599 18.4 31.0399 21.84C29.2799 22.56 24.2399 24.32 19.4399 23.04Z" fill="#41C0EB"/>
</svg>
