<svg width="40" height="40" viewBox="0 0 40 40" fill="none" xmlns="http://www.w3.org/2000/svg">
<g id="Cleaning">
<path id="Vector" d="M29.375 33.125H28.75V32.8125C28.7503 32.4457 28.6579 32.0848 28.4813 31.7633C28.5642 31.7058 28.632 31.6291 28.6788 31.5397C28.7256 31.4503 28.75 31.3509 28.75 31.25V30C28.7493 29.5029 28.5516 29.0264 28.2001 28.6749C27.8486 28.3234 27.3721 28.1257 26.875 28.125H25.625V2.5C25.625 2.00272 25.4275 1.52581 25.0758 1.17417C24.7242 0.822544 24.2473 0.625 23.75 0.625C23.2527 0.625 22.7758 0.822544 22.4242 1.17417C22.0725 1.52581 21.875 2.00272 21.875 2.5V28.125H20.625C20.1279 28.1257 19.6514 28.3234 19.2999 28.6749C18.9484 29.0264 18.7507 29.5029 18.75 30V31.25C18.75 31.3509 18.7744 31.4503 18.8212 31.5397C18.868 31.6291 18.9358 31.7058 19.0188 31.7633C18.8421 32.0848 18.7497 32.4457 18.75 32.8125V33.125C18.7519 34.782 19.411 36.3706 20.5827 37.5423C21.7544 38.714 23.343 39.3731 25 39.375H34.375C34.5408 39.375 34.6997 39.3092 34.8169 39.1919C34.9342 39.0747 35 38.9158 35 38.75C34.9983 37.2587 34.4051 35.8289 33.3506 34.7744C32.2961 33.7199 30.8663 33.1267 29.375 33.125ZM23.125 2.5C23.125 2.33424 23.1908 2.17527 23.3081 2.05806C23.4253 1.94085 23.5842 1.875 23.75 1.875C23.9158 1.875 24.0747 1.94085 24.1919 2.05806C24.3092 2.17527 24.375 2.33424 24.375 2.5V5H23.125V2.5ZM23.125 6.25H24.375V28.125H23.125V6.25ZM27.5 38.125H25C23.6744 38.1235 22.4035 37.5962 21.4661 36.6589C20.5288 35.7215 20.0015 34.4506 20 33.125V32.8125C20.0002 32.5639 20.099 32.3256 20.2748 32.1498C20.4506 31.974 20.6889 31.8752 20.9375 31.875H21.25V33.125C21.25 33.2908 21.3158 33.4497 21.4331 33.5669C21.5503 33.6842 21.7092 33.75 21.875 33.75C22.0408 33.75 22.1997 33.6842 22.3169 33.5669C22.4342 33.4497 22.5 33.2908 22.5 33.125V31.875H23.125V34.375C23.125 34.5408 23.1908 34.6997 23.3081 34.8169C23.4253 34.9342 23.5842 35 23.75 35C23.9158 35 24.0747 34.9342 24.1919 34.8169C24.3092 34.6997 24.375 34.5408 24.375 34.375V31.875H25V33.75C25 33.9158 25.0658 34.0747 25.1831 34.1919C25.3003 34.3092 25.4592 34.375 25.625 34.375C25.7908 34.375 25.9497 34.3092 26.0669 34.1919C26.1842 34.0747 26.25 33.9158 26.25 33.75V31.875H26.5625C26.8111 31.8752 27.0494 31.974 27.2252 32.1498C27.401 32.3256 27.4998 32.5639 27.5 32.8125V38.125ZM27.5 30.625H20V30C20.0002 29.8343 20.0662 29.6755 20.1833 29.5583C20.3005 29.4411 20.4593 29.3752 20.625 29.375H26.875C27.0407 29.3752 27.1995 29.4411 27.3167 29.5583C27.4339 29.6755 27.4998 29.8343 27.5 30V30.625ZM28.75 38.125V36.875H30C30.1658 36.875 30.3247 36.8092 30.4419 36.6919C30.5592 36.5747 30.625 36.4158 30.625 36.25C30.625 36.0842 30.5592 35.9253 30.4419 35.8081C30.3247 35.6908 30.1658 35.625 30 35.625H28.75V34.375H29.375C30.4267 34.3764 31.4428 34.7559 32.2379 35.4444C33.0329 36.1329 33.5538 37.0843 33.7055 38.125H28.75Z" fill="#41C0EB"/>
<path id="Vector_2" d="M25.625 35C25.4592 35 25.3003 35.0658 25.1831 35.1831C25.0658 35.3003 25 35.4592 25 35.625V36.25C25 36.4158 25.0658 36.5747 25.1831 36.6919C25.3003 36.8092 25.4592 36.875 25.625 36.875C25.7908 36.875 25.9497 36.8092 26.0669 36.6919C26.1842 36.5747 26.25 36.4158 26.25 36.25V35.625C26.25 35.4592 26.1842 35.3003 26.0669 35.1831C25.9497 35.0658 25.7908 35 25.625 35ZM18.75 24.375H17.5V21.875C17.4989 20.8808 17.1035 19.9275 16.4005 19.2245C15.6975 18.5215 14.7442 18.1261 13.75 18.125H10C9.00576 18.1261 8.05255 18.5215 7.34951 19.2245C6.64648 19.9275 6.25105 20.8808 6.25 21.875V24.375H5C4.83424 24.375 4.67527 24.4408 4.55806 24.5581C4.44085 24.6753 4.375 24.8342 4.375 25V27.5C4.375 27.6658 4.44085 27.8247 4.55806 27.9419C4.67527 28.0592 4.83424 28.125 5 28.125H5.65859L6.25078 38.7844C6.25967 38.9439 6.3293 39.094 6.44538 39.2039C6.56146 39.3137 6.71519 39.3749 6.875 39.375H16.875C17.0348 39.3749 17.1885 39.3137 17.3046 39.2039C17.4207 39.094 17.4903 38.9439 17.4992 38.7844L18.0914 28.125H18.75C18.9158 28.125 19.0747 28.0592 19.1919 27.9419C19.3092 27.8247 19.375 27.6658 19.375 27.5V25C19.375 24.8342 19.3092 24.6753 19.1919 24.5581C19.0747 24.4408 18.9158 24.375 18.75 24.375ZM7.5 21.875C7.50087 21.2122 7.76454 20.5768 8.23319 20.1082C8.70184 19.6395 9.33723 19.3759 10 19.375H13.75C14.4128 19.3759 15.0482 19.6395 15.5168 20.1082C15.9855 20.5768 16.2491 21.2122 16.25 21.875V24.375H7.5V21.875ZM16.2836 38.125H7.46641L6.91094 28.125H16.8391L16.2836 38.125ZM18.125 26.875H5.625V25.625H18.125V26.875Z" fill="#41C0EB"/>
<path id="Vector_3" d="M8.75 30.625H11.875C12.0408 30.625 12.1997 30.5592 12.3169 30.4419C12.4342 30.3247 12.5 30.1658 12.5 30C12.5 29.8342 12.4342 29.6753 12.3169 29.5581C12.1997 29.4408 12.0408 29.375 11.875 29.375H8.75C8.58424 29.375 8.42527 29.4408 8.30806 29.5581C8.19085 29.6753 8.125 29.8342 8.125 30C8.125 30.1658 8.19085 30.3247 8.30806 30.4419C8.42527 30.5592 8.58424 30.625 8.75 30.625ZM13.75 30.625H14.375C14.5408 30.625 14.6997 30.5592 14.8169 30.4419C14.9342 30.3247 15 30.1658 15 30C15 29.8342 14.9342 29.6753 14.8169 29.5581C14.6997 29.4408 14.5408 29.375 14.375 29.375H13.75C13.5842 29.375 13.4253 29.4408 13.3081 29.5581C13.1908 29.6753 13.125 29.8342 13.125 30C13.125 30.1658 13.1908 30.3247 13.3081 30.4419C13.4253 30.5592 13.5842 30.625 13.75 30.625ZM7.5 16.875C8.11807 16.875 8.72225 16.6917 9.23616 16.3483C9.75006 16.005 10.1506 15.5169 10.3871 14.9459C10.6236 14.3749 10.6855 13.7465 10.565 13.1403C10.4444 12.5342 10.1467 11.9773 9.70971 11.5403C9.27267 11.1033 8.71585 10.8056 8.10966 10.685C7.50347 10.5645 6.87513 10.6264 6.30411 10.8629C5.7331 11.0994 5.24504 11.4999 4.90166 12.0138C4.55828 12.5277 4.375 13.1319 4.375 13.75C4.37593 14.5785 4.70547 15.3728 5.29132 15.9587C5.87717 16.5445 6.67148 16.8741 7.5 16.875ZM7.5 11.875C7.87084 11.875 8.23335 11.985 8.54169 12.191C8.85004 12.397 9.09036 12.6899 9.23227 13.0325C9.37419 13.3751 9.41132 13.7521 9.33897 14.1158C9.26663 14.4795 9.08805 14.8136 8.82583 15.0758C8.5636 15.3381 8.22951 15.5166 7.86579 15.589C7.50208 15.6613 7.12508 15.6242 6.78247 15.4823C6.43986 15.3404 6.14702 15.1 5.94099 14.7917C5.73497 14.4834 5.625 14.1208 5.625 13.75C5.62558 13.2529 5.82331 12.7763 6.17481 12.4248C6.52632 12.0733 7.0029 11.8756 7.5 11.875ZM13.75 11.875C14.7389 11.875 15.7056 11.5818 16.5279 11.0324C17.3501 10.4829 17.991 9.70205 18.3694 8.78842C18.7478 7.87479 18.8469 6.86946 18.6539 5.89955C18.461 4.92965 17.9848 4.03873 17.2855 3.33947C16.5863 2.64021 15.6954 2.164 14.7255 1.97108C13.7555 1.77815 12.7502 1.87717 11.8366 2.2556C10.923 2.63404 10.1421 3.27491 9.59265 4.09715C9.04324 4.9194 8.75 5.8861 8.75 6.875C8.75149 8.20063 9.27875 9.47153 10.2161 10.4089C11.1535 11.3463 12.4244 11.8735 13.75 11.875ZM13.75 3.125C14.4917 3.125 15.2167 3.34494 15.8334 3.75699C16.4501 4.16905 16.9307 4.75472 17.2145 5.43994C17.4984 6.12516 17.5726 6.87916 17.4279 7.60659C17.2833 8.33402 16.9261 9.00221 16.4017 9.52665C15.8772 10.0511 15.209 10.4083 14.4816 10.5529C13.7542 10.6976 13.0002 10.6234 12.3149 10.3396C11.6297 10.0557 11.044 9.57508 10.632 8.95839C10.2199 8.34171 10 7.61668 10 6.875C10.0011 5.88078 10.3966 4.9276 11.0996 4.22459C11.8026 3.52157 12.7558 3.12612 13.75 3.125ZM14.375 15C14.375 15.3708 14.485 15.7334 14.691 16.0417C14.897 16.35 15.1899 16.5904 15.5325 16.7323C15.8751 16.8742 16.2521 16.9113 16.6158 16.839C16.9795 16.7666 17.3136 16.5881 17.5758 16.3258C17.838 16.0636 18.0166 15.7295 18.089 15.3658C18.1613 15.0021 18.1242 14.6251 17.9823 14.2825C17.8404 13.9399 17.6 13.647 17.2917 13.441C16.9834 13.235 16.6208 13.125 16.25 13.125C15.7529 13.1256 15.2763 13.3233 14.9248 13.6748C14.5733 14.0263 14.3756 14.5029 14.375 15ZM16.875 15C16.875 15.1236 16.8383 15.2445 16.7697 15.3472C16.701 15.45 16.6034 15.5301 16.4892 15.5774C16.375 15.6247 16.2493 15.6371 16.1281 15.613C16.0068 15.5889 15.8955 15.5294 15.8081 15.4419C15.7206 15.3545 15.6611 15.2432 15.637 15.1219C15.6129 15.0007 15.6253 14.875 15.6726 14.7608C15.7199 14.6466 15.8 14.549 15.9028 14.4803C16.0055 14.4117 16.1264 14.375 16.25 14.375C16.4157 14.3752 16.5746 14.4411 16.6917 14.5583C16.8089 14.6754 16.8748 14.8343 16.875 15Z" fill="#41C0EB"/>
</g>
</svg>
