<svg width="40" height="40" viewBox="0 0 40 40" fill="none" xmlns="http://www.w3.org/2000/svg">
<path d="M26.875 17.0312H25.6938C25.3514 17.0376 25.015 16.9417 24.7276 16.7556C24.4402 16.5696 24.2149 16.3019 24.0806 15.987C23.9463 15.6721 23.9091 15.3242 23.9738 14.988C24.0385 14.6518 24.2022 14.3426 24.4438 14.1L25.2812 13.2625C25.3398 13.2044 25.3863 13.1353 25.4181 13.0591C25.4498 12.9829 25.4661 12.9013 25.4661 12.8188C25.4661 12.7362 25.4498 12.6546 25.4181 12.5784C25.3863 12.5022 25.3398 12.4331 25.2812 12.375L21.9688 9.0625C21.9106 9.00392 21.8415 8.95742 21.7654 8.92569C21.6892 8.89396 21.6075 8.87763 21.525 8.87763C21.4425 8.87763 21.3608 8.89396 21.2846 8.92569C21.2085 8.95742 21.1394 9.00392 21.0812 9.0625L20.2437 9.9C20.003 10.1396 19.6967 10.3025 19.3635 10.3682C19.0302 10.4338 18.685 10.3993 18.3714 10.2689C18.0578 10.1385 17.7898 9.91808 17.6014 9.63552C17.4129 9.35296 17.3124 9.02089 17.3125 8.68125V7.5C17.3125 7.33424 17.2467 7.17527 17.1294 7.05806C17.0122 6.94085 16.8533 6.875 16.6875 6.875H12C11.8342 6.875 11.6753 6.94085 11.5581 7.05806C11.4408 7.17527 11.375 7.33424 11.375 7.5V8.68125C11.3751 9.02089 11.2746 9.35296 11.0861 9.63552C10.8977 9.91808 10.6297 10.1385 10.3161 10.2689C10.0025 10.3993 9.65727 10.4338 9.32403 10.3682C8.99079 10.3025 8.68447 10.1396 8.44375 9.9L7.6375 9.0625C7.5794 9.00392 7.51027 8.95742 7.43411 8.92569C7.35795 8.89396 7.27626 8.87763 7.19375 8.87763C7.11124 8.87763 7.02955 8.89396 6.95339 8.92569C6.87723 8.95742 6.8081 9.00392 6.75 9.0625L3.4375 12.375C3.37892 12.4331 3.33242 12.5022 3.30069 12.5784C3.26896 12.6546 3.25263 12.7362 3.25263 12.8188C3.25263 12.9013 3.26896 12.9829 3.30069 13.0591C3.33242 13.1353 3.37892 13.2044 3.4375 13.2625L4.275 14.1C4.5146 14.3407 4.67751 14.647 4.74316 14.9803C4.80881 15.3135 4.77426 15.6587 4.64387 15.9724C4.51347 16.286 4.29308 16.5539 4.01052 16.7424C3.72796 16.9308 3.39589 17.0314 3.05625 17.0312H1.875C1.70924 17.0312 1.55027 17.0971 1.43306 17.2143C1.31585 17.3315 1.25 17.4905 1.25 17.6562V22.3438C1.25 22.5095 1.31585 22.6685 1.43306 22.7857C1.55027 22.9029 1.70924 22.9688 1.875 22.9688H3.05625C3.39856 22.9624 3.73498 23.0583 4.02238 23.2444C4.30979 23.4304 4.53508 23.6981 4.66937 24.013C4.80367 24.3279 4.84086 24.6758 4.77616 25.012C4.71146 25.3482 4.54783 25.6574 4.30625 25.9L3.4375 26.7375C3.37892 26.7956 3.33242 26.8647 3.30069 26.9409C3.26896 27.0171 3.25263 27.0987 3.25263 27.1813C3.25263 27.2638 3.26896 27.3454 3.30069 27.4216C3.33242 27.4978 3.37892 27.5669 3.4375 27.625L6.75 30.9375C6.8081 30.9961 6.87723 31.0426 6.95339 31.0743C7.02955 31.106 7.11124 31.1224 7.19375 31.1224C7.27626 31.1224 7.35795 31.106 7.43411 31.0743C7.51027 31.0426 7.5794 30.9961 7.6375 30.9375L8.475 30.1C8.7176 29.8584 9.02681 29.6948 9.36301 29.6301C9.69921 29.5654 10.0471 29.6026 10.362 29.7369C10.6769 29.8712 10.9446 30.0965 11.1306 30.3839C11.3167 30.6713 11.4126 31.0077 11.4062 31.35V32.5C11.4062 32.6658 11.4721 32.8247 11.5893 32.9419C11.7065 33.0592 11.8655 33.125 12.0312 33.125H16.7188C16.8845 33.125 17.0435 33.0592 17.1607 32.9419C17.2779 32.8247 17.3438 32.6658 17.3438 32.5V31.3188C17.3374 30.9764 17.4333 30.64 17.6194 30.3526C17.8054 30.0652 18.0731 29.8399 18.388 29.7056C18.7029 29.5713 19.0508 29.5341 19.387 29.5988C19.7232 29.6635 20.0324 29.8272 20.275 30.0688L21.1125 30.9062C21.1706 30.9648 21.2397 31.0113 21.3159 31.0431C21.3921 31.0748 21.4737 31.0911 21.5563 31.0911C21.6388 31.0911 21.7204 31.0748 21.7966 31.0431C21.8728 31.0113 21.9419 30.9648 22 30.9062L25.3125 27.5938C25.3711 27.5356 25.4176 27.4665 25.4493 27.3904C25.481 27.3142 25.4974 27.2325 25.4974 27.15C25.4974 27.0675 25.481 26.9858 25.4493 26.9096C25.4176 26.8335 25.3711 26.7644 25.3125 26.7062L24.475 25.8687C24.2334 25.6262 24.0698 25.3169 24.0051 24.9807C23.9404 24.6445 23.9776 24.2967 24.1119 23.9818C24.2462 23.6668 24.4715 23.3992 24.7589 23.2131C25.0463 23.0271 25.3827 22.9311 25.725 22.9375H26.875C27.0408 22.9375 27.1997 22.8717 27.3169 22.7544C27.4342 22.6372 27.5 22.4783 27.5 22.3125V17.625C27.492 17.4647 27.4226 17.3137 27.3062 17.2031C27.1899 17.0926 27.0355 17.031 26.875 17.0312ZM19.45 27.1187C18.4927 27.8102 17.4035 28.2973 16.25 28.55C16.0792 28.5935 15.906 28.6269 15.7312 28.65C15.5312 28.65 15.3375 28.7 15.1375 28.7125H14.8875H14.325C14.198 28.719 14.0708 28.719 13.9437 28.7125C11.7051 28.602 9.59424 27.6367 8.04642 26.0157C6.4986 24.3946 5.63188 22.2413 5.625 20C5.62343 18.4989 6.00805 17.0227 6.74187 15.7133C7.4757 14.4038 8.53405 13.3051 9.81518 12.5229C11.0963 11.7407 12.5571 11.3011 14.0572 11.2466C15.5573 11.1921 17.0462 11.5244 18.3807 12.2116C19.7152 12.8988 20.8505 13.9177 21.6775 15.1704C22.5044 16.4232 22.9952 17.8676 23.1026 19.3648C23.21 20.862 22.9304 22.3617 22.2907 23.7196C21.651 25.0776 20.6728 26.2481 19.45 27.1187Z" fill="#41C0EB"/>
<path d="M14.375 12.5C12.7848 12.5005 11.2358 13.0064 9.95194 13.9447C8.66802 14.8829 7.71558 16.205 7.23215 17.72C6.74873 19.235 6.75935 20.8644 7.26248 22.3729C7.76561 23.8815 8.73521 25.191 10.0312 26.1125C10.2443 25.11 10.7887 24.2084 11.5767 23.553C12.3647 22.8977 13.3504 22.5267 14.375 22.5C15.4036 22.518 16.3957 22.8836 17.1901 23.5373C17.9845 24.1909 18.5342 25.0942 18.75 26.1C20.0428 25.1752 21.0084 23.8635 21.5074 22.3543C22.0064 20.8451 22.013 19.2164 21.5262 17.7032C21.0394 16.19 20.0844 14.8706 18.7991 13.9354C17.5138 13.0002 15.9645 12.4976 14.375 12.5ZM14.4312 21.25C13.8132 21.25 13.209 21.0667 12.6951 20.7233C12.1812 20.38 11.7806 19.8919 11.5441 19.3209C11.3076 18.7499 11.2457 18.1215 11.3663 17.5153C11.4869 16.9091 11.7845 16.3523 12.2215 15.9153C12.6586 15.4782 13.2154 15.1806 13.8216 15.06C14.4278 14.9395 15.0561 15.0013 15.6271 15.2379C16.1981 15.4744 16.6862 15.8749 17.0296 16.3888C17.373 16.9027 17.5562 17.5069 17.5562 18.125C17.5562 18.9538 17.227 19.7487 16.6409 20.3347C16.0549 20.9208 15.26 21.25 14.4312 21.25ZM29.375 4.99999C28.1013 4.9975 26.8747 5.48118 25.9455 6.3523C25.0163 7.22342 24.4546 8.41631 24.375 9.68749L26.3375 11.65C26.4016 11.7133 26.4524 11.7888 26.4871 11.8719C26.5218 11.9551 26.5397 12.0443 26.5397 12.1344C26.5397 12.2245 26.5218 12.3137 26.4871 12.3968C26.4524 12.48 26.4016 12.5554 26.3375 12.6187L25.625 13.325C25.8409 13.568 26.0795 13.7898 26.3375 13.9875C26.6069 13.3947 27.0313 12.8855 27.5658 12.5137C28.1004 12.1419 28.7255 11.9212 29.375 11.875C30.0201 11.9256 30.6399 12.1483 31.1698 12.5198C31.6996 12.8914 32.1201 13.3982 32.3875 13.9875C33.2227 13.3556 33.8384 12.4775 34.1478 11.4769C34.4571 10.4764 34.4445 9.40394 34.1117 8.41094C33.7788 7.41795 33.1426 6.55454 32.2927 5.94254C31.4429 5.33054 30.4223 5.00085 29.375 4.99999ZM29.375 10.625C29.0042 10.625 28.6416 10.515 28.3333 10.309C28.025 10.103 27.7846 9.81014 27.6427 9.46753C27.5008 9.12491 27.4637 8.74791 27.536 8.3842C27.6084 8.02049 27.7869 7.68639 28.0492 7.42417C28.3114 7.16195 28.6455 6.98337 29.0092 6.91102C29.3729 6.83867 29.7499 6.87581 30.0925 7.01772C30.4351 7.15963 30.728 7.39996 30.934 7.7083C31.14 8.01664 31.25 8.37915 31.25 8.74999C31.25 9.24728 31.0524 9.72419 30.7008 10.0758C30.3492 10.4275 29.8723 10.625 29.375 10.625ZM20.8375 8.93749L21.7562 8.01874C21.8176 7.95696 21.8907 7.90802 21.9711 7.87475C22.0516 7.84149 22.1379 7.82457 22.225 7.82499C22.1564 7.83185 22.0873 7.83185 22.0187 7.82499H21.25C21.0842 7.82499 20.9253 7.89084 20.808 8.00805C20.6908 8.12526 20.625 8.28423 20.625 8.44999V9.07499C20.6988 9.03389 20.7698 8.98795 20.8375 8.93749Z" fill="#41C0EB"/>
<path d="M37.5001 7.85H36.7314C36.5554 7.8468 36.3842 7.79207 36.239 7.69258C36.0938 7.59309 35.981 7.45322 35.9145 7.29026C35.8479 7.1273 35.8307 6.94841 35.8648 6.77574C35.8989 6.60306 35.9829 6.44418 36.1064 6.31875L36.6501 5.775C36.7087 5.7169 36.7552 5.64777 36.7869 5.57161C36.8186 5.49545 36.835 5.41376 36.835 5.33125C36.835 5.24874 36.8186 5.16705 36.7869 5.09089C36.7552 5.01473 36.7087 4.9456 36.6501 4.8875L34.4876 2.7375C34.4295 2.67892 34.3604 2.63242 34.2842 2.60069C34.2081 2.56896 34.1264 2.55263 34.0439 2.55263C33.9614 2.55263 33.8797 2.56896 33.8035 2.60069C33.7273 2.63242 33.6582 2.67892 33.6001 2.7375L33.0564 3.28125C32.9309 3.40473 32.772 3.48872 32.5994 3.52283C32.4267 3.55694 32.2478 3.53967 32.0849 3.47316C31.9219 3.40664 31.782 3.29381 31.6825 3.14861C31.583 3.00341 31.5283 2.83223 31.5251 2.65625V1.875C31.5251 1.70924 31.4593 1.55027 31.342 1.43306C31.2248 1.31585 31.0659 1.25 30.9001 1.25H27.8501C27.6843 1.25 27.5254 1.31585 27.4082 1.43306C27.291 1.55027 27.2251 1.70924 27.2251 1.875V2.64375C27.2219 2.81973 27.1672 2.99091 27.0677 3.13611C26.9682 3.28131 26.8283 3.39414 26.6654 3.46066C26.5024 3.52717 26.3235 3.54444 26.1508 3.51033C25.9782 3.47622 25.8193 3.39223 25.6939 3.26875L25.1501 2.725C25.092 2.66642 25.0229 2.61992 24.9467 2.58819C24.8706 2.55646 24.7889 2.54013 24.7064 2.54013C24.6239 2.54013 24.5422 2.55646 24.466 2.58819C24.3898 2.61992 24.3207 2.66642 24.2626 2.725L22.1126 4.8875C22.054 4.9456 22.0075 5.01473 21.9758 5.09089C21.9441 5.16705 21.9277 5.24874 21.9277 5.33125C21.9277 5.41376 21.9441 5.49545 21.9758 5.57161C22.0075 5.64777 22.054 5.7169 22.1126 5.775L22.6564 6.31875C22.7685 6.43038 22.8489 6.56976 22.8895 6.72266C22.9301 6.87555 22.9294 7.03649 22.8875 7.18902C22.8455 7.34155 22.7638 7.48022 22.6508 7.59086C22.5377 7.70149 22.3973 7.78013 22.2439 7.81875C22.4244 7.819 22.5975 7.89093 22.7251 8.01875L23.2939 8.5875C23.5579 7.4575 24.1313 6.42332 24.9499 5.60079C25.7684 4.77827 26.7998 4.19987 27.9286 3.9304C29.0573 3.66092 30.2387 3.711 31.3406 4.07503C32.4424 4.43906 33.4212 5.10266 34.1672 5.99151C34.9132 6.88036 35.3971 7.95936 35.5645 9.10765C35.732 10.2559 35.5764 11.4282 35.1153 12.4931C34.6542 13.5579 33.9057 14.4734 32.9537 15.137C32.0017 15.8005 30.8838 16.1859 29.7251 16.25H29.0251C27.7932 16.1781 26.6102 15.7432 25.6251 15C25.3834 14.8082 25.1557 14.5993 24.9439 14.375C24.8472 14.7723 24.8778 15.1898 25.0314 15.5688C25.2035 15.9868 25.5209 16.3287 25.9251 16.5312C26.0412 16.4758 26.1683 16.447 26.297 16.447C26.4257 16.447 26.5527 16.4758 26.6689 16.5312C26.7903 16.5788 26.8978 16.6562 26.9814 16.7562H28.0626C28.1521 16.7554 28.2408 16.7722 28.3238 16.8057C28.4068 16.8392 28.4823 16.8887 28.5462 16.9514C28.61 17.014 28.6609 17.0887 28.6959 17.171C28.7309 17.2534 28.7493 17.3418 28.7501 17.4312V18.75H30.9001C31.0659 18.75 31.2248 18.6842 31.342 18.5669C31.4593 18.4497 31.5251 18.2908 31.5251 18.125V17.3563C31.5283 17.1803 31.583 17.0091 31.6825 16.8639C31.782 16.7187 31.9219 16.6059 32.0849 16.5393C32.2478 16.4728 32.4267 16.4556 32.5994 16.4897C32.772 16.5238 32.9309 16.6078 33.0564 16.7313L33.6001 17.275C33.6582 17.3336 33.7273 17.3801 33.8035 17.4118C33.8797 17.4435 33.9614 17.4599 34.0439 17.4599C34.1264 17.4599 34.2081 17.4435 34.2842 17.4118C34.3604 17.3801 34.4295 17.3336 34.4876 17.275L36.6376 15.125C36.6962 15.0669 36.7427 14.9978 36.7744 14.9216C36.8061 14.8454 36.8225 14.7638 36.8225 14.6812C36.8225 14.5987 36.8061 14.5171 36.7744 14.4409C36.7427 14.3647 36.6962 14.2956 36.6376 14.2375L36.0939 13.6938C35.9704 13.5683 35.8864 13.4094 35.8523 13.2368C35.8182 13.0641 35.8354 12.8852 35.902 12.7222C35.9685 12.5593 36.0813 12.4194 36.2265 12.3199C36.3717 12.2204 36.5429 12.1657 36.7189 12.1625H37.5001C37.6659 12.1625 37.8248 12.0967 37.9421 11.9794C38.0593 11.8622 38.1251 11.7033 38.1251 11.5375V8.475C38.1251 8.30924 38.0593 8.15027 37.9421 8.03306C37.8248 7.91585 37.6659 7.85 37.5001 7.85ZM28.7501 23.125H28.4126C28.3082 23.1926 28.1869 23.2294 28.0626 23.2312H27.5751C26.6114 23.4532 25.7232 23.9253 25.0001 24.6C24.8956 24.9252 24.8842 25.273 24.967 25.6044C25.0498 25.9357 25.2237 26.2373 25.4689 26.475L26.3251 27.3312C26.2866 27.1817 26.2615 27.029 26.2501 26.875C26.2411 26.2526 26.4612 25.6486 26.8685 25.1779C27.2758 24.7072 27.8419 24.4027 28.4591 24.3222C29.0763 24.2417 29.7016 24.3908 30.216 24.7413C30.7305 25.0917 31.0981 25.619 31.2491 26.2229C31.4 26.8268 31.3238 27.4651 31.0348 28.0164C30.7458 28.5677 30.2643 28.9935 29.6818 29.213C29.0993 29.4324 28.4565 29.43 27.8756 29.2064C27.2947 28.9827 26.8163 28.5534 26.5314 28C26.5092 28.1315 26.4483 28.2534 26.3564 28.35L23.6314 31.0687C24.0052 31.8856 24.5662 32.6029 25.2689 33.1625C26.0439 31.6875 27.3126 30.625 28.7501 30.625C30.1876 30.625 31.4439 31.6938 32.2189 33.175C33.139 32.4528 33.8112 31.4618 34.1418 30.3397C34.4724 29.2177 34.4449 28.0205 34.0633 26.9148C33.6817 25.8091 32.9648 24.8498 32.0125 24.1706C31.0602 23.4913 29.9198 23.1258 28.7501 23.125Z" fill="#41C0EB"/>
<path d="M38.1251 26.3687H37.2376C37.0138 26.3671 36.7956 26.2994 36.6101 26.1743C36.4246 26.0492 36.2802 25.8722 36.1948 25.6654C36.1094 25.4586 36.0869 25.2312 36.1301 25.0117C36.1732 24.7922 36.2802 24.5903 36.4376 24.4313L37.0626 23.8063C37.1211 23.7481 37.1676 23.679 37.1994 23.6029C37.2311 23.5267 37.2474 23.445 37.2474 23.3625C37.2474 23.28 37.2311 23.1983 37.1994 23.1221C37.1676 23.046 37.1211 22.9769 37.0626 22.9187L34.5626 20.4187C34.5045 20.3602 34.4353 20.3137 34.3592 20.2819C34.283 20.2502 34.2013 20.2339 34.1188 20.2339C34.0363 20.2339 33.9546 20.2502 33.8785 20.2819C33.8023 20.3137 33.7332 20.3602 33.6751 20.4187L33.0501 21.0437C32.891 21.2011 32.6891 21.3081 32.4696 21.3512C32.2501 21.3944 32.0227 21.3719 31.8159 21.2865C31.6091 21.2012 31.4321 21.0567 31.307 20.8712C31.1819 20.6857 31.1143 20.4675 31.1126 20.2437V19.375C31.1126 19.2092 31.0467 19.0503 30.9295 18.9331C30.8123 18.8158 30.6533 18.75 30.4876 18.75H28.7501V21.875C29.9668 21.8729 31.1622 22.1938 32.2144 22.8048C33.2665 23.4159 34.1377 24.2952 34.7388 25.353C35.34 26.4108 35.6497 27.6092 35.6363 28.8258C35.6229 30.0425 35.2868 31.2337 34.6624 32.278C34.0381 33.3223 33.1477 34.1822 32.0824 34.7699C31.017 35.3575 29.8147 35.652 28.5984 35.6231C27.382 35.5941 26.1951 35.243 25.1589 34.6053C24.1226 33.9677 23.2741 33.0665 22.7001 31.9937C22.4313 32.2437 21.4001 32.7312 21.0626 33.0688L20.4376 33.6938C20.379 33.7519 20.3325 33.821 20.3008 33.8971C20.269 33.9733 20.2527 34.055 20.2527 34.1375C20.2527 34.22 20.269 34.3017 20.3008 34.3779C20.3325 34.454 20.379 34.5231 20.4376 34.5813L22.9376 37.0813C22.9957 37.1398 23.0648 37.1863 23.141 37.2181C23.2171 37.2498 23.2988 37.2661 23.3813 37.2661C23.4638 37.2661 23.5455 37.2498 23.6217 37.2181C23.6978 37.1863 23.767 37.1398 23.8251 37.0813L24.4501 36.4563C24.6091 36.2989 24.811 36.1919 25.0305 36.1488C25.25 36.1056 25.4774 36.1281 25.6842 36.2135C25.891 36.2988 26.068 36.4433 26.1931 36.6288C26.3182 36.8143 26.3859 37.0325 26.3876 37.2563V38.125C26.3876 38.2908 26.4534 38.4497 26.5706 38.5669C26.6878 38.6842 26.8468 38.75 27.0126 38.75H30.5251C30.6908 38.75 30.8498 38.6842 30.967 38.5669C31.0842 38.4497 31.1501 38.2908 31.1501 38.125V37.2375C31.1518 37.0138 31.2194 36.7955 31.3445 36.61C31.4696 36.4246 31.6466 36.2801 31.8534 36.1947C32.0602 36.1093 32.2876 36.0868 32.5071 36.13C32.7266 36.1732 32.9285 36.2801 33.0876 36.4375L33.7126 37.0625C33.7707 37.1211 33.8398 37.1676 33.9159 37.1993C33.9921 37.231 34.0738 37.2474 34.1563 37.2474C34.2388 37.2474 34.3205 37.231 34.3967 37.1993C34.4728 37.1676 34.542 37.1211 34.6001 37.0625L37.1001 34.5625C37.1586 34.5044 37.2051 34.4353 37.2369 34.3591C37.2686 34.2829 37.2849 34.2013 37.2849 34.1187C37.2849 34.0362 37.2686 33.9546 37.2369 33.8784C37.2051 33.8022 37.1586 33.7331 37.1001 33.675L36.4751 33.05C36.3177 32.891 36.2107 32.689 36.1676 32.4695C36.1244 32.25 36.1469 32.0226 36.2323 31.8158C36.3177 31.609 36.4621 31.432 36.6476 31.3069C36.8331 31.1818 37.0513 31.1142 37.2751 31.1125H38.1251C38.2908 31.1125 38.4498 31.0467 38.567 30.9294C38.6842 30.8122 38.7501 30.6533 38.7501 30.4875V26.9937C38.7501 26.828 38.6842 26.669 38.567 26.5518C38.4498 26.4346 38.2908 26.3687 38.1251 26.3687Z" fill="#41C0EB"/>
</svg>
