<svg width="40" height="40" viewBox="0 0 40 40" fill="none" xmlns="http://www.w3.org/2000/svg">
<g id="Quality">
<path id="Vector" d="M35.5563 16.4501L37.3063 12.1813C37.375 12.0188 37.3687 11.8313 37.2938 11.6751C37.2188 11.5188 37.075 11.3938 36.9062 11.3438L32.475 10.0563L32.2 5.45008C32.1875 5.27508 32.1063 5.11258 31.9688 5.00008C31.8313 4.88758 31.65 4.84383 31.475 4.86883L26.925 5.61883L24.6813 1.58758C24.5938 1.43133 24.45 1.32508 24.275 1.28133C24.1063 1.23758 23.9188 1.28133 23.775 1.38133L20.0062 4.04383L16.2375 1.38133C16.0938 1.28133 15.9125 1.24383 15.7375 1.28133C15.5625 1.31883 15.4188 1.43133 15.3313 1.58758L13.0875 5.61883L8.5375 4.86258C8.36875 4.83133 8.1875 4.88133 8.04375 4.99383C7.90625 5.10633 7.81875 5.26883 7.8125 5.44383L7.5375 10.0501L3.10625 11.3376C2.9375 11.3876 2.79375 11.5063 2.71875 11.6688C2.64375 11.8313 2.6375 12.0126 2.70625 12.1751L4.45625 16.4438L1.01875 19.5376C0.8875 19.6563 0.8125 19.8251 0.8125 20.0001C0.8125 20.1751 0.8875 20.3438 1.01875 20.4626L4.44375 23.5501L2.69375 27.8188C2.625 27.9813 2.63125 28.1688 2.70625 28.3251C2.78125 28.4813 2.925 28.6063 3.09375 28.6563L7.525 29.9438L7.8 34.5501C7.8125 34.7251 7.89375 34.8876 8.03125 35.0001C8.16875 35.1126 8.35 35.1563 8.525 35.1313L13.075 34.3813L15.3188 38.4126C15.4063 38.5688 15.55 38.6751 15.725 38.7188C15.8938 38.7626 16.0813 38.7188 16.225 38.6188L19.9937 35.9563L23.7625 38.6188C23.8688 38.6938 23.9937 38.7313 24.125 38.7313C24.1687 38.7313 24.2188 38.7313 24.2625 38.7126C24.4375 38.6751 24.5813 38.5626 24.6688 38.4063L26.9125 34.3751L31.4625 35.1313C31.6313 35.1626 31.8125 35.1126 31.9563 35.0001C32.0938 34.8876 32.1812 34.7251 32.1875 34.5501L32.4625 29.9438L36.8937 28.6563C37.0625 28.6063 37.2063 28.4876 37.2812 28.3251C37.3563 28.1626 37.3625 27.9813 37.2938 27.8188L35.5438 23.5501L38.9688 20.4626C39.1 20.3438 39.175 20.1751 39.175 20.0001C39.175 19.8251 39.1 19.6563 38.9688 19.5376L35.5438 16.4501H35.5563ZM34.3937 22.9188C34.2 23.0938 34.1312 23.3751 34.2375 23.6188L35.8937 27.6501L31.7062 28.8688C31.45 28.9438 31.275 29.1688 31.2562 29.4313L30.9938 33.7813L26.6938 33.0688C26.4312 33.0251 26.175 33.1501 26.0437 33.3813L23.925 37.1876L20.3625 34.6751C20.2563 34.6001 20.1313 34.5626 20 34.5626C19.8687 34.5626 19.75 34.6001 19.6375 34.6751L16.075 37.1876L13.9563 33.3813C13.8313 33.1501 13.5688 33.0251 13.3063 33.0688L9.00625 33.7813L8.74375 29.4313C8.725 29.1688 8.55 28.9438 8.29375 28.8688L4.1125 27.6501L5.7625 23.6188C5.8625 23.3751 5.8 23.0938 5.60625 22.9188L2.36875 20.0001L5.60625 17.0813C5.8 16.9063 5.86875 16.6251 5.7625 16.3813L4.10625 12.3501L8.29375 11.1313C8.55 11.0563 8.725 10.8313 8.74375 10.5688L9.00625 6.21883L13.3063 6.93133C13.5688 6.98133 13.825 6.85008 13.9563 6.61883L16.075 2.81258L19.6375 5.32508C19.8563 5.47508 20.1438 5.47508 20.3563 5.32508L23.9188 2.81258L26.0375 6.61883C26.1688 6.85008 26.425 6.97508 26.6875 6.93133L30.9875 6.21883L31.25 10.5688C31.2688 10.8313 31.4438 11.0563 31.7 11.1313L35.8812 12.3501L34.2313 16.3813C34.1313 16.6251 34.1938 16.9063 34.3875 17.0813L37.625 20.0001L34.3875 22.9188H34.3937Z" fill="#41C0EB"/>
<path id="Vector_2" d="M20 7.5C13.1063 7.5 7.5 13.1063 7.5 20C7.5 21.9438 7.95625 23.775 8.75 25.4125V25.625H8.85C10.9125 29.6938 15.1312 32.5 20 32.5C26.8937 32.5 32.5 26.8937 32.5 20C32.5 13.1063 26.8937 7.5 20 7.5ZM8.75 20C8.75 19.3625 8.81875 18.7375 8.91875 18.125H13.75V24.375H9.6375C9.06875 23.0312 8.75 21.55 8.75 20ZM20 31.25C15.85 31.25 12.2188 28.9813 10.275 25.625H14.375C14.6438 25.625 14.8688 25.4562 14.9563 25.2188L15.2625 25.4125C16.1125 25.9625 17.0938 26.25 18.1062 26.25H24.875C26.325 26.25 27.5 25.075 27.5 23.6313V18.7688C27.5 17.5125 26.475 16.4875 25.2125 16.4875H21.9937C21.7687 16.4875 21.5812 16.3062 21.5812 16.0812V13.1375C21.5812 12.0938 20.7312 11.25 19.6875 11.25H18.9375C17.8937 11.25 17.0438 12.1 17.0438 13.1375V15.7125C17.0438 16.25 16.675 16.725 16.15 16.8625L14.9125 17.1875C14.8063 17 14.6125 16.8625 14.375 16.8625H9.2C10.5563 12.175 14.8813 8.7375 20 8.7375C26.2 8.7375 31.25 13.7875 31.25 19.9875C31.25 26.1875 26.2 31.2375 20 31.2375V31.25ZM21.9937 17.7375H25.2125C25.7812 17.7375 26.2375 18.1875 26.25 18.75H23.125V20H26.25V20.625H23.125V21.875H26.25V22.5H23.125V23.75H26.2375C26.175 24.45 25.5938 25 24.875 25H18.1062C17.3375 25 16.5875 24.7812 15.9438 24.3625L15.0063 23.7562V18.4688L16.475 18.0813C17.5438 17.7937 18.2938 16.825 18.2938 15.7188V13.1438C18.2938 12.7938 18.5812 12.5063 18.9375 12.5063H19.6875C20.0437 12.5063 20.3312 12.7938 20.3312 13.1438V16.0875C20.3312 17 21.075 17.7437 21.9937 17.7437V17.7375Z" fill="#41C0EB"/>
</g>
</svg>
