<svg width="40" height="40" viewBox="0 0 40 40" fill="none" xmlns="http://www.w3.org/2000/svg">
<g clip-path="url(#clip0_3160_53587)">
<path d="M3.4375 19.0625V21.875C3.4375 22.0408 3.50335 22.1997 3.62056 22.3169C3.73777 22.4342 3.89674 22.5 4.0625 22.5C4.22826 22.5 4.38723 22.4342 4.50444 22.3169C4.62165 22.1997 4.6875 22.0408 4.6875 21.875V19.0625C4.6875 18.8967 4.62165 18.7378 4.50444 18.6206C4.38723 18.5033 4.22826 18.4375 4.0625 18.4375C3.89674 18.4375 3.73777 18.5033 3.62056 18.6206C3.50335 18.7378 3.4375 18.8967 3.4375 19.0625ZM12.8125 19.0625V21.875C12.8125 22.0408 12.8783 22.1997 12.9956 22.3169C13.1128 22.4342 13.2717 22.5 13.4375 22.5C13.6033 22.5 13.7622 22.4342 13.8794 22.3169C13.9967 22.1997 14.0625 22.0408 14.0625 21.875V19.0625C14.0625 18.8967 13.9967 18.7378 13.8794 18.6206C13.7622 18.5033 13.6033 18.4375 13.4375 18.4375C13.2717 18.4375 13.1128 18.5033 12.9956 18.6206C12.8783 18.7378 12.8125 18.8967 12.8125 19.0625ZM27.7219 19.4812C27.883 19.4481 28.0246 19.3527 28.1159 19.2158C28.2071 19.0789 28.2407 18.9115 28.2094 18.75C27.9885 17.6843 28.1971 16.5744 28.7898 15.6616C29.3826 14.7488 30.3116 14.1067 31.375 13.875C31.5374 13.8414 31.6799 13.7447 31.771 13.6061C31.8622 13.4675 31.8945 13.2984 31.8609 13.1359C31.8274 12.9735 31.7306 12.831 31.592 12.7399C31.4534 12.6488 31.2843 12.6164 31.1219 12.65C29.736 12.9495 28.5243 13.7838 27.7501 14.9717C26.976 16.1595 26.7019 17.6049 26.9875 18.9937C27.0167 19.137 27.0953 19.2656 27.2095 19.3569C27.3237 19.4483 27.4663 19.4967 27.6125 19.4937C27.6493 19.4928 27.6859 19.4886 27.7219 19.4812ZM10 13.9594C10.1658 13.9594 10.3247 13.8935 10.4419 13.7763C10.5592 13.6591 10.625 13.5001 10.625 13.3344V11.3031C10.625 11.1374 10.5592 10.9784 10.4419 10.8612C10.3247 10.744 10.1658 10.6781 10 10.6781C9.83424 10.6781 9.67527 10.744 9.55806 10.8612C9.44085 10.9784 9.375 11.1374 9.375 11.3031V13.3344C9.375 13.5001 9.44085 13.6591 9.55806 13.7763C9.67527 13.8935 9.83424 13.9594 10 13.9594ZM0.625 22.6312C0.79076 22.6312 0.949732 22.5654 1.06694 22.4482C1.18415 22.331 1.25 22.172 1.25 22.0062V19.975C1.25 19.8092 1.18415 19.6503 1.06694 19.5331C0.949732 19.4158 0.79076 19.35 0.625 19.35C0.45924 19.35 0.300269 19.4158 0.183058 19.5331C0.065848 19.6503 0 19.8092 0 19.975L0 22.0062C0 22.172 0.065848 22.331 0.183058 22.4482C0.300269 22.5654 0.45924 22.6312 0.625 22.6312Z" fill="#41C0EB"/>
<path d="M0.625 30H30.8562L30.6 28.75H1.25V26.5969H31.125C31.1625 26.5656 31.1969 26.5375 31.2375 26.5094C30.2054 26.3652 29.205 26.0482 28.2781 25.5719L28.1594 25.5063L27.8813 25.3563C27.7417 25.275 27.6062 25.1917 27.475 25.1062C27.3375 25.0156 27.2 24.9281 27.0688 24.8281L23.8375 25.3594H21.7656L18.6594 7.07812L24.2656 6.16562L25.2781 12.1375C25.6051 11.7212 25.968 11.3343 26.3625 10.9812L25.5125 5.9625C25.4544 5.63763 25.2702 5.34893 25 5.15938C24.7275 4.96832 24.3908 4.892 24.0625 4.94688L18.4531 5.85938C18.1474 5.9067 17.8708 6.06735 17.6781 6.30938V1.25C17.6781 0.918479 17.5464 0.600537 17.312 0.366117C17.0776 0.131696 16.7596 0 16.4281 0L10.7312 0C10.3997 0 10.0818 0.131696 9.84737 0.366117C9.61295 0.600537 9.48125 0.918479 9.48125 1.25V9.44062C9.88591 9.29915 10.3266 9.29915 10.7312 9.44062V1.25H16.4156V25.375H10.7312V14.9438C10.3266 15.0852 9.88591 15.0852 9.48125 14.9438V25.3594H8.23125V6.49375C8.23125 6.16223 8.09955 5.84429 7.86513 5.60987C7.63071 5.37545 7.31277 5.24375 6.98125 5.24375H1.25C0.918479 5.24375 0.600537 5.37545 0.366117 5.60987C0.131696 5.84429 0 6.16223 0 6.49375L0 18.0219C0.200607 17.9502 0.411966 17.9132 0.625 17.9125C0.838034 17.9132 1.04939 17.9502 1.25 18.0219V6.49375H6.94375V25.3594H1.25V23.5281C1.04906 23.5986 0.837918 23.6355 0.625 23.6375C0.412082 23.6355 0.200936 23.5986 0 23.5281L0 25.3625C0.00203533 25.4835 0.0220455 25.6036 0.059375 25.7188C0.0205206 25.7997 0.000235377 25.8883 0 25.9781L0 29.375C0 29.5408 0.065848 29.6997 0.183058 29.8169C0.300269 29.9342 0.45924 30 0.625 30ZM17.6781 8.83125L20.4906 25.3625H17.6781V8.83125Z" fill="#41C0EB"/>
<path d="M5.625 12.8125V8.4375C5.625 8.27174 5.55915 8.11277 5.44194 7.99556C5.32473 7.87835 5.16576 7.8125 5 7.8125H3.125C2.95924 7.8125 2.80027 7.87835 2.68306 7.99556C2.56585 8.11277 2.5 8.27174 2.5 8.4375V12.8125C2.5 12.9783 2.56585 13.1372 2.68306 13.2544C2.80027 13.3717 2.95924 13.4375 3.125 13.4375H5C5.16576 13.4375 5.32473 13.3717 5.44194 13.2544C5.55915 13.1372 5.625 12.9783 5.625 12.8125ZM4.375 12.1875H3.75V9.0625H4.375V12.1875ZM15 7.5V3.125C15 2.95924 14.9342 2.80027 14.8169 2.68306C14.6997 2.56585 14.5408 2.5 14.375 2.5H12.5C12.3342 2.5 12.1753 2.56585 12.0581 2.68306C11.9408 2.80027 11.875 2.95924 11.875 3.125V7.5C11.875 7.66576 11.9408 7.82473 12.0581 7.94194C12.1753 8.05915 12.3342 8.125 12.5 8.125H14.375C14.5408 8.125 14.6997 8.05915 14.8169 7.94194C14.9342 7.82473 15 7.66576 15 7.5ZM13.75 6.875H13.125V3.75H13.75V6.875ZM22.25 7.89688L20.4 8.20938C20.2368 8.23692 20.0912 8.32806 19.9952 8.4628C19.8991 8.59754 19.8604 8.76488 19.8875 8.92812L20.5437 12.8406C20.5684 12.9879 20.645 13.1216 20.7596 13.2173C20.8743 13.313 21.0194 13.3645 21.1687 13.3625H21.2719L23.1219 13.05C23.285 13.0225 23.4306 12.9313 23.5267 12.7966C23.6228 12.6618 23.6615 12.4945 23.6344 12.3312L22.9688 8.40938C22.9412 8.2462 22.8501 8.10061 22.7153 8.00454C22.5806 7.90846 22.4132 7.86974 22.25 7.89688ZM21.675 12.0187L21.225 9.3375L21.85 9.23438L22.3 11.9156L21.675 12.0187ZM24.5281 19.375C24.9117 21.1256 25.8753 22.6954 27.2627 23.8298C28.6501 24.9642 30.3799 25.5968 32.1719 25.625C32.4852 25.625 32.7983 25.6062 33.1094 25.5688L33.4719 27.3594L31.9375 27.6719C31.7763 27.7057 31.6349 27.8019 31.5442 27.9394C31.4535 28.0769 31.4208 28.2447 31.4531 28.4062L33.3281 37.7188C33.4001 38.0869 33.5451 38.4369 33.7544 38.7481C33.9637 39.0594 34.2331 39.3257 34.5469 39.5312C35.0017 39.833 35.5354 39.9938 36.0812 39.9938C36.2734 39.9935 36.465 39.9737 36.6531 39.9344C37.3857 39.776 38.0263 39.3351 38.4359 38.7073C38.8454 38.0795 38.9908 37.3156 38.8406 36.5812L36.9656 27.2688C36.9492 27.188 36.9171 27.1113 36.8709 27.043C36.8248 26.9747 36.7656 26.9162 36.6967 26.8709C36.6279 26.8256 36.5508 26.7944 36.4698 26.779C36.3889 26.7636 36.3057 26.7644 36.225 26.7812L34.6969 27.0938L34.3219 25.3125C34.3563 25.4844 36.7719 24.1344 36.9656 23.9844C38.0673 23.1311 38.9207 21.9988 39.4374 20.7047C39.9541 19.4106 40.1152 18.0019 39.9042 16.6245C39.6931 15.2471 39.1175 13.9513 38.2371 12.8713C37.3566 11.7913 36.2033 10.9664 34.8967 10.4822C33.5901 9.99795 32.1778 9.87199 30.8061 10.1174C29.4345 10.3627 28.1534 10.9705 27.0957 11.8776C26.038 12.7848 25.2422 13.9583 24.7907 15.2766C24.3393 16.5949 24.2486 18.0099 24.5281 19.375ZM35.85 28.125L37.6094 36.8219C37.693 37.2318 37.6121 37.6582 37.3841 38.009C37.156 38.3598 36.7992 38.6069 36.3906 38.6969C36.1918 38.7387 35.9867 38.7406 35.7871 38.7025C35.5876 38.6644 35.3976 38.5871 35.2281 38.475C35.0529 38.3593 34.9025 38.2099 34.7856 38.0356C34.6686 37.8612 34.5875 37.6654 34.5469 37.4594L32.7875 28.7562L35.85 28.125ZM28.8656 12.1406C30.1446 11.3872 31.6412 11.0897 33.1111 11.2966C34.581 11.5035 35.9373 12.2026 36.9586 13.2798C37.9799 14.3569 38.6059 15.7485 38.7343 17.2273C38.8627 18.7061 38.486 20.1848 37.6656 21.4219C36.6964 22.8628 35.2008 23.8662 33.5 24.2168C31.7992 24.5674 30.0288 24.2371 28.5687 23.2969C24.6062 20.6719 24.7688 14.5344 28.8656 12.1406Z" fill="#41C0EB"/>
</g>
<defs>
<clipPath id="clip0_3160_53587">
<rect width="40" height="40" fill="white"/>
</clipPath>
</defs>
</svg>
