<svg width="40" height="40" viewBox="0 0 40 40" fill="none" xmlns="http://www.w3.org/2000/svg">
<g id="Washing Machine">
<path id="Vector" d="M25.6249 4.37384V5.62417H28.1255V4.37384H25.6249ZM20.6235 4.37384V5.62417H23.1242V4.37384H20.6235Z" fill="#41C0EB"/>
<path id="Vector_2" d="M8.75237 1.87317C7.91902 1.87317 7.32682 2.38509 7.09602 2.84667C6.86524 3.30826 6.87456 3.75097 6.87456 3.75097V36.2504C6.87456 36.2504 6.86523 36.6931 7.09602 37.1547C7.32681 37.6163 7.91902 38.1236 8.75237 38.1236H31.2491C32.0825 38.1236 32.6747 37.6163 32.9055 37.1547C33.1363 36.6931 33.1269 36.2504 33.1269 36.2504V3.75097C33.1269 3.75097 33.1361 3.30826 32.9055 2.84667C32.6747 2.38509 32.0825 1.87317 31.2491 1.87317H8.75237ZM8.75237 3.1235H31.2491C31.6658 3.1235 31.7026 3.24151 31.7843 3.40494C31.866 3.56837 31.8766 3.75097 31.8766 3.75097V36.2504C31.8766 36.2504 31.866 36.433 31.7843 36.5964C31.7026 36.7598 31.6658 36.8779 31.2491 36.8779H8.75237C8.33569 36.8779 8.29889 36.7598 8.21717 36.5964C8.13546 36.433 8.1249 36.2504 8.1249 36.2504V3.75097C8.1249 3.75097 8.13545 3.56837 8.21717 3.40494C8.29889 3.24151 8.3357 3.1235 8.75237 3.1235Z" fill="#41C0EB"/>
<path id="Vector_3" d="M7.50195 6.87451V8.12484H32.4994V6.87451H7.50195ZM20.0007 11.2484C14.8303 11.2484 10.6255 15.4532 10.6255 20.6236C10.6255 25.7939 14.8303 29.9987 20.0007 29.9987C25.171 29.9987 29.3758 25.7939 29.3758 20.6236C29.3758 15.4532 25.171 11.2484 20.0007 11.2484ZM20.0007 12.4987C24.4955 12.4987 28.1255 16.1287 28.1255 20.6236C28.1255 25.1184 24.4955 28.7484 20.0007 28.7484C15.5059 28.7484 11.8758 25.1184 11.8758 20.6236C11.8758 16.1287 15.5059 12.4987 20.0007 12.4987ZM7.50195 33.1269V34.3772H32.4994V33.1269H7.50195Z" fill="#41C0EB"/>
<path id="Vector_4" d="M20.0007 13.749C16.2111 13.749 13.1262 16.8339 13.1262 20.6235C13.1262 24.4132 16.2111 27.5027 20.0007 27.5027C23.7904 27.5027 26.8753 24.4132 26.8753 20.6235C26.8753 16.8339 23.7904 13.749 20.0007 13.749ZM20.0007 14.9994C23.1148 14.9994 25.6249 17.5095 25.6249 20.6235C25.6249 23.7376 23.1148 26.2523 20.0007 26.2523C16.8867 26.2523 14.3766 23.7376 14.3766 20.6235C14.3766 17.5095 16.8867 14.9994 20.0007 14.9994Z" fill="#41C0EB"/>
<path id="Vector_5" d="M13.749 19.3732V20.6236C17.1108 20.6236 17.7912 21.1531 18.9072 21.7908C20.0233 22.4286 21.4982 23.1242 25.6249 23.1242V21.8739C21.6264 21.8739 20.6016 21.3189 19.5301 20.7066C18.4586 20.0943 17.2624 19.3732 13.749 19.3732Z" fill="#41C0EB"/>
</g>
</svg>
