<svg width="32" height="32" viewBox="0 0 32 32" fill="none" xmlns="http://www.w3.org/2000/svg">
<g id="Delivery" clip-path="url(#clip0_3325_56873)">
<path id="Vector" fill-rule="evenodd" clip-rule="evenodd" d="M15.986 -0.0078125C15.9157 -0.00747772 15.8461 0.0064441 15.781 0.0331875L0.336 6.45119C0.236498 6.49265 0.151494 6.56263 0.0917005 6.65232C0.0319072 6.74201 0 6.84739 0 6.95519L0 11.4102C0.000264341 11.5546 0.0577687 11.6931 0.159919 11.7953C0.262069 11.8974 0.400538 11.9549 0.545 11.9552H3.04V31.4652C3.04026 31.6096 3.09777 31.7481 3.19992 31.8503C3.30207 31.9524 3.44054 32.0099 3.585 32.0102H28.413C28.5575 32.0099 28.6959 31.9524 28.7981 31.8503C28.9002 31.7481 28.9577 31.6096 28.958 31.4652V11.9552H31.454C31.5986 11.9552 31.7374 11.8978 31.8397 11.7956C31.9421 11.6934 31.9997 11.5548 32 11.4102V6.95519C32 6.84739 31.9681 6.74201 31.9083 6.65232C31.8485 6.56263 31.7635 6.49265 31.664 6.45119L16.2 0.0331875C16.1324 0.00575557 16.06 -0.00784565 15.987 -0.0068125L15.986 -0.0078125ZM15.99 1.12719L30.908 7.31819V10.8652H28.414C28.2695 10.8655 28.1311 10.923 28.0289 11.0251C27.9268 11.1273 27.8693 11.2657 27.869 11.4102V30.9202H25.957V15.4982C25.957 15.3656 25.9043 15.2384 25.8106 15.1446C25.7168 15.0509 25.5896 14.9982 25.457 14.9982H6.543C6.41039 14.9982 6.28321 15.0509 6.18945 15.1446C6.09568 15.2384 6.043 15.3656 6.043 15.4982V30.9202H4.131V11.4102C4.13074 11.2657 4.07323 11.1273 3.97108 11.0251C3.86893 10.923 3.73046 10.8655 3.586 10.8652H1.092V7.31819L15.99 1.12719ZM6.5 10.9552C6.36739 10.9552 6.24021 11.0079 6.14645 11.1016C6.05268 11.1954 6 11.3226 6 11.4552V13.4552C6 13.5878 6.05268 13.715 6.14645 13.8087C6.24021 13.9025 6.36739 13.9552 6.5 13.9552H11.5C11.6326 13.9552 11.7598 13.9025 11.8536 13.8087C11.9473 13.715 12 13.5878 12 13.4552V11.4552C12 11.3226 11.9473 11.1954 11.8536 11.1016C11.7598 11.0079 11.6326 10.9552 11.5 10.9552H6.5ZM13.5 10.9552C13.3674 10.9552 13.2402 11.0079 13.1464 11.1016C13.0527 11.1954 13 11.3226 13 11.4552V13.4552C13 13.5878 13.0527 13.715 13.1464 13.8087C13.2402 13.9025 13.3674 13.9552 13.5 13.9552H18.5C18.6326 13.9552 18.7598 13.9025 18.8536 13.8087C18.9473 13.715 19 13.5878 19 13.4552V11.4552C19 11.3226 18.9473 11.1954 18.8536 11.1016C18.7598 11.0079 18.6326 10.9552 18.5 10.9552H13.5ZM20.5 10.9552C20.3674 10.9552 20.2402 11.0079 20.1464 11.1016C20.0527 11.1954 20 11.3226 20 11.4552V13.4552C20 13.5878 20.0527 13.715 20.1464 13.8087C20.2402 13.9025 20.3674 13.9552 20.5 13.9552H25.5C25.6326 13.9552 25.7598 13.9025 25.8536 13.8087C25.9473 13.715 26 13.5878 26 13.4552V11.4552C26 11.3226 25.9473 11.1954 25.8536 11.1016C25.7598 11.0079 25.6326 10.9552 25.5 10.9552H20.5ZM7 11.9552H11V12.9552H7V11.9552ZM14 11.9552H18V12.9552H14V11.9552ZM21 11.9552H25V12.9552H21V11.9552ZM7.043 15.9982H24.957V30.9122H22V26.4552C22 26.3226 21.9473 26.1954 21.8536 26.1016C21.7598 26.0079 21.6326 25.9552 21.5 25.9552H16.5C16.3674 25.9552 16.2402 26.0079 16.1464 26.1016C16.0527 26.1954 16 26.3226 16 26.4552V30.9122H15V21.4552C15 21.3226 14.9473 21.1954 14.8536 21.1016C14.7598 21.0079 14.6326 20.9552 14.5 20.9552H9.5C9.36739 20.9552 9.24021 21.0079 9.14645 21.1016C9.05268 21.1954 9 21.3226 9 21.4552V30.9122H7.043V15.9982ZM10 21.9552H14V25.9552H10V21.9552ZM10 26.9552H14V30.9122H10V26.9552ZM17 26.9552H21V30.9122H17V26.9552Z" fill="#41C0EB"/>
</g>
<defs>
<clipPath id="clip0_3325_56873">
<rect width="32" height="32" fill="white"/>
</clipPath>
</defs>
</svg>
