<svg width="32" height="32" viewBox="0 0 32 32" fill="none" xmlns="http://www.w3.org/2000/svg">
<g id="Checklist" clip-path="url(#clip0_3325_56820)">
<path id="Vector" d="M31.36 0.640137H0.640015V31.3601H31.36V0.640137ZM30.08 30.0801H1.92001V1.92014H30.08V30.0801Z" fill="#41C0EB"/>
<path id="Vector_2" d="M13.8924 5.57244L12.9875 4.66748L7.67996 9.975L5.57244 7.86748L4.66748 8.77244L7.67996 11.7849L13.8924 5.57244ZM16 7.67996H27.52V8.95996H16V7.67996ZM13.8924 13.2524L12.9875 12.3475L7.67996 17.655L5.57244 15.5475L4.66748 16.4524L7.67996 19.4649L13.8924 13.2524ZM16 15.36H27.52V16.64H16V15.36ZM13.8924 20.9324L12.9875 20.0275L7.67996 25.335L5.57244 23.2275L4.66748 24.1324L7.67996 27.1449L13.8924 20.9324ZM16 23.04H27.52V24.32H16V23.04Z" fill="#41C0EB"/>
</g>
<defs>
<clipPath id="clip0_3325_56820">
<rect width="32" height="32" fill="white"/>
</clipPath>
</defs>
</svg>
