<svg width="32" height="32" viewBox="0 0 32 32" fill="none" xmlns="http://www.w3.org/2000/svg">
<g id="delivery truck">
<path id="Vector" d="M11.5199 14.0799H3.83994V13.7674L7.46818 10.2399H11.5199V14.0799ZM11.5199 15.3599V19.8396C10.9361 19.0625 10.0067 18.5599 8.95994 18.5599C7.64774 18.5599 6.52001 19.3497 6.02621 20.4799H3.83994V15.3599H11.5199ZM12.7999 20.4799V8.9599V7.6799H28.1599V20.4799H27.2537C26.7599 19.3497 25.6321 18.5599 24.3199 18.5599C23.0077 18.5599 21.88 19.3497 21.3862 20.4799H12.7999ZM11.5199 8.9599H6.94851L2.55994 13.2266V20.4799C2.55994 21.1868 3.13302 21.7599 3.83994 21.7599H5.75994C5.75994 23.5272 7.19263 24.9599 8.95994 24.9599C10.7273 24.9599 12.1599 23.5272 12.1599 21.7599H21.1199C21.1199 23.5272 22.5526 24.9599 24.3199 24.9599C26.0873 24.9599 27.5199 23.5272 27.5199 21.7599H28.1599C28.8669 21.7599 29.4399 21.1868 29.4399 20.4799V7.6799C29.4399 6.97298 28.8669 6.3999 28.1599 6.3999H12.7999C12.093 6.3999 11.5199 6.97298 11.5199 7.6799V8.9599ZM24.3199 23.6799C23.2596 23.6799 22.3999 22.8203 22.3999 21.7599C22.3999 20.6995 23.2596 19.8399 24.3199 19.8399C25.3803 19.8399 26.2399 20.6995 26.2399 21.7599C26.2399 22.8203 25.3803 23.6799 24.3199 23.6799ZM8.95994 23.6799C7.89956 23.6799 7.03994 22.8203 7.03994 21.7599C7.03994 20.6995 7.89956 19.8399 8.95994 19.8399C10.0203 19.8399 10.8799 20.6995 10.8799 21.7599C10.8799 22.8203 10.0203 23.6799 8.95994 23.6799Z" fill="#41C0EB"/>
</g>
</svg>
