<svg width="40" height="41" viewBox="0 0 40 41" fill="none" xmlns="http://www.w3.org/2000/svg">
<g id="Mail">
<path id="Vector" d="M34.7665 6.96094H5.23608C4.20044 6.96212 3.20756 7.37404 2.47525 8.10635C1.74294 8.83866 1.33101 9.83155 1.32983 10.8672V30.1328C1.33101 31.1685 1.74294 32.1613 2.47525 32.8936C3.20756 33.626 4.20044 34.0379 5.23608 34.0391H34.7664C35.802 34.0379 36.7949 33.626 37.5272 32.8936C38.2595 32.1613 38.6715 31.1685 38.6726 30.1328V10.8672C38.6715 9.83155 38.2596 8.83865 37.5273 8.10634C36.795 7.37402 35.8021 6.9621 34.7665 6.96094ZM27.8212 20.4947L37.1102 13.2042V29.5119L27.8212 20.4947ZM5.23608 8.52344H34.7664C35.3878 8.52414 35.9835 8.7713 36.4229 9.21068C36.8623 9.65007 37.1094 10.2458 37.1101 10.8672V11.218L22.0781 23.0163C21.5285 23.4453 20.8511 23.6781 20.1539 23.6775C19.4567 23.677 18.7797 23.4431 18.2308 23.0131L2.89233 11.215V10.8672C2.89304 10.2458 3.14019 9.65007 3.57958 9.21068C4.01897 8.7713 4.6147 8.52414 5.23608 8.52344ZM12.4578 20.5437L2.89233 29.5434V13.1863L12.4578 20.5437ZM34.7665 32.4766H5.23608C4.83596 32.4763 4.44255 32.3737 4.09332 32.1784C3.74408 31.9831 3.45064 31.7017 3.24093 31.3609L13.7123 21.5094L17.2734 24.2484C18.097 24.8917 19.1121 25.2411 20.1571 25.2408C21.2022 25.2405 22.2171 24.8907 23.0403 24.247L26.5808 21.4688L36.7656 31.3547C36.5563 31.6972 36.2625 31.9802 35.9125 32.1766C35.5625 32.373 35.1679 32.4763 34.7665 32.4766Z" fill="#41C0EB"/>
</g>
</svg>
