<svg width="40" height="41" viewBox="0 0 40 41" fill="none" xmlns="http://www.w3.org/2000/svg">
<g id="messenger">
<path id="Vector" d="M8.1251 36.3938C8.03389 36.3949 7.94352 36.3761 7.86035 36.3387C7.77718 36.3012 7.70322 36.246 7.64366 36.1769C7.5841 36.1078 7.54038 36.0265 7.51558 35.9387C7.49078 35.851 7.4855 35.7588 7.5001 35.6688L8.41885 30.15C6.96642 28.811 5.80556 27.187 5.00873 25.3793C4.21191 23.5717 3.79621 21.6192 3.7876 19.6438C3.7876 11.35 11.0626 4.60626 20.0001 4.60626C28.9376 4.60626 36.2126 11.35 36.2126 19.6438C36.2126 27.9375 28.9376 34.6938 20.0001 34.6938C17.7706 34.7051 15.5604 34.2804 13.4938 33.4438L8.4001 36.3188C8.31543 36.3646 8.22132 36.3903 8.1251 36.3938ZM20.0001 5.85626C11.7501 5.85626 5.0376 12.0438 5.0376 19.6438C5.0456 21.5006 5.44621 23.3348 6.21313 25.0259C6.98006 26.7171 8.09596 28.2269 9.4876 29.4563C9.56619 29.5265 9.62574 29.6155 9.66071 29.7149C9.69568 29.8144 9.70493 29.921 9.6876 30.025L8.9251 34.5813L13.1251 32.1938C13.2107 32.1518 13.3048 32.13 13.4001 32.13C13.4954 32.13 13.5895 32.1518 13.6751 32.1938C15.67 33.036 17.816 33.4614 19.9813 33.4438C28.2313 33.4438 34.9438 27.2563 34.9438 19.6438C34.9438 12.0313 28.2501 5.85626 20.0001 5.85626Z" fill="#41C0EB"/>
<path id="Vector_2" d="M26.5374 15.4625H13.4624C13.2966 15.4625 13.1377 15.3967 13.0205 15.2795C12.9032 15.1623 12.8374 15.0033 12.8374 14.8375C12.8374 14.6718 12.9032 14.5128 13.0205 14.3956C13.1377 14.2784 13.2966 14.2125 13.4624 14.2125H26.5374C26.7032 14.2125 26.8621 14.2784 26.9793 14.3956C27.0966 14.5128 27.1624 14.6718 27.1624 14.8375C27.1624 15.0033 27.0966 15.1623 26.9793 15.2795C26.8621 15.3967 26.7032 15.4625 26.5374 15.4625ZM26.5374 20.5H13.4624C13.2966 20.5 13.1377 20.4342 13.0205 20.317C12.9032 20.1998 12.8374 20.0408 12.8374 19.875C12.8374 19.7093 12.9032 19.5503 13.0205 19.4331C13.1377 19.3159 13.2966 19.25 13.4624 19.25H26.5374C26.7032 19.25 26.8621 19.3159 26.9793 19.4331C27.0966 19.5503 27.1624 19.7093 27.1624 19.875C27.1624 20.0408 27.0966 20.1998 26.9793 20.317C26.8621 20.4342 26.7032 20.5 26.5374 20.5ZM26.5374 25.5438H13.4624C13.2966 25.5438 13.1377 25.4779 13.0205 25.3607C12.9032 25.2435 12.8374 25.0845 12.8374 24.9188C12.8374 24.753 12.9032 24.594 13.0205 24.4768C13.1377 24.3596 13.2966 24.2938 13.4624 24.2938H26.5374C26.7032 24.2938 26.8621 24.3596 26.9793 24.4768C27.0966 24.594 27.1624 24.753 27.1624 24.9188C27.1624 25.0845 27.0966 25.2435 26.9793 25.3607C26.8621 25.4779 26.7032 25.5438 26.5374 25.5438Z" fill="#41C0EB"/>
</g>
</svg>
