<svg width="32" height="32" viewBox="0 0 32 32" fill="none" xmlns="http://www.w3.org/2000/svg">
<g id="Qr Code">
<path id="54 Qr Code, Phone, Qr, Qr code, Scan" d="M21.3333 24.0002H5.33333V6.66683H21.3333V8.66683H22.6667V4.66683C22.6667 3.78277 22.3155 2.93493 21.6904 2.30981C21.0652 1.68469 20.2174 1.3335 19.3333 1.3335H7.33333C6.44928 1.3335 5.60143 1.68469 4.97631 2.30981C4.35119 2.93493 4 3.78277 4 4.66683V27.3335C4 28.2176 4.35119 29.0654 4.97631 29.6905C5.60143 30.3156 6.44928 30.6668 7.33333 30.6668H19.3333C20.2174 30.6668 21.0652 30.3156 21.6904 29.6905C22.3155 29.0654 22.6667 28.2176 22.6667 27.3335V22.0002H21.3333V24.0002ZM7.33333 2.66683H19.3333C19.8638 2.66683 20.3725 2.87754 20.7475 3.25262C21.1226 3.62769 21.3333 4.1364 21.3333 4.66683V5.3335H5.33333V4.66683C5.33333 4.1364 5.54405 3.62769 5.91912 3.25262C6.29419 2.87754 6.8029 2.66683 7.33333 2.66683ZM19.3333 29.3335H7.33333C6.8029 29.3335 6.29419 29.1228 5.91912 28.7477C5.54405 28.3726 5.33333 27.8639 5.33333 27.3335V25.3335H21.3333V27.3335C21.3333 27.8639 21.1226 28.3726 20.7475 28.7477C20.3725 29.1228 19.8638 29.3335 19.3333 29.3335ZM11.3333 26.6668H15.3333V28.0002H11.3333V26.6668ZM16.6667 14.0002H15.3333V10.0002C15.3333 9.82335 15.4036 9.65378 15.5286 9.52876C15.6536 9.40373 15.8232 9.3335 16 9.3335H20V10.6668H16.6667V14.0002ZM28.6667 10.0002V14.0002H27.3333V10.6668H24V9.3335H28C28.1768 9.3335 28.3464 9.40373 28.4714 9.52876C28.5964 9.65378 28.6667 9.82335 28.6667 10.0002ZM15.3333 16.6668H16.6667V20.0002H20V21.3335H16C15.8232 21.3335 15.6536 21.2633 15.5286 21.1382C15.4036 21.0132 15.3333 20.8436 15.3333 20.6668V16.6668ZM27.3333 16.6668H28.6667V20.6668C28.6667 20.8436 28.5964 21.0132 28.4714 21.1382C28.3464 21.2633 28.1768 21.3335 28 21.3335H24V20.0002H27.3333V16.6668ZM24 18.0002C24.1768 18.0002 24.3464 17.9299 24.4714 17.8049C24.5964 17.6799 24.6667 17.5103 24.6667 17.3335V13.3335C24.6667 13.1567 24.5964 12.9871 24.4714 12.8621C24.3464 12.7371 24.1768 12.6668 24 12.6668H20C19.8232 12.6668 19.6536 12.7371 19.5286 12.8621C19.4036 12.9871 19.3333 13.1567 19.3333 13.3335V17.3335C19.3333 17.5103 19.4036 17.6799 19.5286 17.8049C19.6536 17.9299 19.8232 18.0002 20 18.0002H24ZM20.6667 14.0002H23.3333V16.6668H20.6667V14.0002Z" fill="#41C0EB"/>
</g>
</svg>
