<svg width="40" height="40" viewBox="0 0 40 40" fill="none" xmlns="http://www.w3.org/2000/svg">
<g id="Phone">
<path id="Vector" d="M29.3125 26.1625C28.9641 25.8129 28.5501 25.5355 28.0943 25.3462C27.6385 25.1569 27.1498 25.0595 26.6562 25.0595C26.1627 25.0595 25.674 25.1569 25.2181 25.3462C24.7623 25.5355 24.3483 25.8129 24 26.1625L22.1875 27.975C20.1467 26.6798 18.256 25.1622 16.55 23.45C14.8414 21.7407 13.3241 19.8504 12.025 17.8125L13.8375 16C14.1871 15.6516 14.4644 15.2376 14.6537 14.7818C14.843 14.326 14.9404 13.8373 14.9404 13.3437C14.9404 12.8502 14.843 12.3615 14.6537 11.9057C14.4644 11.4498 14.1871 11.0359 13.8375 10.6875L10.3 7.16248C9.95649 6.81172 9.54601 6.53359 9.09292 6.34462C8.63983 6.15566 8.15337 6.05971 7.66246 6.06248C7.16806 6.06126 6.6783 6.15783 6.22137 6.34661C5.76443 6.53539 5.34933 6.81266 4.99996 7.16248L3.29996 8.84998C2.48967 9.72119 1.88492 10.7629 1.53017 11.8986C1.17541 13.0342 1.07966 14.235 1.24996 15.4125C1.64996 20.1 4.72496 25.7375 9.46246 30.4875C14.2 35.2375 19.9 38.3 24.5875 38.75C24.9372 38.7687 25.2877 38.7687 25.6375 38.75C26.6465 38.7923 27.6538 38.6328 28.6004 38.2808C29.547 37.9288 30.4138 37.3913 31.15 36.7L32.8375 35C33.1873 34.6506 33.4645 34.2355 33.6533 33.7786C33.8421 33.3216 33.9387 32.8319 33.9375 32.3375C33.9402 31.8466 33.8443 31.3601 33.6553 30.907C33.4663 30.4539 33.1882 30.0434 32.8375 29.7L29.3125 26.1625ZM31.075 33.2375L29.375 34.925C28.7464 35.4488 28.0126 35.8315 27.2233 36.0472C26.434 36.2629 25.6076 36.3064 24.8 36.175C20.7375 35.825 15.5625 32.95 11.2875 28.675C7.01246 24.4 4.13746 19.2625 3.74996 15.2C3.61516 14.3924 3.65711 13.5651 3.87291 12.7753C4.08871 11.9855 4.47323 11.2518 4.99996 10.625L6.76246 8.92498C6.87926 8.80912 7.01778 8.71747 7.17008 8.65526C7.32237 8.59306 7.48545 8.56153 7.64996 8.56248C7.81447 8.56153 7.97755 8.59306 8.12984 8.65526C8.28214 8.71747 8.42066 8.80912 8.53746 8.92498L12.075 12.5C12.3078 12.7342 12.4384 13.051 12.4384 13.3812C12.4384 13.7115 12.3078 14.0283 12.075 14.2625L9.57496 16.7625C9.37933 16.9571 9.25362 17.2111 9.21745 17.4847C9.18127 17.7583 9.23665 18.0362 9.37496 18.275C10.8717 20.823 12.6909 23.1674 14.7875 25.25C16.8701 27.3466 19.2144 29.1657 21.7625 30.6625C22.0013 30.8008 22.2792 30.8562 22.5528 30.82C22.8264 30.7838 23.0803 30.6581 23.275 30.4625L25.775 27.9625C26.0092 27.7297 26.326 27.599 26.6562 27.599C26.9864 27.599 27.3033 27.7297 27.5375 27.9625L31.075 31.5C31.1908 31.6168 31.2825 31.7553 31.3447 31.9076C31.4069 32.0599 31.4384 32.223 31.4375 32.3875C31.4296 32.7067 31.2999 33.0108 31.075 33.2375ZM33.25 6.73748C31.5128 4.99369 29.4476 3.61103 27.1735 2.6692C24.8994 1.72738 22.4614 1.24504 20 1.24998C19.6684 1.24998 19.3505 1.38167 19.1161 1.61609C18.8817 1.85051 18.75 2.16846 18.75 2.49998C18.75 2.8315 18.8817 3.14944 19.1161 3.38386C19.3505 3.61828 19.6684 3.74998 20 3.74998C22.1456 3.7499 24.2699 4.17473 26.2505 4.99995C28.231 5.82518 30.0286 7.03446 31.5393 8.558C33.0501 10.0815 34.2442 11.8892 35.0527 13.8766C35.8612 15.8641 36.2681 17.992 36.25 20.1375C36.25 20.469 36.3817 20.7869 36.6161 21.0214C36.8505 21.2558 37.1684 21.3875 37.5 21.3875C37.8315 21.3875 38.1494 21.2558 38.3838 21.0214C38.6183 20.7869 38.75 20.469 38.75 20.1375C38.7739 17.6499 38.2996 15.1827 37.355 12.8813C36.4104 10.5799 35.0146 8.49093 33.25 6.73748Z" fill="#41C0EB"/>
<path id="Vector_2" d="M26.1375 13.8875C26.8469 14.5926 27.4081 15.4325 27.788 16.3577C28.168 17.283 28.3591 18.2749 28.35 19.275C28.35 19.6065 28.4817 19.9245 28.7161 20.1589C28.9505 20.3933 29.2685 20.525 29.6 20.525C29.9315 20.525 30.2494 20.3933 30.4839 20.1589C30.7183 19.9245 30.85 19.6065 30.85 19.275C30.8665 17.9513 30.6201 16.6375 30.1249 15.4098C29.6298 14.1821 28.8958 13.0649 27.9656 12.123C27.0354 11.1811 25.9274 10.4334 24.7059 9.92301C23.4844 9.41266 22.1738 9.14992 20.85 9.15002C20.5185 9.15002 20.2005 9.28172 19.9661 9.51614C19.7317 9.75056 19.6 10.0685 19.6 10.4C19.6 10.7315 19.7317 11.0495 19.9661 11.2839C20.2005 11.5183 20.5185 11.65 20.85 11.65C21.8351 11.6574 22.8091 11.8589 23.7163 12.2428C24.6236 12.6267 25.4463 13.1856 26.1375 13.8875Z" fill="#41C0EB"/>
</g>
</svg>
