<svg width="32" height="32" viewBox="0 0 32 32" fill="none" xmlns="http://www.w3.org/2000/svg">
<g id="Card">
<path id="Vector" d="M23.9492 6.79395H8.05066C6.99018 6.79522 5.97351 7.21705 5.22364 7.96692C4.47376 8.71679 4.05193 9.73347 4.05066 10.7939V21.2064C4.05193 22.2669 4.47376 23.2836 5.22364 24.0335C5.97351 24.7833 6.99018 25.2052 8.05066 25.2064H23.9492C25.0097 25.2052 26.0264 24.7833 26.7762 24.0335C27.5261 23.2836 27.9479 22.2669 27.9492 21.2064V10.7939C27.9479 9.73347 27.5261 8.71679 26.7762 7.96692C26.0264 7.21705 25.0097 6.79522 23.9492 6.79395ZM8.05066 8.39395H23.9492C24.5855 8.39462 25.1956 8.6477 25.6455 9.09764C26.0955 9.54758 26.3485 10.1576 26.3492 10.7939V11.8432H5.65066V10.7939C5.65134 10.1576 5.90441 9.54758 6.35435 9.09764C6.80429 8.6477 7.41435 8.39462 8.05066 8.39395ZM23.9492 23.6064H8.05066C7.41435 23.6057 6.80429 23.3527 6.35435 22.9027C5.90441 22.4528 5.65134 21.8427 5.65066 21.2064V13.4432H26.3492V21.2064C26.3485 21.8427 26.0955 22.4528 25.6455 22.9027C25.1956 23.3527 24.5855 23.6057 23.9492 23.6064ZM24.1625 19.865C24.1625 20.0772 24.0782 20.2806 23.9282 20.4307C23.7782 20.5807 23.5747 20.665 23.3625 20.665H21.4444C21.2322 20.665 21.0288 20.5807 20.8787 20.4307C20.7287 20.2806 20.6444 20.0772 20.6444 19.865C20.6444 19.6528 20.7287 19.4493 20.8787 19.2993C21.0288 19.1493 21.2322 19.065 21.4444 19.065H23.3625C23.5747 19.065 23.7782 19.1493 23.9282 19.2993C24.0782 19.4493 24.1625 19.6528 24.1625 19.865Z" fill="#41C0EB"/>
</g>
</svg>
