<svg width="20" height="20" viewBox="0 0 20 20" fill="none" xmlns="http://www.w3.org/2000/svg">
<g id="Flask">
<path id="Vector" d="M9.96 8.28002L9.84 8.44002C9.72 8.60002 9.72 8.88002 9.92 9.00002C10 9.04002 10.08 9.08002 10.16 9.08002C10.28 9.08002 10.4 9.04002 10.48 8.92002L10.6 8.76002C10.72 8.60002 10.72 8.32002 10.52 8.20002C10.32 8.08002 10.12 8.12002 9.96 8.28002Z" fill="#8B98A1"/>
<path id="Vector_2" d="M16.4 10.96C16.36 10.96 16.36 10.96 16.4 10.96C15.76 8.96002 14.24 7.32002 12.2 6.60002V1.20002H12.44C12.64 1.20002 12.84 1.04002 12.84 0.800024C12.84 0.560024 12.64 0.400024 12.44 0.400024H7.56001C7.36001 0.400024 7.16001 0.560024 7.16001 0.800024C7.16001 1.04002 7.36001 1.20002 7.56001 1.20002H7.80001V6.60002C5.24001 7.48002 3.48001 9.88002 3.32001 12.56C3.32001 12.6 3.32001 12.68 3.32001 12.72C3.32001 12.8 3.32001 12.84 3.32001 12.92C3.32001 16.6 6.32001 19.6 10 19.6C13.68 19.6 16.68 16.6 16.68 12.92C16.68 12.28 16.6 11.68 16.44 11.08C16.44 11.04 16.4 11 16.4 10.96ZM6.60001 13.84C6.52001 13.96 6.40001 14.04 6.28001 14.04C6.20001 14.04 6.12001 14 6.08001 13.96L5.92001 13.84C5.72001 13.72 5.68001 13.48 5.80001 13.28C5.92001 13.08 6.16001 13.04 6.36001 13.16L6.52001 13.28C6.68001 13.4 6.72001 13.68 6.60001 13.84ZM9.76001 16.68L9.64001 17C9.56001 17.16 9.44001 17.24 9.28001 17.24C9.24001 17.24 9.20001 17.24 9.12001 17.2C8.92001 17.12 8.80001 16.88 8.88001 16.68L9.00001 16.36C9.08001 16.16 9.32001 16.04 9.52001 16.12C9.76001 16.24 9.84001 16.44 9.76001 16.68ZM13.92 14.68H13.36C13.12 14.68 12.96 14.52 12.96 14.28C12.96 14.04 13.12 13.88 13.36 13.88H13.92C14.16 13.88 14.32 14.04 14.32 14.28C14.32 14.52 14.16 14.68 13.92 14.68ZM9.72001 11.52C7.36001 10.88 5.24001 11.56 4.20001 12C4.56001 9.80002 6.16001 7.92002 8.32001 7.28003C8.48001 7.24003 8.60001 7.08002 8.60001 6.88002V1.20002H11.4V6.88002C11.4 7.04002 11.52 7.20002 11.68 7.28003C13.48 7.80002 14.88 9.20002 15.52 10.92C14.64 11.28 12.12 12.16 9.72001 11.52Z" fill="#8B98A1"/>
</g>
</svg>
