<svg width="20" height="20" viewBox="0 0 20 20" fill="none" xmlns="http://www.w3.org/2000/svg">
<g id="Case Study" clip-path="url(#clip0_3768_8475)">
<path id="Vector" d="M1.71875 9.5313V10.9375C1.71875 11.0204 1.75167 11.0999 1.81028 11.1585C1.86888 11.2171 1.94837 11.25 2.03125 11.25C2.11413 11.25 2.19362 11.2171 2.25222 11.1585C2.31083 11.0999 2.34375 11.0204 2.34375 10.9375V9.5313C2.34375 9.44842 2.31083 9.36893 2.25222 9.31033C2.19362 9.25172 2.11413 9.2188 2.03125 9.2188C1.94837 9.2188 1.86888 9.25172 1.81028 9.31033C1.75167 9.36893 1.71875 9.44842 1.71875 9.5313ZM6.40625 9.5313V10.9375C6.40625 11.0204 6.43917 11.0999 6.49778 11.1585C6.55638 11.2171 6.63587 11.25 6.71875 11.25C6.80163 11.25 6.88112 11.2171 6.93972 11.1585C6.99833 11.0999 7.03125 11.0204 7.03125 10.9375V9.5313C7.03125 9.44842 6.99833 9.36893 6.93972 9.31033C6.88112 9.25172 6.80163 9.2188 6.71875 9.2188C6.63587 9.2188 6.55638 9.25172 6.49778 9.31033C6.43917 9.36893 6.40625 9.44842 6.40625 9.5313ZM13.8609 9.74067C13.9415 9.72408 14.0123 9.67639 14.0579 9.60794C14.1036 9.53949 14.1204 9.45581 14.1047 9.37505C13.9942 8.84218 14.0985 8.28726 14.3949 7.83085C14.6913 7.37444 15.1558 7.05342 15.6875 6.93755C15.7687 6.92077 15.8399 6.8724 15.8855 6.8031C15.9311 6.7338 15.9473 6.64924 15.9305 6.56802C15.9137 6.4868 15.8653 6.41557 15.796 6.37C15.7267 6.32444 15.6422 6.30827 15.5609 6.32505C14.868 6.47478 14.2621 6.89195 13.8751 7.48588C13.488 8.07982 13.351 8.80252 13.4937 9.49692C13.5084 9.56857 13.5476 9.63283 13.6047 9.67851C13.6618 9.72419 13.7331 9.7484 13.8062 9.74692C13.8246 9.74645 13.8429 9.74436 13.8609 9.74067ZM5 6.97974C5.08288 6.97974 5.16237 6.94681 5.22097 6.88821C5.27958 6.8296 5.3125 6.75012 5.3125 6.66724V5.65161C5.3125 5.56873 5.27958 5.48925 5.22097 5.43064C5.16237 5.37204 5.08288 5.33911 5 5.33911C4.91712 5.33911 4.83763 5.37204 4.77903 5.43064C4.72042 5.48925 4.6875 5.56873 4.6875 5.65161V6.66724C4.6875 6.75012 4.72042 6.8296 4.77903 6.88821C4.83763 6.94681 4.91712 6.97974 5 6.97974ZM0.3125 11.3157C0.39538 11.3157 0.474866 11.2828 0.533471 11.2241C0.592076 11.1655 0.625 11.0861 0.625 11.0032V9.98755C0.625 9.90467 0.592076 9.82518 0.533471 9.76658C0.474866 9.70797 0.39538 9.67505 0.3125 9.67505C0.22962 9.67505 0.150134 9.70797 0.0915291 9.76658C0.032924 9.82518 0 9.90467 0 9.98755L0 11.0032C0 11.0861 0.032924 11.1655 0.0915291 11.2241C0.150134 11.2828 0.22962 11.3157 0.3125 11.3157Z" fill="#8B98A1"/>
<path id="Vector_2" d="M0.3125 15H15.4281L15.3 14.375H0.625V13.2984H15.5625C15.5813 13.2828 15.5984 13.2688 15.6187 13.2547C15.1027 13.1826 14.6025 13.0241 14.1391 12.7859L14.0797 12.7531L13.9406 12.6781C13.8708 12.6375 13.8031 12.5958 13.7375 12.5531C13.6687 12.5078 13.6 12.4641 13.5344 12.4141L11.9187 12.6797H10.8828L9.32969 3.53906L12.1328 3.08281L12.6391 6.06875C12.8026 5.86058 12.984 5.66713 13.1812 5.49062L12.7563 2.98125C12.7272 2.81882 12.6351 2.67447 12.5 2.57969C12.3637 2.48416 12.1954 2.446 12.0312 2.47344L9.22656 2.92969C9.07372 2.95335 8.93538 3.03367 8.83906 3.15469V0.625C8.83906 0.45924 8.77321 0.300269 8.656 0.183058C8.53879 0.065848 8.37982 0 8.21406 0L5.36562 0C5.19986 0 5.04089 0.065848 4.92368 0.183058C4.80647 0.300269 4.74062 0.45924 4.74062 0.625V4.72031C4.94295 4.64957 5.1633 4.64957 5.36562 4.72031V0.625H8.20781V12.6875H5.36562V7.47188C5.1633 7.54261 4.94295 7.54261 4.74062 7.47188V12.6797H4.11562V3.24688C4.11562 3.08111 4.04978 2.92214 3.93257 2.80493C3.81536 2.68772 3.65639 2.62188 3.49062 2.62188H0.625C0.45924 2.62188 0.300269 2.68772 0.183058 2.80493C0.065848 2.92214 0 3.08111 0 3.24688L0 9.01094C0.100304 8.97509 0.205983 8.95659 0.3125 8.95625C0.419017 8.95659 0.524696 8.97509 0.625 9.01094V3.24688H3.47187V12.6797H0.625V11.7641C0.524532 11.7993 0.418959 11.8178 0.3125 11.8188C0.206041 11.8178 0.100468 11.7993 0 11.7641L0 12.6813C0.00101767 12.7418 0.0110228 12.8018 0.0296875 12.8594C0.0102603 12.8999 0.000117688 12.9442 0 12.9891L0 14.6875C0 14.7704 0.032924 14.8499 0.0915291 14.9085C0.150134 14.9671 0.22962 15 0.3125 15ZM8.83906 4.41563L10.2453 12.6813H8.83906V4.41563Z" fill="#8B98A1"/>
<path id="Vector_3" d="M2.8125 6.40625V4.21875C2.8125 4.13587 2.77958 4.05638 2.72097 3.99778C2.66237 3.93917 2.58288 3.90625 2.5 3.90625H1.5625C1.47962 3.90625 1.40013 3.93917 1.34153 3.99778C1.28292 4.05638 1.25 4.13587 1.25 4.21875V6.40625C1.25 6.48913 1.28292 6.56862 1.34153 6.62722C1.40013 6.68583 1.47962 6.71875 1.5625 6.71875H2.5C2.58288 6.71875 2.66237 6.68583 2.72097 6.62722C2.77958 6.56862 2.8125 6.48913 2.8125 6.40625ZM2.1875 6.09375H1.875V4.53125H2.1875V6.09375ZM7.5 3.75V1.5625C7.5 1.47962 7.46708 1.40013 7.40847 1.34153C7.34987 1.28292 7.27038 1.25 7.1875 1.25H6.25C6.16712 1.25 6.08763 1.28292 6.02903 1.34153C5.97042 1.40013 5.9375 1.47962 5.9375 1.5625V3.75C5.9375 3.83288 5.97042 3.91237 6.02903 3.97097C6.08763 4.02958 6.16712 4.0625 6.25 4.0625H7.1875C7.27038 4.0625 7.34987 4.02958 7.40847 3.97097C7.46708 3.91237 7.5 3.83288 7.5 3.75ZM6.875 3.4375H6.5625V1.875H6.875V3.4375ZM11.125 3.94844L10.2 4.10469C10.1184 4.11846 10.0456 4.16403 9.99758 4.2314C9.94954 4.29877 9.93018 4.38244 9.94375 4.46406L10.2719 6.42031C10.2842 6.49397 10.3225 6.56079 10.3798 6.60865C10.4371 6.65652 10.5097 6.68227 10.5844 6.68125H10.6359L11.5609 6.525C11.6425 6.51123 11.7153 6.46566 11.7634 6.39829C11.8114 6.33092 11.8308 6.24725 11.8172 6.16562L11.4844 4.20469C11.4706 4.1231 11.425 4.05031 11.3577 4.00227C11.2903 3.95423 11.2066 3.93487 11.125 3.94844ZM10.8375 6.00937L10.6125 4.66875L10.925 4.61719L11.15 5.95781L10.8375 6.00937ZM12.2641 9.6875C12.4558 10.5628 12.9376 11.3477 13.6313 11.9149C14.325 12.4821 15.19 12.7984 16.0859 12.8125C16.2426 12.8125 16.3991 12.8031 16.5547 12.7844L16.7359 13.6797L15.9688 13.8359C15.8881 13.8529 15.8175 13.9009 15.7721 13.9697C15.7268 14.0385 15.7104 14.1224 15.7266 14.2031L16.6641 18.8594C16.7001 19.0434 16.7725 19.2184 16.8772 19.3741C16.9818 19.5297 17.1166 19.6628 17.2734 19.7656C17.5009 19.9165 17.7677 19.9969 18.0406 19.9969C18.1367 19.9968 18.2325 19.9868 18.3266 19.9672C18.6929 19.888 19.0132 19.6675 19.2179 19.3536C19.4227 19.0398 19.4954 18.6578 19.4203 18.2906L18.4828 13.6344C18.4746 13.594 18.4585 13.5556 18.4355 13.5215C18.4124 13.4874 18.3828 13.4581 18.3484 13.4355C18.3139 13.4128 18.2754 13.3972 18.2349 13.3895C18.1944 13.3818 18.1528 13.3822 18.1125 13.3906L17.3484 13.5469L17.1609 12.6562C17.1781 12.7422 18.3859 12.0672 18.4828 11.9922C19.0336 11.5656 19.4603 10.9994 19.7187 10.3523C19.977 9.7053 20.0576 9.00093 19.9521 8.31225C19.8466 7.62357 19.5588 6.97565 19.1185 6.43564C18.6783 5.89564 18.1016 5.4832 17.4484 5.24109C16.7951 4.99897 16.0889 4.93599 15.4031 5.05868C14.7172 5.18136 14.0767 5.48524 13.5479 5.93882C13.019 6.3924 12.6211 6.97916 12.3954 7.6383C12.1696 8.29743 12.1243 9.00495 12.2641 9.6875ZM17.925 14.0625L18.8047 18.4109C18.8465 18.6159 18.806 18.8291 18.692 19.0045C18.578 19.1799 18.3996 19.3034 18.1953 19.3484C18.0959 19.3693 17.9933 19.3703 17.8936 19.3513C17.7938 19.3322 17.6988 19.2936 17.6141 19.2375C17.5265 19.1796 17.4513 19.105 17.3928 19.0178C17.3343 18.9306 17.2937 18.8327 17.2734 18.7297L16.3937 14.3781L17.925 14.0625ZM14.4328 6.07031C15.0723 5.69362 15.8206 5.54485 16.5555 5.6483C17.2905 5.75174 17.9686 6.10129 18.4793 6.63988C18.99 7.17846 19.3029 7.87426 19.3671 8.61366C19.4314 9.35306 19.243 10.0924 18.8328 10.7109C18.3482 11.4314 17.6004 11.9331 16.75 12.1084C15.8996 12.2837 15.0144 12.1185 14.2844 11.6484C12.3031 10.3359 12.3844 7.26719 14.4328 6.07031Z" fill="#8B98A1"/>
</g>
<defs>
<clipPath id="clip0_3768_8475">
<rect width="20" height="20" fill="white"/>
</clipPath>
</defs>
</svg>
