<svg width="20" height="20" viewBox="0 0 20 20" fill="none" xmlns="http://www.w3.org/2000/svg">
<g id="Production Manangement" clip-path="url(#clip0_3768_8467)">
<path id="Vector" d="M13.4375 8.51562H12.8469C12.6757 8.51882 12.5075 8.47084 12.3638 8.37781C12.2201 8.28479 12.1075 8.15096 12.0403 7.9935C11.9732 7.83604 11.9546 7.66211 11.9869 7.49401C12.0193 7.32591 12.1011 7.1713 12.2219 7.05L12.6406 6.63125C12.6699 6.6022 12.6932 6.56764 12.709 6.52956C12.7249 6.49147 12.7331 6.45063 12.7331 6.40938C12.7331 6.36812 12.7249 6.32728 12.709 6.28919C12.6932 6.25111 12.6699 6.21655 12.6406 6.1875L10.9844 4.53125C10.9553 4.50196 10.9208 4.47871 10.8827 4.46285C10.8446 4.44698 10.8038 4.43881 10.7625 4.43881C10.7212 4.43881 10.6804 4.44698 10.6423 4.46285C10.6042 4.47871 10.5697 4.50196 10.5406 4.53125L10.1219 4.95C10.0015 5.0698 9.84835 5.15126 9.68173 5.18408C9.51511 5.21691 9.34251 5.19963 9.1857 5.13443C9.02889 5.06924 8.89491 4.95904 8.80068 4.81776C8.70645 4.67648 8.65619 4.51045 8.65625 4.34063V3.75C8.65625 3.66712 8.62333 3.58763 8.56472 3.52903C8.50612 3.47042 8.42663 3.4375 8.34375 3.4375H6C5.91712 3.4375 5.83763 3.47042 5.77903 3.52903C5.72042 3.58763 5.6875 3.66712 5.6875 3.75V4.34063C5.68756 4.51045 5.6373 4.67648 5.54307 4.81776C5.44884 4.95904 5.31486 5.06924 5.15805 5.13443C5.00124 5.19963 4.82864 5.21691 4.66202 5.18408C4.4954 5.15126 4.34224 5.0698 4.22188 4.95L3.81875 4.53125C3.7897 4.50196 3.75514 4.47871 3.71706 4.46285C3.67897 4.44698 3.63813 4.43881 3.59688 4.43881C3.55562 4.43881 3.51478 4.44698 3.47669 4.46285C3.43861 4.47871 3.40405 4.50196 3.375 4.53125L1.71875 6.1875C1.68946 6.21655 1.66621 6.25111 1.65035 6.28919C1.63448 6.32728 1.62631 6.36812 1.62631 6.40938C1.62631 6.45063 1.63448 6.49147 1.65035 6.52956C1.66621 6.56764 1.68946 6.6022 1.71875 6.63125L2.1375 7.05C2.2573 7.17036 2.33876 7.32352 2.37158 7.49014C2.40441 7.65676 2.38713 7.82937 2.32193 7.98618C2.25674 8.14299 2.14654 8.27696 2.00526 8.37119C1.86398 8.46542 1.69795 8.51568 1.52812 8.51562H0.9375C0.85462 8.51562 0.775134 8.54855 0.716529 8.60715C0.657924 8.66576 0.625 8.74524 0.625 8.82812V11.1719C0.625 11.2548 0.657924 11.3342 0.716529 11.3928C0.775134 11.4515 0.85462 11.4844 0.9375 11.4844H1.52812C1.69928 11.4812 1.86749 11.5292 2.01119 11.6222C2.15489 11.7152 2.26754 11.849 2.33469 12.0065C2.40184 12.164 2.42043 12.3379 2.38808 12.506C2.35573 12.6741 2.27392 12.8287 2.15312 12.95L1.71875 13.3687C1.68946 13.3978 1.66621 13.4324 1.65035 13.4704C1.63448 13.5085 1.62631 13.5494 1.62631 13.5906C1.62631 13.6319 1.63448 13.6727 1.65035 13.7108C1.66621 13.7489 1.68946 13.7834 1.71875 13.8125L3.375 15.4688C3.40405 15.498 3.43861 15.5213 3.47669 15.5372C3.51478 15.553 3.55562 15.5612 3.59688 15.5612C3.63813 15.5612 3.67897 15.553 3.71706 15.5372C3.75514 15.5213 3.7897 15.498 3.81875 15.4688L4.2375 15.05C4.3588 14.9292 4.51341 14.8474 4.68151 14.815C4.84961 14.7827 5.02354 14.8013 5.181 14.8684C5.33846 14.9356 5.47229 15.0482 5.56531 15.1919C5.65834 15.3356 5.70632 15.5038 5.70312 15.675V16.25C5.70312 16.3329 5.73605 16.4124 5.79465 16.471C5.85326 16.5296 5.93274 16.5625 6.01562 16.5625H8.35938C8.44226 16.5625 8.52174 16.5296 8.58035 16.471C8.63895 16.4124 8.67188 16.3329 8.67188 16.25V15.6594C8.66868 15.4882 8.71666 15.32 8.80969 15.1763C8.90271 15.0326 9.03654 14.92 9.194 14.8528C9.35146 14.7857 9.52539 14.7671 9.69349 14.7994C9.86159 14.8318 10.0162 14.9136 10.1375 15.0344L10.5562 15.4531C10.5853 15.4824 10.6199 15.5057 10.6579 15.5215C10.696 15.5374 10.7369 15.5456 10.7781 15.5456C10.8194 15.5456 10.8602 15.5374 10.8983 15.5215C10.9364 15.5057 10.9709 15.4824 11 15.4531L12.6562 13.7969C12.6855 13.7678 12.7088 13.7333 12.7247 13.6952C12.7405 13.6571 12.7487 13.6163 12.7487 13.575C12.7487 13.5337 12.7405 13.4929 12.7247 13.4548C12.7088 13.4167 12.6855 13.3822 12.6562 13.3531L12.2375 12.9344C12.1167 12.8131 12.0349 12.6585 12.0025 12.4904C11.9702 12.3223 11.9888 12.1483 12.0559 11.9909C12.1231 11.8334 12.2357 11.6996 12.3794 11.6066C12.5231 11.5135 12.6913 11.4656 12.8625 11.4688H13.4375C13.5204 11.4688 13.5999 11.4358 13.6585 11.3772C13.7171 11.3186 13.75 11.2391 13.75 11.1562V8.8125C13.746 8.73236 13.7113 8.65683 13.6531 8.60156C13.5949 8.5463 13.5177 8.51552 13.4375 8.51562ZM9.725 13.5594C9.24637 13.9051 8.70175 14.1487 8.125 14.275C8.0396 14.2968 7.95299 14.3134 7.86562 14.325C7.76562 14.325 7.66875 14.35 7.56875 14.3562H7.44375H7.1625C7.099 14.3595 7.03538 14.3595 6.97187 14.3562C5.85256 14.301 4.79712 13.8184 4.02321 13.0078C3.2493 12.1973 2.81594 11.1207 2.8125 10C2.81172 9.24947 3.00402 8.51136 3.37094 7.85663C3.73785 7.20189 4.26702 6.65256 4.90759 6.26144C5.54815 5.87033 6.27857 5.65057 7.0286 5.62332C7.77864 5.59606 8.52308 5.76221 9.19034 6.1058C9.85761 6.44939 10.4253 6.95885 10.8387 7.58522C11.2522 8.21159 11.4976 8.9338 11.5513 9.68241C11.605 10.431 11.4652 11.1809 11.1454 11.8598C10.8255 12.5388 10.3364 13.1241 9.725 13.5594Z" fill="#8B98A1"/>
<path id="Vector_2" d="M7.1875 6.25C6.39238 6.25024 5.61792 6.50319 4.97597 6.97234C4.33401 7.44148 3.85779 8.10253 3.61608 8.86001C3.37436 9.61749 3.37967 10.4322 3.63124 11.1865C3.8828 11.9407 4.3676 12.5955 5.01562 13.0563C5.12215 12.555 5.39435 12.1042 5.78835 11.7765C6.18236 11.4489 6.67522 11.2634 7.1875 11.25C7.70178 11.259 8.19787 11.4418 8.59505 11.7686C8.99223 12.0955 9.26712 12.5471 9.375 13.05C10.0214 12.5876 10.5042 11.9318 10.7537 11.1772C11.0032 10.4226 11.0065 9.60821 10.7631 8.85162C10.5197 8.09502 10.0422 7.43532 9.39956 6.96772C8.75689 6.50011 7.98227 6.24878 7.1875 6.25ZM7.21562 10.625C6.90659 10.625 6.60449 10.5334 6.34754 10.3617C6.09059 10.19 5.89032 9.94596 5.77206 9.66045C5.6538 9.37494 5.62285 9.06077 5.68314 8.75768C5.74343 8.45458 5.89225 8.17617 6.11077 7.95765C6.32929 7.73913 6.6077 7.59032 6.91079 7.53003C7.21389 7.46974 7.52805 7.50068 7.81356 7.61894C8.09907 7.7372 8.3431 7.93747 8.51479 8.19443C8.68648 8.45138 8.77812 8.75347 8.77812 9.0625C8.77812 9.47691 8.6135 9.87433 8.32048 10.1674C8.02745 10.4604 7.63002 10.625 7.21562 10.625ZM14.6875 2.5C14.0507 2.49876 13.4374 2.7406 12.9728 3.17616C12.5082 3.61172 12.2273 4.20816 12.1875 4.84375L13.1687 5.825C13.2008 5.85668 13.2262 5.8944 13.2436 5.93597C13.2609 5.97754 13.2698 6.02214 13.2698 6.06719C13.2698 6.11224 13.2609 6.15684 13.2436 6.19841C13.2262 6.23999 13.2008 6.2777 13.1687 6.30938L12.8125 6.6625C12.9204 6.784 13.0397 6.89491 13.1687 6.99375C13.3034 6.69734 13.5156 6.44276 13.7829 6.25686C14.0502 6.07096 14.3627 5.96063 14.6875 5.9375C15.0101 5.9628 15.32 6.07414 15.5849 6.25991C15.8498 6.44568 16.0601 6.6991 16.1937 6.99375C16.6114 6.67783 16.9192 6.23875 17.0739 5.73847C17.2286 5.23819 17.2223 4.70198 17.0558 4.20548C16.8894 3.70898 16.5713 3.27728 16.1464 2.97128C15.7214 2.66528 15.2111 2.50043 14.6875 2.5ZM14.6875 5.3125C14.5021 5.3125 14.3208 5.25752 14.1666 5.15451C14.0125 5.05149 13.8923 4.90508 13.8214 4.73377C13.7504 4.56246 13.7318 4.37396 13.768 4.19211C13.8042 4.01025 13.8935 3.8432 14.0246 3.71209C14.1557 3.58098 14.3227 3.49169 14.5046 3.45552C14.6865 3.41934 14.875 3.43791 15.0463 3.50887C15.2176 3.57982 15.364 3.69999 15.467 3.85416C15.57 4.00833 15.625 4.18958 15.625 4.375C15.625 4.62365 15.5262 4.8621 15.3504 5.03792C15.1746 5.21373 14.9361 5.3125 14.6875 5.3125ZM10.4187 4.46875L10.8781 4.00938C10.9088 3.97849 10.9453 3.95402 10.9856 3.93738C11.0258 3.92075 11.069 3.91229 11.1125 3.9125C11.0782 3.91593 11.0437 3.91593 11.0094 3.9125H10.625C10.5421 3.9125 10.4626 3.94543 10.404 4.00403C10.3454 4.06264 10.3125 4.14212 10.3125 4.225V4.5375C10.3494 4.51695 10.3849 4.49399 10.4187 4.46875Z" fill="#8B98A1"/>
<path id="Vector_3" d="M18.75 3.925H18.3656C18.2776 3.9234 18.192 3.89604 18.1194 3.84629C18.0468 3.79655 17.9904 3.72661 17.9572 3.64513C17.9239 3.56365 17.9153 3.47421 17.9323 3.38787C17.9494 3.30153 17.9914 3.22209 18.0531 3.15937L18.325 2.8875C18.3543 2.85845 18.3775 2.82389 18.3934 2.78581C18.4093 2.74772 18.4174 2.70688 18.4174 2.66562C18.4174 2.62437 18.4093 2.58353 18.3934 2.54544C18.3775 2.50736 18.3543 2.4728 18.325 2.44375L17.2437 1.36875C17.2147 1.33946 17.1801 1.31621 17.142 1.30035C17.104 1.28448 17.0631 1.27631 17.0219 1.27631C16.9806 1.27631 16.9398 1.28448 16.9017 1.30035C16.8636 1.31621 16.829 1.33946 16.8 1.36875L16.5281 1.64062C16.4654 1.70237 16.386 1.74436 16.2996 1.76142C16.2133 1.77847 16.1238 1.76984 16.0424 1.73658C15.9609 1.70332 15.8909 1.6469 15.8412 1.57431C15.7915 1.50171 15.7641 1.41612 15.7625 1.32812V0.9375C15.7625 0.85462 15.7296 0.775134 15.671 0.716529C15.6124 0.657924 15.5329 0.625 15.45 0.625H13.925C13.8421 0.625 13.7626 0.657924 13.704 0.716529C13.6454 0.775134 13.6125 0.85462 13.6125 0.9375V1.32187C13.6109 1.40987 13.5835 1.49546 13.5338 1.56806C13.484 1.64065 13.4141 1.69707 13.3326 1.73033C13.2511 1.76359 13.1617 1.77222 13.0754 1.75517C12.989 1.73811 12.9096 1.69612 12.8469 1.63437L12.575 1.3625C12.5459 1.33321 12.5114 1.30996 12.4733 1.2941C12.4352 1.27823 12.3944 1.27006 12.3531 1.27006C12.3119 1.27006 12.271 1.27823 12.2329 1.2941C12.1949 1.30996 12.1603 1.33321 12.1312 1.3625L11.0562 2.44375C11.027 2.4728 11.0037 2.50736 10.9878 2.54544C10.972 2.58353 10.9638 2.62437 10.9638 2.66562C10.9638 2.70688 10.972 2.74772 10.9878 2.78581C11.0037 2.82389 11.027 2.85845 11.0562 2.8875L11.3281 3.15937C11.3842 3.21519 11.4244 3.28488 11.4447 3.36133C11.465 3.43778 11.4646 3.51824 11.4437 3.59451C11.4227 3.67078 11.3819 3.74011 11.3253 3.79543C11.2688 3.85075 11.1986 3.89007 11.1219 3.90938C11.2122 3.9095 11.2987 3.94547 11.3625 4.00938L11.6469 4.29375C11.7789 3.72875 12.0656 3.21166 12.4749 2.8004C12.8842 2.38913 13.3999 2.09994 13.9642 1.9652C14.5286 1.83046 15.1193 1.8555 15.6702 2.03751C16.2212 2.21953 16.7105 2.55133 17.0835 2.99576C17.4566 3.44018 17.6985 3.97968 17.7822 4.55382C17.8659 5.12797 17.7882 5.71409 17.5576 6.24653C17.327 6.77897 16.9528 7.23671 16.4768 7.56848C16.0008 7.90026 15.4418 8.09296 14.8625 8.125H14.5125C13.8966 8.08906 13.305 7.87159 12.8125 7.5C12.6916 7.4041 12.5778 7.29966 12.4719 7.1875C12.4235 7.38613 12.4388 7.59492 12.5156 7.78438C12.6017 7.99342 12.7604 8.16434 12.9625 8.26562C13.0206 8.23788 13.0841 8.22348 13.1484 8.22348C13.2128 8.22348 13.2763 8.23788 13.3344 8.26562C13.3951 8.28938 13.4488 8.32808 13.4906 8.37812H14.0312C14.076 8.37771 14.1204 8.38612 14.1618 8.40285C14.2033 8.41959 14.2411 8.44434 14.273 8.47568C14.3049 8.50702 14.3304 8.54434 14.3479 8.58551C14.3654 8.62668 14.3746 8.67089 14.375 8.71562V9.375H15.45C15.5329 9.375 15.6124 9.34208 15.671 9.28347C15.7296 9.22487 15.7625 9.14538 15.7625 9.0625V8.67813C15.7641 8.59013 15.7915 8.50454 15.8412 8.43194C15.8909 8.35935 15.9609 8.30293 16.0424 8.26967C16.1238 8.23641 16.2133 8.22778 16.2996 8.24483C16.386 8.26189 16.4654 8.30388 16.5281 8.36563L16.8 8.6375C16.829 8.66679 16.8636 8.69004 16.9017 8.7059C16.9398 8.72177 16.9806 8.72994 17.0219 8.72994C17.0631 8.72994 17.104 8.72177 17.142 8.7059C17.1801 8.69004 17.2147 8.66679 17.2437 8.6375L18.3187 7.5625C18.348 7.53345 18.3713 7.49889 18.3871 7.4608C18.403 7.42272 18.4112 7.38188 18.4112 7.34062C18.4112 7.29937 18.403 7.25853 18.3871 7.22044C18.3713 7.18236 18.348 7.1478 18.3187 7.11875L18.0469 6.84688C17.9851 6.78416 17.9431 6.70472 17.9261 6.61838C17.909 6.53205 17.9177 6.4426 17.9509 6.36112C17.9842 6.27964 18.0406 6.2097 18.1132 6.15996C18.1858 6.11021 18.2714 6.08285 18.3594 6.08125H18.75C18.8329 6.08125 18.9124 6.04833 18.971 5.98972C19.0296 5.93112 19.0625 5.85163 19.0625 5.76875V4.2375C19.0625 4.15462 19.0296 4.07513 18.971 4.01653C18.9124 3.95792 18.8329 3.925 18.75 3.925ZM14.375 11.5625H14.2062C14.1541 11.5963 14.0934 11.6147 14.0312 11.6156H13.7875C13.3056 11.7266 12.8615 11.9627 12.5 12.3C12.4478 12.4626 12.442 12.6365 12.4834 12.8022C12.5248 12.9679 12.6118 13.1186 12.7344 13.2375L13.1625 13.6656C13.1433 13.5908 13.1307 13.5145 13.125 13.4375C13.1205 13.1263 13.2305 12.8243 13.4342 12.589C13.6378 12.3536 13.9209 12.2013 14.2295 12.1611C14.5381 12.1208 14.8508 12.1954 15.108 12.3706C15.3652 12.5459 15.549 12.8095 15.6245 13.1115C15.7 13.4134 15.6618 13.7325 15.5173 14.0082C15.3729 14.2838 15.1321 14.4968 14.8408 14.6065C14.5496 14.7162 14.2282 14.715 13.9377 14.6032C13.6473 14.4914 13.4081 14.2767 13.2656 14C13.2546 14.0658 13.2241 14.1267 13.1781 14.175L11.8156 15.5344C12.0025 15.9428 12.283 16.3014 12.6344 16.5813C13.0219 15.8438 13.6562 15.3125 14.375 15.3125C15.0937 15.3125 15.7219 15.8469 16.1094 16.5875C16.5695 16.2264 16.9055 15.7309 17.0708 15.1699C17.2361 14.6088 17.2224 14.0102 17.0316 13.4574C16.8408 12.9045 16.4823 12.4249 16.0062 12.0853C15.53 11.7457 14.9599 11.5629 14.375 11.5625Z" fill="#8B98A1"/>
<path id="Vector_4" d="M19.0625 13.1844H18.6187C18.5069 13.1835 18.3978 13.1497 18.305 13.0872C18.2123 13.0246 18.14 12.9361 18.0974 12.8327C18.0547 12.7293 18.0434 12.6156 18.065 12.5059C18.0866 12.3961 18.1401 12.2951 18.2187 12.2156L18.5312 11.9031C18.5605 11.8741 18.5838 11.8395 18.5997 11.8014C18.6155 11.7633 18.6237 11.7225 18.6237 11.6813C18.6237 11.64 18.6155 11.5992 18.5997 11.5611C18.5838 11.523 18.5605 11.4884 18.5312 11.4594L17.2812 10.2094C17.2522 10.1801 17.2176 10.1568 17.1796 10.141C17.1415 10.1251 17.1006 10.1169 17.0594 10.1169C17.0181 10.1169 16.9773 10.1251 16.9392 10.141C16.9011 10.1568 16.8666 10.1801 16.8375 10.2094L16.525 10.5219C16.4455 10.6006 16.3445 10.654 16.2348 10.6756C16.125 10.6972 16.0113 10.686 15.9079 10.6433C15.8045 10.6006 15.716 10.5283 15.6535 10.4356C15.5909 10.3429 15.5571 10.2337 15.5562 10.1219V9.6875C15.5562 9.60462 15.5233 9.52513 15.4647 9.46653C15.4061 9.40792 15.3266 9.375 15.2437 9.375H14.375V10.9375C14.9834 10.9365 15.5811 11.0969 16.1072 11.4024C16.6332 11.7079 17.0688 12.1476 17.3694 12.6765C17.67 13.2054 17.8248 13.8046 17.8181 14.4129C17.8114 15.0212 17.6434 15.6169 17.3312 16.139C17.019 16.6612 16.5738 17.0911 16.0411 17.3849C15.5085 17.6788 14.9073 17.826 14.2992 17.8115C13.691 17.7971 13.0975 17.6215 12.5794 17.3027C12.0613 16.9839 11.637 16.5333 11.35 15.9969C11.2156 16.1219 10.7 16.3656 10.5312 16.5344L10.2187 16.8469C10.1895 16.8759 10.1662 16.9105 10.1503 16.9486C10.1345 16.9867 10.1263 17.0275 10.1263 17.0687C10.1263 17.11 10.1345 17.1508 10.1503 17.1889C10.1662 17.227 10.1895 17.2616 10.2187 17.2906L11.4687 18.5406C11.4978 18.5699 11.5324 18.5932 11.5704 18.609C11.6085 18.6249 11.6494 18.6331 11.6906 18.6331C11.7319 18.6331 11.7727 18.6249 11.8108 18.609C11.8489 18.5932 11.8834 18.5699 11.9125 18.5406L12.225 18.2281C12.3045 18.1494 12.4055 18.096 12.5152 18.0744C12.625 18.0528 12.7387 18.064 12.8421 18.1067C12.9455 18.1494 13.034 18.2217 13.0965 18.3144C13.1591 18.4071 13.1929 18.5163 13.1937 18.6281V19.0625C13.1937 19.1454 13.2267 19.2249 13.2853 19.2835C13.3439 19.3421 13.4234 19.375 13.5062 19.375H15.2625C15.3454 19.375 15.4249 19.3421 15.4835 19.2835C15.5421 19.2249 15.575 19.1454 15.575 19.0625V18.6188C15.5758 18.5069 15.6097 18.3978 15.6722 18.305C15.7348 18.2123 15.8233 18.14 15.9267 18.0974C16.0301 18.0547 16.1438 18.0434 16.2535 18.065C16.3633 18.0866 16.4642 18.1401 16.5437 18.2188L16.8562 18.5312C16.8853 18.5605 16.9199 18.5838 16.9579 18.5997C16.996 18.6155 17.0369 18.6237 17.0781 18.6237C17.1194 18.6237 17.1602 18.6155 17.1983 18.5997C17.2364 18.5838 17.2709 18.5605 17.3 18.5312L18.55 17.2812C18.5793 17.2522 18.6025 17.2176 18.6184 17.1796C18.6343 17.1415 18.6424 17.1006 18.6424 17.0594C18.6424 17.0181 18.6343 16.9773 18.6184 16.9392C18.6025 16.9011 18.5793 16.8666 18.55 16.8375L18.2375 16.525C18.1588 16.4455 18.1053 16.3445 18.0838 16.2348C18.0622 16.125 18.0734 16.0113 18.1161 15.9079C18.1588 15.8045 18.231 15.716 18.3238 15.6535C18.4165 15.5909 18.5256 15.5571 18.6375 15.5562H19.0625C19.1454 15.5562 19.2249 15.5233 19.2835 15.4647C19.3421 15.4061 19.375 15.3266 19.375 15.2437V13.4969C19.375 13.414 19.3421 13.3345 19.2835 13.2759C19.2249 13.2173 19.1454 13.1844 19.0625 13.1844Z" fill="#8B98A1"/>
</g>
<defs>
<clipPath id="clip0_3768_8467">
<rect width="20" height="20" fill="white"/>
</clipPath>
</defs>
</svg>
