<svg width="9" height="20" viewBox="0 0 9 20" fill="none" xmlns="http://www.w3.org/2000/svg">
<path d="M7.96052 5.25836L6.56658 3.54955C6.49334 3.4616 6.45428 3.34852 6.45428 3.22915V3.03754C6.45428 2.95901 6.44451 2.88048 6.42987 2.80509C6.72526 2.64803 6.93276 2.29936 6.93276 1.89414V0.998901C6.93276 0.44605 6.55437 0 6.0881 0H2.56296C2.09913 0 1.72318 0.449191 1.72318 0.998901V1.89414C1.72318 2.28993 1.91848 2.62918 2.19922 2.78938C2.18213 2.87105 2.17237 2.95273 2.17237 3.03754V3.25428C2.17237 3.36108 2.13575 3.47102 2.07472 3.55583L0.795514 5.28349C0.639276 5.50024 0.553833 5.76724 0.553833 6.03424V18.7812C0.553833 19.4534 1.06649 20 1.69633 20H7.10365C7.73348 20 8.24614 19.4534 8.24614 18.7812V6.05937C8.2437 5.7641 8.14361 5.47825 7.96052 5.25836ZM1.23738 9.14717C1.98439 8.95555 3.46622 8.71682 4.24497 9.18172C4.60871 9.39846 5.04813 9.48013 5.49244 9.48013C6.27607 9.48013 7.08167 9.23512 7.55771 9.06235V10.2466C6.84976 10.5262 5.39723 10.9471 4.62824 10.4853C3.62001 9.8822 1.97707 10.1743 1.23494 10.3502V9.14717H1.23738ZM2.40672 0.998901C2.40672 0.844982 2.48973 0.728758 2.56296 0.728758H6.09054C6.16621 0.728758 6.25166 0.844982 6.25166 0.998901V1.89414C6.25166 2.04806 6.16621 2.16428 6.09054 2.16428H2.56296C2.48973 2.16428 2.40672 2.04806 2.40672 1.89414V0.998901ZM1.33503 5.73268L2.50681 4.14952H3.88611C4.07408 4.14952 4.22788 3.98618 4.22788 3.78514C4.22788 3.58411 4.07408 3.42076 3.88611 3.42076H2.84126C2.84859 3.36736 2.85347 3.31082 2.85347 3.25742V3.03754C2.85347 2.98728 2.86079 2.93702 2.873 2.89304H5.75121C5.76585 2.94016 5.77074 2.98728 5.77074 3.03754V3.22601C5.77074 3.52442 5.87083 3.80713 6.05392 4.02701L7.44786 5.73583C7.5211 5.82378 7.56016 5.93686 7.56016 6.05623V8.28334C6.87417 8.56604 5.37038 9.01524 4.57942 8.54091C3.5956 7.95037 2.00148 8.21737 1.23738 8.39328V6.02796C1.23738 5.92744 1.274 5.8175 1.33503 5.73268ZM7.1012 19.2712H1.69633C1.44488 19.2712 1.23738 19.0514 1.23738 18.7812V11.0978C1.96486 10.9062 3.49795 10.6424 4.29623 11.1198C4.65998 11.3366 5.0994 11.4183 5.54614 11.4183C6.30292 11.4183 7.07923 11.1921 7.5626 11.0193V18.7844C7.56016 19.0514 7.35509 19.2712 7.1012 19.2712Z" fill="#002246"/>
</svg>
