<svg width="15" height="15" viewBox="0 0 15 15" fill="none" xmlns="http://www.w3.org/2000/svg">
<path d="M6.14097 2.65129C5.41858 3.0262 4.61682 3.44354 4.35485 3.58501L3.87856 3.83967L3.85474 5.69296L3.83887 7.53918L4.0532 7.68065C4.49774 7.95653 7.49841 9.47029 7.55398 9.44199C7.58573 9.42784 8.40337 9.0105 9.37184 8.50827L11.1421 7.60284V5.70711V3.81137L10.9277 3.71234C10.8007 3.65575 10.0148 3.25255 9.16545 2.82106C8.32399 2.38249 7.59367 2.01467 7.5381 2.00052C7.49047 1.98637 6.86335 2.28346 6.14097 2.65129ZM8.03027 2.53104C8.25254 2.65129 8.44306 2.77155 8.44306 2.79984C8.44306 2.82813 7.7445 3.21011 6.88716 3.64868L5.3392 4.44093L4.89466 4.21457C4.64857 4.08724 4.45011 3.94577 4.45011 3.9104C4.45011 3.86796 5.05342 3.52843 5.79168 3.14645C6.52994 2.77155 7.18882 2.43201 7.25232 2.38957C7.44284 2.28346 7.58573 2.30468 8.03027 2.53104ZM9.08606 3.07571C9.21308 3.14645 9.31627 3.21719 9.31627 3.23841C9.30833 3.25963 8.60977 3.63453 7.7445 4.0731L6.18066 4.87949L5.91869 4.75217C5.78374 4.6885 5.68848 4.61069 5.7123 4.58947C5.75993 4.54703 8.77647 2.96961 8.8241 2.96253C8.83998 2.95546 8.95905 3.01205 9.08606 3.07571ZM10.5308 3.83967C10.6499 3.91748 10.4673 4.03065 9.14957 4.7168C8.31605 5.14829 7.57779 5.50197 7.52222 5.50197C7.45872 5.50197 7.20469 5.40294 6.95861 5.27562C6.42674 5.00682 6.27592 5.14122 8.27636 4.10846L9.6735 3.38695L10.0307 3.57087C10.2292 3.6699 10.4514 3.79722 10.5308 3.83967ZM4.92641 4.5541C5.1725 4.67436 5.18043 4.69558 5.20425 5.21195C5.22806 5.72833 5.236 5.74248 5.45827 5.79199C5.58529 5.82736 5.78374 5.93346 5.91076 6.03957C6.02983 6.1386 6.16478 6.20226 6.21241 6.18104C6.26004 6.15275 6.29973 5.96176 6.29973 5.74955C6.29973 5.53734 6.32355 5.35343 6.36324 5.3322C6.39499 5.31806 6.6252 5.41001 6.87922 5.55149L7.33171 5.79906V7.426C7.33171 8.32436 7.29995 9.03879 7.26026 9.02465C7.22057 9.0105 6.51406 8.64974 5.68055 8.22532L4.16434 7.44722L4.1564 5.79906V4.14383L4.41836 4.28531C4.55331 4.35604 4.78352 4.47629 4.92641 4.5541ZM10.8722 5.83443L10.8642 7.44015L9.31627 8.23947C8.46688 8.67804 7.7445 9.03879 7.71274 9.03879C7.67305 9.03879 7.64924 8.31021 7.64924 7.41893V5.79906L9.22101 4.99267C10.0783 4.54703 10.8087 4.19335 10.8325 4.20042C10.8642 4.21457 10.8801 4.95023 10.8722 5.83443ZM5.83137 5.01389C6.02189 5.13414 6.06158 5.21195 6.06158 5.43831C6.06158 5.58686 6.04571 5.71418 6.03777 5.71418C6.02189 5.71418 5.89488 5.66467 5.75993 5.601C5.52972 5.50197 5.5059 5.45953 5.5059 5.17658C5.5059 5.00682 5.52972 4.86534 5.55353 4.86534C5.57735 4.86534 5.70436 4.92901 5.83137 5.01389Z" fill="#095DBA"/>
<path d="M2.2593 6.8813C1.62424 7.20669 1.08444 7.525 1.04474 7.58159C1.01299 7.63818 0.989177 8.13333 1.00505 8.69215L1.02093 9.70368L1.93383 10.1705C6.29988 12.427 7.43505 13 7.5065 13C7.55413 13 7.88753 12.8515 8.25269 12.6605L8.91157 12.328L8.91951 11.748V11.175L9.35611 10.9557C9.59426 10.8355 9.80859 10.7364 9.83241 10.7364C9.85622 10.7364 9.8721 10.8638 9.8721 11.0194C9.8721 11.3235 9.83241 11.3518 9.6022 11.1962C9.38787 11.0547 9.23704 11.0618 9.23704 11.2104C9.23704 11.2882 9.3958 11.4155 9.64189 11.5358L10.0388 11.7338L10.7294 11.3872L11.4201 11.0406L11.4439 10.4676C11.4677 9.85223 11.4598 9.87345 12.0392 9.57636L12.4123 9.38537V9.71783V10.0432L12.2139 9.93004C12.1107 9.86638 11.9599 9.81686 11.8964 9.81686C11.6503 9.81686 11.817 10.0361 12.1901 10.2271L12.5711 10.4181L12.9363 10.2413C13.1427 10.1493 13.4602 9.97955 13.6507 9.87345L14 9.67539V8.60019V7.51793L12.8648 6.93789C11.6265 6.30126 11.5233 6.26589 11.4836 6.42151C11.4598 6.49932 11.7455 6.67616 12.3885 7.00862C12.9045 7.27035 13.3729 7.51085 13.4284 7.54622C13.5078 7.58866 13.357 7.70184 12.8966 7.93527L12.2615 8.26066L11.7773 8.00601C11.3327 7.77258 11.1422 7.74428 11.1422 7.91405C11.1422 7.94942 11.3248 8.07674 11.5471 8.197L11.9519 8.42335L11.3645 8.72752C11.047 8.89729 10.7374 9.03169 10.6897 9.03876C10.6342 9.03876 10.4119 8.93973 10.2055 8.82655C9.99117 8.71337 9.75303 8.61434 9.68158 8.61434C9.41962 8.61434 9.56251 8.81948 9.95942 9.01047C10.4198 9.23682 10.4357 9.2156 9.57838 9.64709L9.08621 9.8876L8.60992 9.64002C8.34001 9.49855 8.08599 9.40659 8.0463 9.42781C7.88753 9.51977 7.97485 9.64709 8.32414 9.80979C8.52259 9.90174 8.68136 10.0008 8.68136 10.0361C8.68136 10.0998 7.62557 10.6657 7.49856 10.6657C7.45887 10.6657 6.76824 10.3262 5.96647 9.91589C5.16471 9.50562 3.88665 8.84777 3.12457 8.45165C2.3625 8.0626 1.68774 7.70184 1.63218 7.6594C1.54486 7.58866 1.63218 7.51793 2.0926 7.27742C2.40219 7.1218 2.6959 6.9874 2.7356 6.9874C2.78323 6.9874 2.95787 7.05107 3.13251 7.12888C3.43416 7.27035 3.60087 7.27035 3.60087 7.12888C3.60087 7.09351 3.49767 7.0157 3.36272 6.95204C3.06107 6.81764 3.069 6.76812 3.37066 6.6125C3.60087 6.49932 3.6485 6.35078 3.47386 6.30833C3.43416 6.29419 2.88642 6.55591 2.2593 6.8813ZM13.6825 8.13333V8.4375L12.9125 8.82655C11.5471 9.51269 11.3645 9.60465 9.8721 10.3757C9.0624 10.793 8.19713 11.2387 7.95104 11.366L7.49856 11.5923L6.48246 11.0689C5.91884 10.7789 5.33935 10.4747 5.18852 10.404C4.76779 10.1918 1.67981 8.60727 1.47341 8.49409C1.3464 8.42335 1.29877 8.3314 1.29877 8.15455C1.29877 8.02016 1.33846 7.90698 1.38609 7.90698C1.42578 7.90698 2.72766 8.55775 4.25974 9.34293C5.79977 10.1352 7.16515 10.8355 7.29216 10.8991L7.53825 11.0052L9.59426 9.94419C10.7294 9.36415 12.1028 8.64971 12.6505 8.36676C13.1982 8.07674 13.6507 7.84331 13.6666 7.84331C13.6745 7.83624 13.6825 7.97064 13.6825 8.13333ZM3.18808 9.68246C4.18036 10.1918 5.51399 10.885 6.16493 11.2104L7.33185 11.8116V12.2007C7.33185 12.5402 7.31598 12.5827 7.1969 12.5473C7.06195 12.4978 4.9345 11.4155 2.5292 10.1635L1.33846 9.54806L1.31465 9.15194C1.29877 8.93266 1.31465 8.75581 1.33846 8.75581C1.36228 8.75581 2.19579 9.17316 3.18808 9.68246ZM13.6825 9.15901V9.56928L13.2856 9.76027C13.0633 9.87345 12.849 9.95833 12.8093 9.95833C12.7616 9.95833 12.7299 9.78857 12.7299 9.58343V9.2156L13.1903 8.98924C13.4364 8.86192 13.6507 8.75581 13.6666 8.75581C13.6745 8.75581 13.6825 8.93973 13.6825 9.15901ZM11.1422 10.4818V10.8638L10.7056 11.083C10.4675 11.2033 10.2531 11.3023 10.2293 11.3023C10.2055 11.3023 10.1896 11.1255 10.1896 10.9133V10.5242L10.6104 10.312C10.8326 10.1988 11.047 10.0998 11.0867 10.0998C11.1184 10.0998 11.1422 10.2696 11.1422 10.4818ZM8.57022 12.1158C8.53847 12.2078 7.84784 12.5756 7.72083 12.5756C7.68114 12.5756 7.64938 12.4058 7.64938 12.2007V11.8328L8.1098 11.6065L8.56229 11.3801L8.5861 11.7055C8.60198 11.8824 8.59404 12.0663 8.57022 12.1158Z" fill="#095DBA"/>
</svg>
