<svg width="252" height="30" viewBox="0 0 252 30" fill="none" xmlns="http://www.w3.org/2000/svg">
<g clip-path="url(#clip0_3293_56099)">
<path d="M7.70693 28.9655L0.0517578 0.672424H5.12072L11.0173 22.3966L17.3276 0.672424H22.0345L28.3449 22.5L34.2414 0.672424H39.2586L31.6035 28.9655H25.7586L19.6035 7.86208L13.5 28.9655H7.70693Z" fill="#BE11A5"/>
<path d="M42.7759 0.672424H47.5862V28.9655H42.7759V0.672424Z" fill="#BE11A5"/>
<path d="M57.7757 24.5172H69.4137V28.9655H53.0688V0.724121H57.7757V24.5172Z" fill="#BE11A5"/>
<path d="M84.207 0.724136C87.8794 0.620687 91.4484 2.12069 93.9829 4.81035C99.207 10.4483 99.207 19.2414 93.9829 24.8793C91.4484 27.569 87.8794 29.069 84.207 28.9655H72.9312V0.724136H84.207ZM84.207 24.5172C86.8967 24.5172 89.1208 23.5862 90.776 21.7759C92.5346 19.9138 93.4656 17.3793 93.3622 14.8448C93.4656 12.2586 92.5346 9.77587 90.776 7.9138C89.0691 6.10345 86.6898 5.06897 84.207 5.17242H77.6381V24.5172H84.207Z" fill="#BE11A5"/>
<path d="M123.155 20.8965C123.207 23.0689 122.276 25.1896 120.673 26.6379C119.017 28.1896 116.845 29.0172 114.569 28.9655H102.311V0.724121H113.69C115.862 0.672397 117.983 1.49998 119.638 2.94826C121.242 4.34481 122.121 6.41378 122.069 8.53447C122.173 10.8103 121.035 12.9827 119.173 14.2759C121.655 15.5172 123.207 18.1034 123.155 20.8965ZM107.017 5.06895V12.5172H113.69C115.759 12.5172 117.414 10.8621 117.414 8.79309C117.414 6.72412 115.759 5.06895 113.69 5.06895H107.017ZM114.569 24.569C116.742 24.4655 118.448 22.6552 118.345 20.4827C118.293 18.4138 116.586 16.7586 114.569 16.7069H107.017V24.6207L114.569 24.569Z" fill="#BE11A5"/>
<path d="M132.362 24.5172H145.035V28.9655H127.655V0.724121H144.828V5.1724H132.362V12.5172H143.845V16.9138H132.362V24.5172Z" fill="#BE11A5"/>
<path d="M165.569 28.9655L159.466 18.6724H153.931V28.9655H149.224V0.672415H160.707C163.138 0.620691 165.517 1.60345 167.224 3.36207C168.983 5.01724 169.966 7.34482 169.914 9.77586C169.862 13.3965 167.638 16.6552 164.224 17.9483L170.741 28.9655H165.569ZM153.931 5.06897V14.5345H160.655C163.241 14.431 165.259 12.2069 165.155 9.56896C165.052 7.13793 163.086 5.17241 160.655 5.06897H153.931Z" fill="#BE11A5"/>
<path d="M190.655 28.9655L184.604 18.6724H179.069V28.9655H174.362V0.672415H185.845C188.276 0.620691 190.655 1.60345 192.362 3.36207C194.121 5.01724 195.104 7.34482 195.052 9.77586C195 13.3965 192.776 16.6552 189.362 17.9483L195.88 28.9655H190.655ZM179.069 5.06897V14.5345H185.793C188.431 14.3793 190.397 12.1552 190.242 9.51724C190.086 7.13793 188.173 5.17241 185.793 5.06897H179.069Z" fill="#BE11A5"/>
<path d="M199.293 0.672424H204V28.9655H199.293V0.672424Z" fill="#BE11A5"/>
<path d="M214.242 24.5172H226.914V28.9655H209.535V0.724121H226.707V5.1724H214.242V12.5172H225.724V16.9138H214.242V24.5172Z" fill="#BE11A5"/>
<path d="M230.224 22.5517L234.31 20.2241C235.448 23.431 237.828 24.9828 241.397 24.9828C244.965 24.9828 246.724 23.4828 246.724 21.2586C246.776 20.2241 246.207 19.1897 245.276 18.6724C244.345 18.0517 242.638 17.3793 240.207 16.6552C237.465 15.8276 236.121 15.3103 234.207 14.069C232.293 12.8276 231.414 10.9138 231.414 8.37931C231.31 6.10344 232.345 3.87931 234.103 2.43103C235.914 0.93103 238.241 0.155166 240.621 0.20689C244.914 0.0517175 248.845 2.53448 250.603 6.41379L246.672 8.63793C245.483 6.05172 243.466 4.7069 240.672 4.7069C237.879 4.7069 236.172 6.05172 236.172 8.22413C236.172 10.3965 237.569 11.2759 241.966 12.6207C243.052 12.9828 243.828 13.2414 244.345 13.4483C244.862 13.6552 245.586 13.9138 246.466 14.2759C247.19 14.5345 247.914 14.9483 248.534 15.4138C250.034 16.6034 251.69 18.5172 251.483 21.2069C251.586 23.5862 250.552 25.8103 248.69 27.3103C246.828 28.8103 244.397 29.5345 241.345 29.5345C235.707 29.4828 231.672 26.8448 230.224 22.5517Z" fill="#BE11A5"/>
</g>
<defs>
<clipPath id="clip0_3293_56099">
<rect width="251.897" height="30" fill="white" transform="translate(0.0517578)"/>
</clipPath>
</defs>
</svg>
