<svg width="200" height="44" viewBox="0 0 200 44" fill="none" xmlns="http://www.w3.org/2000/svg">
<path d="M28.0166 32.923C32.9199 32.3012 36.8809 28.3403 37.5065 23.4331C37.7249 21.7582 37.5556 20.0555 37.0117 18.4564C36.4678 16.8573 35.5638 15.4045 34.3695 14.2102C33.1751 13.0158 31.7224 12.1118 30.1233 11.5679C28.5242 11.024 26.8215 10.8547 25.1466 11.0732C20.2394 11.6988 16.2784 15.6598 15.6567 20.563C15.4383 22.2379 15.6076 23.9406 16.1515 25.5397C16.6954 27.1388 17.5994 28.5916 18.7937 29.7859C19.9881 30.9803 21.4409 31.8843 23.04 32.4282C24.6391 32.9721 26.3417 33.1414 28.0166 32.923ZM28.6852 1.45427C33.406 1.95122 37.813 4.05371 41.1695 7.4102C44.5259 10.7667 46.6284 15.1737 47.1254 19.8944C48.4196 32.9542 37.5339 43.84 24.4701 42.5458C19.7501 42.048 15.344 39.9451 11.9883 36.5887C8.63262 33.2323 6.53069 28.8257 6.0339 24.1056C4.73965 11.0458 15.6254 0.160016 28.6852 1.45427ZM58.2067 2.27148H88.4359C89.5854 2.27148 90.2345 3.58529 89.5424 4.50025L68.6272 32.094H85.0145C88.0018 32.094 90.3518 34.8115 89.734 37.9084C89.2804 40.1801 87.1494 41.7286 84.8346 41.7286H52.0052C50.8674 41.7286 50.2222 40.4265 50.9065 39.5232L71.8374 11.906H58.3866C56.0718 11.906 53.9407 10.3537 53.4872 8.08584C52.8655 4.98902 55.2194 2.27148 58.2067 2.27148ZM189.395 2.38097C192.516 1.72407 195.26 4.08578 195.26 7.08876V40.3365C195.26 41.4979 193.919 42.143 193.012 41.4236L166.936 20.7351V36.9191C166.936 39.9221 164.191 42.2838 161.07 41.6269C158.834 41.1577 157.301 39.0736 157.301 36.7901V3.65958C157.301 2.49827 158.642 1.8531 159.549 2.57256L185.63 23.261V7.21779C185.63 4.93428 187.167 2.85409 189.399 2.38097H189.395ZM121.496 1.34869C137.461 1.34869 150.404 10.5922 150.404 21.9942C150.404 33.3961 137.461 42.6396 121.496 42.6396C105.531 42.6396 92.5884 33.3961 92.5884 21.9942C92.5884 10.5922 105.531 1.34869 121.496 1.34869ZM121.496 10.9832C110.466 10.9832 102.223 16.7976 102.223 21.9942C102.223 27.1907 110.466 33.0051 121.496 33.0051C132.526 33.0051 140.769 27.1946 140.769 21.9942C140.769 16.7937 132.526 10.9832 121.496 10.9832Z" fill="#005BFF"/>
</svg>
