<svg width="200" height="38" viewBox="0 0 200 38" fill="none" xmlns="http://www.w3.org/2000/svg">
<g clip-path="url(#clip0_3293_56071)">
<path d="M93.964 31.6576H97.9279L103.468 11.0721V31.6576H107.928V4.45044H101.802L96.2613 24.4054L90.7207 4.45044H84.4595V31.6576H88.2883V11.0721L93.964 31.6576ZM126.577 18.1892C126.577 13.3694 124.189 11.5676 119.234 11.5676C116.126 11.5676 113.694 12.5135 112.252 13.3694V17.1982C113.468 16.2522 116.216 15.2612 118.649 15.2612C120.946 15.2612 121.892 16.1171 121.892 18.1441V19.2252H121.171C114.054 19.2252 110.811 21.6126 110.811 25.6216C110.811 29.6306 113.198 31.8829 116.847 31.8829C119.595 31.8829 120.811 31.027 121.667 30.0811H121.892C121.892 30.5766 122.117 31.2973 122.252 31.6576H126.847C126.712 30.0811 126.622 28.4144 126.622 26.8378C126.577 26.8378 126.577 18.1892 126.577 18.1892ZM121.892 26.973C121.306 27.8288 120.225 28.5495 118.514 28.5495C116.577 28.5495 115.631 27.3333 115.631 25.6667C115.631 23.3694 117.207 22.5585 121.306 22.5585H122.027V27.018H121.892V26.973ZM134.64 11.9279H130.315V37.3333H135V29.4054C136.216 31.2072 137.883 32.0631 139.955 32.0631C144.55 32.0631 147.658 28.4594 147.658 21.8378C147.658 15.2162 144.64 11.6126 140.18 11.6126C138.018 11.6126 136.216 12.5585 134.865 14.4955C134.91 14.4504 134.64 11.9279 134.64 11.9279ZM138.649 28.4144C136.261 28.4144 134.91 26.3874 134.91 21.9279C134.91 17.3333 136.216 15.3063 138.874 15.3063C141.396 15.3063 142.703 17.3333 142.703 21.7928C142.703 26.3874 141.396 28.4144 138.649 28.4144ZM162.207 31.6576H167.523L160.045 21.0721L166.667 11.9279H161.982L155.36 21.0721V11.9279H150.676V31.6576H155.36V22.018L162.207 31.6576ZM183.153 30.3513V26.5225C181.712 27.4685 179.324 28.3243 177.027 28.3243C173.649 28.3243 172.342 26.7477 172.072 23.3694H183.243V20.8468C183.243 14 180.225 11.4775 175.541 11.4775C169.865 11.4775 167.117 15.8018 167.117 21.8378C167.117 28.6847 170.496 32.0631 176.396 32.0631C179.685 32.018 181.847 31.2973 183.153 30.3513ZM175.586 15.3063C177.883 15.3063 178.604 17.2432 178.604 19.6306V19.991H172.072C172.207 16.8829 173.423 15.3063 175.586 15.3063ZM200 15.6667V11.9279H184.369V15.6667H189.91V31.6576H194.595V15.6667H200Z" fill="black"/>
<path d="M56.6666 36.4775C66.6666 36.4775 74.7296 28.4144 74.7296 18.4144C74.7296 8.41441 66.6666 0.351349 56.6666 0.351349C46.6666 0.351349 38.6035 8.41441 38.6035 18.4144C38.5134 28.4144 46.7116 36.4775 56.6666 36.4775Z" fill="#FED42B"/>
<path d="M18.0631 36.4775C28.039 36.4775 36.1261 28.3904 36.1261 18.4144C36.1261 8.43845 28.039 0.351349 18.0631 0.351349C8.08711 0.351349 0 8.43845 0 18.4144C0 28.3904 8.08711 36.4775 18.0631 36.4775Z" fill="#FC3F1D"/>
<path d="M20.6756 10.4865H18.8738C15.7656 10.4865 14.1891 12.0631 14.1891 14.4504C14.1891 17.1081 15.2702 18.4144 17.5674 19.991L19.3692 21.2973L14.1891 29.3604H9.95483L14.9098 22.018C12.0269 19.991 10.4503 18.0541 10.4503 14.6757C10.4503 10.4414 13.3332 7.55856 18.8738 7.55856H24.4143V29.2252H20.8107V10.4414H20.6756V10.4865Z" fill="white"/>
<mask id="mask0_3293_56071" style="mask-type:luminance" maskUnits="userSpaceOnUse" x="38" y="0" width="37" height="37">
<path d="M56.6666 36.4775C66.6666 36.4775 74.7296 28.4144 74.7296 18.4144C74.7296 8.41441 66.6666 0.351349 56.6666 0.351349C46.6666 0.351349 38.6035 8.41441 38.6035 18.4144C38.5134 28.4144 46.7116 36.4775 56.6666 36.4775Z" fill="white"/>
</mask>
<g mask="url(#mask0_3293_56071)">
<path d="M47.7927 10.2613L31.8918 31.0721L36.1261 35.8919L47.9279 20.2613L46.7117 28.8198L53.3333 31.1171L61.3964 18.2342C61.036 20.6216 60.4504 26.1622 65.7207 27.8739C74.009 30.3964 81.2612 15.4865 84.5945 7.91891L79.7747 5.39639C76.036 13.2342 70.2702 21.8829 67.9729 21.2973C65.6756 20.7117 67.7477 13.3694 69.054 8.63963V8.5045L61.7117 5.98198L52.9279 20.3063L54.1441 12.4685L47.7927 10.2613Z" fill="black"/>
</g>
</g>
<defs>
<clipPath id="clip0_3293_56071">
<rect width="200" height="37.3874" fill="white" transform="translate(0 0.306305)"/>
</clipPath>
</defs>
</svg>
