<svg width="150" height="76" viewBox="0 0 150 76" fill="none" xmlns="http://www.w3.org/2000/svg">
<g clip-path="url(#clip0_3293_56119)">
<path fill-rule="evenodd" clip-rule="evenodd" d="M24.0366 35.775C22.9379 36.4251 21.5747 36.4503 20.6751 36.4503H18.5585V29.4956H20.3728C21.4311 29.4956 22.6734 29.4956 23.7317 29.9845C24.2937 30.2204 24.7713 30.6208 25.1018 31.1329C25.4323 31.6451 25.6003 32.2452 25.5838 32.8545C25.5838 33.8625 25.2411 35.0644 24.0366 35.7775V35.775ZM89.048 51.345C88.5477 51.3404 88.0625 51.5161 87.6811 51.84C87.2998 52.1639 87.048 52.6144 86.9717 53.1089H91.1521C91.0751 52.6096 90.8192 52.1553 90.4321 51.8308C90.045 51.5063 89.553 51.3336 89.048 51.345ZM118.079 55.1776C117.818 55.0301 117.519 54.9618 117.22 54.9811H116.003V56.745H117.172C117.492 56.7661 117.81 56.6877 118.084 56.5207C118.19 56.4344 118.275 56.3251 118.332 56.2011C118.389 56.0771 118.417 55.9416 118.414 55.8051C118.414 55.681 118.383 55.5589 118.325 55.4495C118.266 55.3401 118.182 55.2467 118.079 55.1776ZM56.9102 26.8221C55.977 26.8114 55.0715 27.1391 54.3613 27.7446C53.6511 28.3501 53.1843 29.1923 53.0473 30.1155H60.7983C60.6648 29.1861 60.1956 28.3379 59.4791 27.731C58.7627 27.1242 57.8488 26.8008 56.9102 26.8221ZM56.5121 51.7986C55.917 51.7759 55.3372 51.9897 54.8994 52.3932C54.6235 52.6227 54.4046 52.913 54.2599 53.2414C54.1152 53.5697 54.0486 53.9272 54.0653 54.2856C54.0571 54.6452 54.1259 55.0023 54.2671 55.3331C54.4084 55.6639 54.6188 55.9605 54.8843 56.2032C55.3348 56.5957 55.9146 56.8075 56.5121 56.7979C56.8182 56.8071 57.1232 56.7558 57.4095 56.6468C57.6957 56.5378 57.9576 56.3734 58.1802 56.1629C58.4301 55.9188 58.6279 55.6266 58.7617 55.304C58.8955 54.9813 58.9626 54.6349 58.9588 54.2856C58.9594 53.593 58.688 52.9279 58.2029 52.4336C57.7334 52.0247 57.1321 51.7992 56.5095 51.7986H56.5121ZM23.772 22.42C23.772 20.1194 22.0081 19.245 19.9923 19.245H18.5459V25.7134H19.9494C20.7054 25.7134 23.772 25.6352 23.772 22.42ZM150 9.87628C149.993 7.39068 149.002 5.00902 147.244 3.25167C145.486 1.49432 143.104 0.504145 140.619 0.497498L9.37878 0.497498C6.89362 0.50481 4.51234 1.49528 2.75506 3.25256C0.997779 5.00984 0.00731227 7.39112 0 9.87628L0 66.1238C0.0119253 68.6075 1.00387 70.9861 2.76016 72.7424C4.51644 74.4987 6.89505 75.4906 9.37878 75.5025H140.619C143.104 75.4959 145.486 74.5057 147.244 72.7484C149.002 70.991 149.993 68.6093 150 66.1238V9.87628ZM32.6216 32.338C32.6216 29.4679 33.7858 27.1673 35.4514 25.6982C37.0897 24.2883 39.1918 23.5343 41.3528 23.5816C42.8867 23.5534 44.4055 23.8884 45.7852 24.5593V29.095C44.765 28.1343 43.4062 27.6162 42.0054 27.6536C38.9363 27.6536 37.3891 29.8887 37.3891 32.2699C37.3891 34.9561 39.3873 36.9266 42.1516 36.9266C43.4983 36.9219 44.7931 36.4068 45.7751 35.4852V39.9831C44.4625 40.6463 43.0124 40.9916 41.5418 40.991C38.9766 40.991 36.7012 40.0108 35.2422 38.6098C34.3957 37.8004 33.7269 36.8236 33.2784 35.7417C32.8298 34.6598 32.6113 33.4963 32.6367 32.3254L32.6216 32.338ZM13.6247 40.4745H22.0913C24.2886 40.4745 26.5892 40.0915 28.4816 38.4359C30.2152 36.8888 30.6385 34.8124 30.6385 33.3308C30.6385 32.0079 30.3336 30.0374 28.8242 28.6086C27.9219 27.7446 26.7689 27.1888 25.5308 27.0211C26.2062 26.6381 28.3631 25.3152 28.3631 22.0596C28.3631 19.943 27.4887 17.9725 26.0197 16.8335C23.9837 15.2485 21.2572 15.2485 19.8562 15.2485H13.6247V40.4745ZM22.6784 49.886V58.7054H20.1863V53.2651L16.1117 58.7054H13.6247V49.886H16.1117V55.3213L20.1863 49.886H22.6784ZM33.3272 49.886V58.7054H30.8401V55.1172H27.3703V58.7054H24.8832V49.886H27.3703V53.0056H30.8351V49.886H33.3272ZM41.8744 50.1229V52.5847C41.3251 52.0648 40.592 51.7839 39.8359 51.8036C38.1829 51.8036 37.3488 53.0081 37.3488 54.2907C37.3488 55.732 38.4349 56.7903 39.9165 56.7903C40.644 56.7847 41.3428 56.5059 41.8744 56.0092V58.4307C40.9615 58.8954 39.9298 59.074 38.9138 58.9432C37.8979 58.8124 36.945 58.3782 36.1796 57.6975C35.7224 57.2619 35.3612 56.7357 35.1191 56.1526C34.877 55.5694 34.7593 54.9421 34.7735 54.3108C34.75 53.6854 34.8555 53.0619 35.0837 52.4792C35.3119 51.8964 35.6577 51.3669 36.0997 50.9238C36.5416 50.4807 37.0701 50.1335 37.6523 49.9037C38.2344 49.674 38.8577 49.5668 39.4831 49.5887C40.3071 49.5783 41.1223 49.7595 41.8643 50.1178L41.8744 50.1229ZM50.525 49.886V52.0027H48.0782V58.7054H45.5911V51.9976H43.1394V49.886H50.525ZM50.7089 38.7056C48.8846 36.9946 48.1286 34.878 48.1286 32.3002C48.1286 29.0446 49.4515 27.0463 50.6283 25.8696C52.5585 23.9772 54.8213 23.569 56.7918 23.569C60.1129 23.569 62.0456 24.8919 63.182 26.2526C64.9283 28.3315 65.1525 30.9092 65.1525 32.6832V33.0662H52.9012C52.9012 34.059 53.1657 35.1173 53.6949 35.838C54.1837 36.5133 55.2068 37.3852 56.9883 37.3852C57.7618 37.4116 58.5277 37.2245 59.202 36.8445C59.8763 36.4645 60.4329 35.9061 60.8109 35.2307L65.0442 35.9035C64.5553 37.1206 62.7033 41.0112 56.9807 41.0112C54.3223 41.0112 52.3241 40.2553 50.6963 38.7081L50.7089 38.7056ZM61.5315 54.2907C61.5315 56.2864 60.6572 57.3598 60.1431 57.8739C59.3285 58.6221 58.2581 59.0297 57.1521 59.0128C56.5992 59.0265 56.0515 58.9031 55.5578 58.6539C55.064 58.4046 54.6396 58.0371 54.3223 57.5841V63.3923H51.8353V49.886H54.3223V51.0225C54.644 50.5629 55.0762 50.1918 55.5792 49.9434C56.0821 49.695 56.6395 49.5774 57.2 49.6013C57.7569 49.5886 58.3108 49.6862 58.8297 49.8886C59.3487 50.091 59.8225 50.3942 60.2238 50.7806C60.8714 51.4281 61.5467 52.5444 61.5467 54.2856L61.5315 54.2907ZM65.1424 63.3771H62.3202L65.5607 57.385L61.3678 49.886H64.2555L66.9794 54.8979L69.4362 49.886H72.2534L65.1374 63.3721L65.1424 63.3771ZM83.4994 58.7054H80.9795L80.2538 53.9177L78.0565 58.7054H77.157L74.9622 53.9177L74.234 58.7054H71.7469L73.3596 49.886H75.1991L77.6206 54.9635L80.0472 49.886H81.8942L83.5094 58.7054H83.4994ZM93.4854 54.5099V54.7216H86.886C86.8689 55.2475 87.017 55.7657 87.3093 56.2032C87.5135 56.475 87.7809 56.6929 88.0882 56.8382C88.3955 56.9836 88.7336 57.0519 89.0732 57.0373C89.4907 57.0501 89.9037 56.9484 90.2675 56.7431C90.6313 56.5379 90.932 56.237 91.1369 55.8731L93.4249 56.2435C93.1604 56.8911 92.165 58.9952 89.0858 58.9952C87.6571 58.9952 86.566 58.5844 85.6992 57.7504C84.7215 56.8382 84.3107 55.6992 84.3107 54.3108C84.3107 52.5469 85.0264 51.4811 85.6614 50.8461C86.692 49.8381 87.9292 49.6013 88.98 49.6013C90.7665 49.6013 91.8122 50.3169 92.4195 51.0451C93.3594 52.169 93.4779 53.565 93.4779 54.5099H93.4854ZM103.527 49.886V58.7054H101.045V55.1172H97.5751V58.7054H95.088V49.886H97.5751V53.0056H101.045V49.886H103.527ZM112.205 49.886V52.0027H109.758V58.7054H107.271V51.9976H104.825V49.886H112.205ZM120.974 55.8101C120.991 56.2308 120.915 56.65 120.754 57.0386C120.592 57.4272 120.347 57.7759 120.037 58.0603C119.486 58.5192 118.782 58.7508 118.066 58.7079H113.515V49.886H116.003V53.0207H117.928C118.709 53.0207 119.692 53.2449 120.296 53.9203C120.758 54.4384 121 55.1166 120.969 55.8101H120.974ZM124.389 49.886V58.7054H121.901V49.886H124.389ZM136.36 32.7815C136.36 34.6363 135.809 36.4493 134.778 37.9913C133.747 39.5333 132.283 40.7351 130.569 41.4445C128.855 42.154 126.969 42.3394 125.15 41.9772C123.331 41.615 121.66 40.7216 120.349 39.4098C119.037 38.0981 118.144 36.427 117.783 34.6077C117.421 32.7885 117.607 30.9029 118.317 29.1893C119.027 27.4757 120.229 26.011 121.771 24.9806C123.313 23.9502 125.127 23.4002 126.981 23.4002C129.468 23.4035 131.852 24.393 133.61 26.1517C135.369 27.9104 136.358 30.2946 136.36 32.7815ZM131.386 32.6882L132.898 29.5536H134.644L130.212 37.9647H128.466L130.481 34.2354L127.881 29.5611H129.68L131.386 32.6832V32.6882ZM127.251 30.1155C127.528 30.4052 127.744 30.7482 127.886 31.1237C128.027 31.4992 128.09 31.8994 128.072 32.3002C128.092 32.7099 128.025 33.1192 127.877 33.5016C127.729 33.8839 127.502 34.2309 127.211 34.5201C126.704 34.989 126.036 35.2452 125.346 35.2358C125.002 35.2457 124.66 35.1699 124.352 35.015C124.044 34.8602 123.78 34.6313 123.582 34.3488V37.9748H122.035V29.5611H123.582V30.2742C123.783 29.9898 124.051 29.7599 124.363 29.6055C124.675 29.451 125.021 29.3769 125.369 29.3898C125.714 29.3776 126.059 29.4357 126.382 29.5604C126.704 29.6852 126.998 29.874 127.246 30.1155H127.251ZM126.47 32.3002C126.475 32.5177 126.434 32.7337 126.349 32.9343C126.265 33.1349 126.14 33.3155 125.981 33.4643C125.698 33.7279 125.322 33.87 124.935 33.8599C124.565 33.864 124.207 33.7322 123.927 33.4895C123.763 33.339 123.633 33.1549 123.546 32.9497C123.459 32.7445 123.417 32.523 123.423 32.3002C123.412 32.0782 123.451 31.8565 123.539 31.6521C123.626 31.4477 123.759 31.266 123.927 31.1209C124.202 30.8708 124.564 30.7379 124.935 30.7505C125.14 30.7448 125.343 30.7812 125.533 30.8572C125.722 30.9333 125.895 31.0475 126.038 31.1928C126.182 31.338 126.295 31.5112 126.369 31.7017C126.443 31.8922 126.478 32.0959 126.47 32.3002ZM119.989 33.2375C120.185 33.2375 120.377 33.2958 120.54 33.4049C120.704 33.514 120.831 33.669 120.906 33.8504C120.981 34.0318 121.001 34.2315 120.963 34.424C120.924 34.6166 120.83 34.7935 120.691 34.9324C120.552 35.0712 120.375 35.1658 120.183 35.2041C119.99 35.2424 119.79 35.2227 119.609 35.1476C119.428 35.0725 119.273 34.9452 119.163 34.7819C119.054 34.6187 118.996 34.4267 118.996 34.2304C118.995 34.0991 119.02 33.9689 119.07 33.8475C119.12 33.7261 119.194 33.6159 119.287 33.5234C119.38 33.4309 119.491 33.3579 119.613 33.3089C119.735 33.2598 119.865 33.2355 119.996 33.2375H119.989Z" fill="#D90000"/>
</g>
<defs>
<clipPath id="clip0_3293_56119">
<rect width="150" height="75.005" fill="white" transform="translate(0 0.497498)"/>
</clipPath>
</defs>
</svg>
