<svg width="5" height="13" viewBox="0 0 5 13" fill="none" xmlns="http://www.w3.org/2000/svg">
<path d="M4.81434 3.41794L3.90828 2.30721C3.86068 2.25004 3.83529 2.17654 3.83529 2.09895V1.9744C3.83529 1.92335 3.82894 1.87231 3.81942 1.82331C4.01143 1.72122 4.1463 1.49458 4.1463 1.23119V0.649285C4.1463 0.289932 3.90035 0 3.59727 0H1.30593C1.00444 0 0.760076 0.291974 0.760076 0.649285V1.23119C0.760076 1.48846 0.88702 1.70897 1.0695 1.8131C1.05839 1.86619 1.05205 1.91927 1.05205 1.9744V2.11528C1.05205 2.1847 1.02824 2.25616 0.988575 2.31129L0.157093 3.43427C0.0555379 3.57515 0 3.7487 0 3.92226V12.2078C0 12.6447 0.333228 13 0.742621 13H4.25738C4.66677 13 5 12.6447 5 12.2078V3.93859C4.99841 3.74666 4.93335 3.56086 4.81434 3.41794ZM0.444303 5.94566C0.929864 5.82111 1.89305 5.66593 2.39924 5.96812C2.63567 6.109 2.92129 6.16209 3.21009 6.16209C3.71945 6.16209 4.2431 6.00283 4.55252 5.89053V6.66028C4.09235 6.842 3.14821 7.1156 2.64837 6.81545C1.99302 6.42343 0.925103 6.61332 0.442717 6.72766V5.94566H0.444303ZM1.20438 0.649285C1.20438 0.549238 1.25833 0.473693 1.30593 0.473693H3.59886C3.64805 0.473693 3.70359 0.549238 3.70359 0.649285V1.23119C3.70359 1.33124 3.64805 1.40679 3.59886 1.40679H1.30593C1.25833 1.40679 1.20438 1.33124 1.20438 1.23119V0.649285ZM0.507775 3.72624L1.26944 2.69719H2.16598C2.28816 2.69719 2.38813 2.59102 2.38813 2.46034C2.38813 2.32967 2.28816 2.2235 2.16598 2.2235H1.48683C1.49159 2.18879 1.49476 2.15203 1.49476 2.11732V1.9744C1.49476 1.94173 1.49952 1.90906 1.50746 1.88048H3.37829C3.38781 1.9111 3.39099 1.94173 3.39099 1.9744V2.09691C3.39099 2.29087 3.45605 2.47463 3.57506 2.61756L4.48112 3.72829C4.52872 3.78546 4.55411 3.85896 4.55411 3.93655V5.38417C4.10822 5.56793 3.13075 5.8599 2.61663 5.55159C1.97715 5.16774 0.940971 5.34129 0.444303 5.45563V3.91817C0.444303 3.85284 0.468106 3.78137 0.507775 3.72624ZM4.25579 12.5263H0.742621C0.579181 12.5263 0.444303 12.3834 0.444303 12.2078V7.2136C0.917169 7.08905 1.91368 6.91754 2.43256 7.22789C2.66899 7.36878 2.95462 7.42186 3.245 7.42186C3.73691 7.42186 4.24151 7.27485 4.5557 7.16256V12.2098C4.55411 12.3834 4.42082 12.5263 4.25579 12.5263Z" fill="#095DBA"/>
</svg>
